<?xml version="1.0" encoding="UTF-8"?>
<svg xmlns="http://www.w3.org/2000/svg" xmlns:xlink="http://www.w3.org/1999/xlink" width="75pt" height="75pt" viewBox="0 0 75 75" version="1.1">
<defs>
<filter id="alpha" filterUnits="objectBoundingBox" x="0%" y="0%" width="100%" height="100%">
  <feColorMatrix type="matrix" in="SourceGraphic" values="0 0 0 0 1 0 0 0 0 1 0 0 0 0 1 0 0 0 1 0"/>
</filter>
<mask id="mask0">
  <g filter="url(#alpha)">
<rect x="0" y="0" width="75" height="75" style="fill:rgb(0%,0%,0%);fill-opacity:0.301961;stroke:none;"/>
  </g>
</mask>
<clipPath id="clip1">
  <rect x="0" y="0" width="75" height="75"/>
</clipPath>
<g id="surface5" clip-path="url(#clip1)">
<path style=" stroke:none;fill-rule:nonzero;fill:rgb(11.764706%,11.764706%,10.980392%);fill-opacity:1;" d="M 42.984375 14.886719 L 42.121094 17.421875 L 43.53125 17.4375 L 43.214844 44.566406 C 43.824219 44.859375 44.378906 45.234375 44.8125 45.75 C 46.964844 48.292969 47.886719 51.15625 47.25 54.457031 C 46.859375 56.460938 45.601562 58.441406 44.0625 59.753906 C 42.105469 61.425781 39.601562 62.535156 36.984375 62.386719 C 35.496094 62.300781 34.019531 61.921875 32.738281 61.15625 C 31.289062 60.292969 30.433594 59.21875 29.445312 57.898438 C 29.347656 57.773438 29.273438 57.636719 29.199219 57.496094 L 28.484375 57.488281 L 28.484375 57.398438 L 27.871094 59.203125 L 39.71875 71.332031 C 55.386719 70.320312 68.199219 58.65625 70.882812 43.441406 Z M 42.984375 14.886719 "/>
</g>
</defs>
<g id="surface1">
<path style=" stroke:none;fill-rule:nonzero;fill:rgb(94.509804%,67.843137%,3.137255%);fill-opacity:1;" d="M 71.40625 37.5 C 71.40625 56.226562 56.226562 71.40625 37.5 71.40625 C 18.773438 71.40625 3.59375 56.226562 3.59375 37.5 C 3.59375 18.773438 18.773438 3.59375 37.5 3.59375 C 56.226562 3.59375 71.40625 18.773438 71.40625 37.5 Z M 71.40625 37.5 "/>
<path style=" stroke:none;fill-rule:nonzero;fill:rgb(100%,100%,100%);fill-opacity:1;" d="M 37.890625 3.59375 C 56.617188 3.808594 71.625 19.164062 71.40625 37.890625 C 71.191406 56.617188 55.835938 71.625 37.109375 71.40625 C 18.382812 71.191406 3.375 55.835938 3.59375 37.109375 C 3.808594 18.382812 19.164062 3.375 37.890625 3.59375 M 37.933594 0 C 27.921875 -0.113281 18.457031 3.675781 11.296875 10.679688 C 4.125 17.675781 0.121094 27.050781 0 37.066406 C -0.113281 47.078125 3.675781 56.542969 10.679688 63.703125 C 17.675781 70.867188 27.050781 74.878906 37.066406 74.992188 C 47.078125 75.105469 56.542969 71.316406 63.703125 64.3125 C 70.867188 57.316406 74.878906 47.941406 74.992188 37.925781 C 75.105469 27.914062 71.316406 18.449219 64.3125 11.289062 C 57.324219 4.125 47.949219 0.121094 37.933594 0 Z M 37.933594 0 "/>
<use xlink:href="#surface5" mask="url(#mask0)"/>
<path style=" stroke:none;fill-rule:nonzero;fill:rgb(100%,100%,100%);fill-opacity:1;" d="M 44.851562 34.695312 C 44.8125 37.828125 44.78125 40.964844 44.738281 44.101562 C 44.738281 44.347656 44.796875 44.519531 44.984375 44.691406 C 47.003906 46.613281 48.15625 48.976562 48.449219 51.726562 C 48.75 54.53125 48.046875 57.097656 46.410156 59.398438 C 44.78125 61.679688 42.609375 63.195312 39.855469 63.742188 C 35.21875 64.65625 31.3125 63.328125 28.359375 59.601562 C 26.601562 57.390625 25.941406 54.796875 26.167969 51.984375 C 26.347656 49.71875 27.136719 47.675781 28.539062 45.890625 C 28.933594 45.390625 29.398438 44.933594 29.863281 44.488281 C 30.039062 44.324219 30.082031 44.167969 30.082031 43.949219 C 30.128906 39.523438 30.234375 30.621094 30.351562 19.996094 C 30.398438 16.199219 33.210938 13.199219 36.988281 12.796875 C 40.003906 12.472656 43.074219 14.289062 44.339844 16.996094 C 44.835938 18.050781 45.015625 19.171875 45 20.316406 C 44.925781 27.683594 44.902344 30.195312 44.851562 34.695312 Z M 42.703125 23.21875 C 42.71875 22.078125 42.796875 20.941406 42.742188 19.800781 C 42.609375 16.84375 39.914062 14.671875 36.996094 15.097656 C 34.800781 15.421875 33.050781 16.980469 32.738281 19.050781 C 32.585938 20.039062 32.609375 21.066406 32.601562 22.078125 C 32.558594 25.640625 32.558594 25.777344 32.476562 32.894531 C 32.429688 36.824219 32.386719 40.753906 32.355469 44.683594 C 32.347656 45.179688 32.175781 45.53125 31.785156 45.832031 C 31.425781 46.109375 31.074219 46.417969 30.773438 46.761719 C 29.109375 48.660156 28.214844 50.84375 28.386719 53.398438 C 28.550781 55.84375 29.519531 57.9375 31.363281 59.542969 C 33.40625 61.320312 35.820312 62.0625 38.519531 61.679688 C 42.015625 61.191406 44.40625 59.21875 45.683594 55.972656 C 47.0625 52.476562 45.914062 48.34375 43.003906 45.960938 C 42.609375 45.636719 42.449219 45.277344 42.449219 44.773438 C 42.546875 37.101562 42.628906 29.804688 42.703125 23.21875 Z M 42.703125 23.21875 "/>
<path style=" stroke:none;fill-rule:nonzero;fill:rgb(100%,100%,100%);fill-opacity:1;" d="M 38.175781 45.515625 C 38.03125 45.585938 37.851562 45.613281 37.695312 45.613281 C 36.808594 45.613281 35.925781 45.609375 35.039062 45.585938 C 34.824219 45.578125 34.746094 45.628906 34.746094 45.855469 C 34.753906 46.386719 34.738281 46.921875 34.726562 47.460938 L 39.988281 47.519531 C 40.066406 41.265625 40.140625 35.011719 40.207031 28.753906 C 40.207031 28.640625 40.199219 28.53125 40.199219 28.425781 L 34.957031 28.363281 C 34.949219 28.921875 34.957031 29.460938 34.933594 29.992188 C 34.925781 30.210938 34.988281 30.285156 35.210938 30.285156 C 36.089844 30.285156 36.96875 30.292969 37.84375 30.316406 C 38.023438 30.324219 38.226562 30.367188 38.386719 30.457031 C 38.664062 30.613281 38.648438 30.996094 38.363281 31.148438 C 38.226562 31.214844 38.0625 31.246094 37.90625 31.246094 C 36.996094 31.246094 36.082031 31.230469 35.175781 31.214844 C 35.003906 31.214844 34.914062 31.246094 34.921875 31.449219 C 34.925781 31.933594 34.921875 32.429688 34.90625 32.917969 C 34.898438 33.113281 34.972656 33.15625 35.152344 33.15625 C 35.535156 33.148438 35.917969 33.164062 36.308594 33.164062 C 36.878906 33.171875 37.441406 33.171875 38.011719 33.195312 C 38.308594 33.203125 38.535156 33.390625 38.550781 33.613281 C 38.574219 33.871094 38.390625 34.058594 38.0625 34.117188 C 37.988281 34.132812 37.914062 34.132812 37.835938 34.132812 C 36.953125 34.125 36.066406 34.109375 35.183594 34.101562 C 35.09375 34.101562 35.003906 34.109375 34.90625 34.117188 L 34.882812 36.03125 C 35.011719 36.03125 35.109375 36.03125 35.210938 36.039062 C 36.082031 36.046875 36.945312 36.050781 37.816406 36.066406 C 37.949219 36.066406 38.085938 36.082031 38.203125 36.128906 C 38.386719 36.195312 38.511719 36.328125 38.511719 36.539062 C 38.511719 36.75 38.386719 36.886719 38.199219 36.945312 C 38.070312 36.988281 37.921875 36.996094 37.777344 36.996094 C 36.914062 36.988281 36.058594 36.984375 35.199219 36.96875 C 34.890625 36.96875 34.859375 36.996094 34.851562 37.3125 C 34.84375 37.753906 34.851562 38.199219 34.828125 38.640625 C 34.824219 38.851562 34.898438 38.910156 35.101562 38.910156 C 35.992188 38.910156 36.886719 38.925781 37.777344 38.941406 C 37.933594 38.941406 38.113281 38.976562 38.257812 39.046875 C 38.542969 39.1875 38.566406 39.585938 38.289062 39.734375 C 38.121094 39.824219 37.914062 39.871094 37.71875 39.871094 C 36.847656 39.878906 35.976562 39.855469 35.113281 39.847656 C 35.023438 39.847656 34.933594 39.855469 34.84375 39.855469 L 34.824219 41.765625 L 35.113281 41.765625 C 35.992188 41.773438 36.871094 41.78125 37.746094 41.804688 C 37.90625 41.804688 38.085938 41.84375 38.226562 41.910156 C 38.535156 42.058594 38.527344 42.480469 38.226562 42.628906 C 38.070312 42.710938 37.898438 42.75 37.734375 42.75 C 36.847656 42.75 35.960938 42.734375 35.078125 42.726562 C 34.988281 42.726562 34.898438 42.734375 34.808594 42.734375 L 34.785156 44.632812 L 35.078125 44.632812 C 35.917969 44.640625 36.765625 44.648438 37.605469 44.671875 C 37.800781 44.675781 38.011719 44.714844 38.183594 44.796875 C 38.496094 44.953125 38.484375 45.375 38.175781 45.515625 Z M 38.175781 45.515625 "/>
<path style=" stroke:none;fill-rule:nonzero;fill:rgb(100%,100%,100%);fill-opacity:1;" d="M 43.460938 52.792969 C 43.460938 56.21875 40.683594 58.996094 37.261719 58.996094 C 33.835938 58.996094 31.058594 56.21875 31.058594 52.792969 C 31.058594 49.367188 33.835938 46.589844 37.261719 46.589844 C 40.683594 46.589844 43.460938 49.367188 43.460938 52.792969 Z M 43.460938 52.792969 "/>
</g>
</svg>
