<?xml version="1.0" encoding="UTF-8"?>
<svg xmlns="http://www.w3.org/2000/svg" xmlns:xlink="http://www.w3.org/1999/xlink" width="75pt" height="75pt" viewBox="0 0 75 75" version="1.1">
<defs>
<filter id="alpha" filterUnits="objectBoundingBox" x="0%" y="0%" width="100%" height="100%">
  <feColorMatrix type="matrix" in="SourceGraphic" values="0 0 0 0 1 0 0 0 0 1 0 0 0 0 1 0 0 0 1 0"/>
</filter>
<mask id="mask0">
  <g filter="url(#alpha)">
<rect x="0" y="0" width="75" height="75" style="fill:rgb(0%,0%,0%);fill-opacity:0.301961;stroke:none;"/>
  </g>
</mask>
<clipPath id="clip1">
  <rect x="0" y="0" width="75" height="75"/>
</clipPath>
<g id="surface5" clip-path="url(#clip1)">
<path style=" stroke:none;fill-rule:nonzero;fill:rgb(11.764706%,11.764706%,10.980392%);fill-opacity:1;" d="M 48.636719 20.078125 L 47.558594 21.878906 C 47.765625 22.050781 47.960938 22.246094 48.140625 22.460938 C 49.296875 22.941406 50.308594 23.886719 50.859375 25.371094 C 51.675781 27.59375 52.484375 29.152344 52.546875 31.175781 C 55.640625 32.128906 57.773438 36.148438 54.660156 38.917969 C 54.351562 39.1875 54.105469 39.53125 53.878906 39.90625 C 53.78125 40.074219 53.691406 40.253906 53.59375 40.417969 C 52.90625 41.761719 52.417969 43.417969 51.359375 44.488281 C 49.613281 46.265625 47.371094 47.488281 45.269531 48.796875 C 43.296875 50.015625 41.378906 51 39.007812 51.074219 C 38.378906 51.097656 37.753906 51.046875 37.140625 50.96875 C 37.238281 51.621094 37.222656 52.289062 37.074219 52.925781 C 36.691406 54.503906 35.46875 55.574219 34.019531 56.023438 L 47.691406 56.183594 L 47.671875 58.066406 L 27.464844 57.832031 L 27.488281 55.949219 L 30.449219 55.988281 C 30.066406 55.921875 29.683594 55.84375 29.332031 55.726562 C 29.316406 55.726562 29.300781 55.726562 29.28125 55.71875 C 28.808594 55.6875 27.71875 55.925781 29.203125 55.640625 C 28.550781 55.769531 27.921875 55.777344 27.324219 55.6875 L 25.539062 58.664062 L 37.972656 71.398438 C 54.601562 71.175781 68.390625 58.964844 70.972656 42.9375 Z M 48.636719 20.078125 "/>
</g>
</defs>
<g id="surface1">
<path style=" stroke:none;fill-rule:nonzero;fill:rgb(94.509804%,67.843137%,3.137255%);fill-opacity:1;" d="M 71.40625 37.5 C 71.40625 56.226562 56.226562 71.40625 37.5 71.40625 C 18.773438 71.40625 3.59375 56.226562 3.59375 37.5 C 3.59375 18.773438 18.773438 3.59375 37.5 3.59375 C 56.226562 3.59375 71.40625 18.773438 71.40625 37.5 Z M 71.40625 37.5 "/>
<path style=" stroke:none;fill-rule:nonzero;fill:rgb(100%,100%,100%);fill-opacity:1;" d="M 37.890625 3.59375 C 56.617188 3.808594 71.625 19.164062 71.40625 37.890625 C 71.191406 56.617188 55.835938 71.625 37.109375 71.40625 C 18.382812 71.191406 3.375 55.835938 3.59375 37.109375 C 3.808594 18.382812 19.164062 3.375 37.890625 3.59375 M 37.933594 0 C 27.914062 -0.113281 18.457031 3.675781 11.296875 10.679688 C 4.125 17.675781 0.121094 27.050781 0 37.066406 C -0.113281 47.078125 3.675781 56.542969 10.679688 63.703125 C 17.675781 70.867188 27.050781 74.878906 37.066406 74.992188 C 47.078125 75.105469 56.542969 71.316406 63.703125 64.3125 C 70.867188 57.316406 74.878906 47.941406 74.992188 37.925781 C 75.105469 27.914062 71.316406 18.449219 64.3125 11.289062 C 57.324219 4.125 47.949219 0.121094 37.933594 0 Z M 37.933594 0 "/>
<use xlink:href="#surface5" mask="url(#mask0)"/>
<path style=" stroke:none;fill-rule:nonzero;fill:rgb(100%,100%,100%);fill-opacity:1;" d="M 37.273438 59.324219 C 33.960938 59.289062 30.644531 59.257812 27.328125 59.203125 C 25.582031 59.175781 25.394531 58.972656 25.386719 57.246094 C 25.386719 56.910156 25.425781 56.566406 25.410156 56.226562 C 25.359375 54.996094 25.898438 54.464844 27.164062 54.503906 C 29.746094 54.578125 32.332031 54.554688 34.914062 54.613281 C 35.761719 54.628906 36.308594 54.488281 36.316406 53.453125 C 36.316406 52.539062 36.128906 52.109375 35.078125 51.9375 C 25.019531 50.300781 18.375 43.109375 17.566406 33.089844 C 17.414062 31.238281 17.691406 30.832031 19.53125 30.988281 C 21 31.109375 21.261719 30.398438 21.496094 29.199219 C 22.761719 22.816406 26.511719 18.464844 32.691406 16.515625 C 38.519531 14.671875 43.890625 15.898438 48.503906 19.941406 C 51.546875 22.613281 53.324219 26.039062 53.761719 30.082031 C 53.871094 31.117188 54.261719 31.371094 55.207031 31.386719 C 57.578125 31.425781 57.757812 31.671875 57.488281 34.042969 C 56.429688 43.574219 49.566406 50.542969 39.699219 51.96875 C 38.519531 52.140625 38.273438 52.558594 38.28125 53.601562 C 38.289062 54.890625 39.179688 54.644531 39.90625 54.652344 C 42.390625 54.699219 44.878906 54.757812 47.363281 54.726562 C 48.59375 54.710938 49.101562 55.132812 49.101562 56.429688 C 49.101562 59.496094 49.15625 59.46875 46.050781 59.390625 C 43.125 59.324219 40.199219 59.316406 37.273438 59.28125 C 37.273438 59.300781 37.273438 59.316406 37.273438 59.324219 Z M 37.320312 46.46875 C 45.238281 46.621094 51.816406 40.335938 51.976562 32.484375 C 52.140625 24.414062 45.890625 17.886719 37.808594 17.691406 C 29.953125 17.503906 23.257812 23.949219 23.09375 31.835938 C 22.925781 39.699219 29.371094 46.320312 37.320312 46.46875 Z M 19.558594 33.105469 C 19.589844 33.515625 19.597656 33.945312 19.65625 34.363281 C 20.8125 42.195312 26.191406 48.007812 33.898438 49.761719 C 40.914062 51.367188 48.421875 48.246094 52.679688 41.902344 C 54.195312 39.644531 55.148438 37.148438 55.425781 34.425781 C 55.460938 34.066406 55.265625 33.59375 55.011719 33.335938 C 54.871094 33.195312 54.238281 33.269531 54.097656 33.449219 C 53.859375 33.765625 53.789062 34.238281 53.722656 34.65625 C 52.085938 44.398438 42.425781 50.632812 33.128906 47.820312 C 26.363281 45.773438 22.46875 41.09375 21.335938 34.140625 C 21.15625 33.03125 20.8125 32.542969 19.558594 33.105469 Z M 47.039062 57.324219 C 47.039062 57.203125 47.039062 57.089844 47.039062 56.96875 C 40.582031 56.894531 34.132812 56.820312 27.675781 56.746094 C 27.675781 56.863281 27.675781 56.976562 27.675781 57.097656 C 34.132812 57.171875 40.582031 57.246094 47.039062 57.324219 Z M 47.039062 57.324219 "/>
<path style=" stroke:none;fill-rule:nonzero;fill:rgb(100%,100%,100%);fill-opacity:1;" d="M 28.371094 38.910156 C 28.148438 38.910156 27.921875 38.820312 27.757812 38.648438 C 27.421875 38.300781 27.425781 37.746094 27.773438 37.402344 L 30.195312 35.03125 C 30.539062 34.695312 31.09375 34.703125 31.441406 35.046875 C 31.777344 35.390625 31.769531 35.949219 31.425781 36.292969 L 29.003906 38.664062 C 28.824219 38.828125 28.597656 38.910156 28.371094 38.910156 Z M 28.371094 38.910156 "/>
<path style=" stroke:none;fill-rule:nonzero;fill:rgb(100%,100%,100%);fill-opacity:1;" d="M 44.648438 28.746094 C 44.421875 28.746094 44.199219 28.65625 44.03125 28.484375 C 43.695312 28.140625 43.703125 27.585938 44.046875 27.238281 L 46.46875 24.871094 C 46.816406 24.53125 47.371094 24.539062 47.714844 24.886719 C 48.050781 25.230469 48.046875 25.785156 47.699219 26.128906 L 45.269531 28.5 C 45.097656 28.664062 44.871094 28.746094 44.648438 28.746094 Z M 44.648438 28.746094 "/>
<path style=" stroke:none;fill-rule:nonzero;fill:rgb(100%,100%,100%);fill-opacity:1;" d="M 34.417969 33.007812 C 34.191406 33.007812 33.96875 32.917969 33.800781 32.746094 C 33.464844 32.398438 33.472656 31.84375 33.816406 31.5 L 40.800781 24.683594 C 41.144531 24.34375 41.699219 24.351562 42.046875 24.699219 C 42.382812 25.042969 42.375 25.597656 42.03125 25.941406 L 35.046875 32.761719 C 34.867188 32.925781 34.640625 33.007812 34.417969 33.007812 Z M 34.417969 33.007812 "/>
<path style=" stroke:none;fill-rule:nonzero;fill:rgb(100%,100%,100%);fill-opacity:1;" d="M 31.027344 42.050781 C 30.800781 42.050781 30.578125 41.960938 30.414062 41.789062 C 30.074219 41.445312 30.082031 40.890625 30.425781 40.546875 L 37.410156 33.726562 C 37.753906 33.390625 38.308594 33.398438 38.65625 33.742188 C 38.992188 34.085938 38.984375 34.640625 38.640625 34.988281 L 31.65625 41.804688 C 31.476562 41.976562 31.253906 42.058594 31.027344 42.050781 Z M 31.027344 42.050781 "/>
<path style=" stroke:none;fill-rule:nonzero;fill:rgb(100%,100%,100%);fill-opacity:1;" d="M 40.132812 33.15625 C 39.90625 33.15625 39.683594 33.066406 39.515625 32.894531 C 39.179688 32.550781 39.1875 31.996094 39.53125 31.648438 L 41.40625 29.820312 C 41.753906 29.484375 42.308594 29.488281 42.652344 29.835938 C 42.988281 30.179688 42.984375 30.734375 42.636719 31.078125 L 40.761719 32.910156 C 40.582031 33.074219 40.359375 33.15625 40.132812 33.15625 Z M 40.132812 33.15625 "/>
<path style=" stroke:none;fill-rule:nonzero;fill:rgb(100%,100%,100%);fill-opacity:1;" d="M 43.34375 25.027344 C 43.117188 25.027344 42.890625 24.9375 42.726562 24.765625 C 42.390625 24.421875 42.398438 23.863281 42.742188 23.519531 L 44.617188 21.691406 C 44.960938 21.351562 45.515625 21.359375 45.863281 21.703125 C 46.199219 22.050781 46.191406 22.605469 45.847656 22.949219 L 43.972656 24.78125 C 43.792969 24.945312 43.566406 25.035156 43.34375 25.027344 Z M 43.34375 25.027344 "/>
<path style=" stroke:none;fill-rule:nonzero;fill:rgb(100%,100%,100%);fill-opacity:1;" d="M 52.621094 54.097656 L 50.203125 54.058594 C 48.554688 53.8125 47.113281 53.113281 45.921875 51.984375 C 44.203125 50.363281 43.34375 48.058594 43.539062 45.652344 C 43.738281 43.246094 44.976562 41.109375 46.941406 39.789062 C 50.460938 37.425781 55.433594 38.386719 57.800781 41.886719 C 59.226562 43.988281 59.542969 46.671875 58.640625 49.058594 C 57.734375 51.480469 55.71875 53.265625 53.109375 53.949219 C 53.015625 53.96875 52.933594 54 52.84375 54.023438 Z M 50.339844 52.859375 L 52.476562 52.875 C 52.582031 52.84375 52.6875 52.808594 52.792969 52.785156 C 55.011719 52.199219 56.730469 50.691406 57.503906 48.636719 C 58.261719 46.613281 57.996094 44.347656 56.789062 42.570312 C 54.789062 39.613281 50.585938 38.804688 47.609375 40.800781 C 45.953125 41.910156 44.910156 43.71875 44.738281 45.757812 C 44.566406 47.789062 45.300781 49.738281 46.746094 51.105469 C 47.753906 52.058594 48.960938 52.640625 50.339844 52.859375 Z M 50.339844 52.859375 "/>
<path style=" stroke:none;fill-rule:nonzero;fill:rgb(92.941176%,67.058824%,8.627451%);fill-opacity:1;" d="M 50.339844 52.859375 L 52.476562 52.875 C 52.582031 52.84375 52.6875 52.808594 52.792969 52.785156 C 55.011719 52.199219 56.730469 50.691406 57.503906 48.636719 C 58.261719 46.613281 57.996094 44.347656 56.789062 42.570312 C 54.789062 39.613281 50.585938 38.804688 47.609375 40.800781 C 45.953125 41.910156 44.910156 43.71875 44.738281 45.757812 C 44.566406 47.789062 45.300781 49.738281 46.746094 51.105469 C 47.753906 52.058594 48.960938 52.640625 50.339844 52.859375 Z M 50.339844 52.859375 "/>
<path style=" stroke:none;fill-rule:nonzero;fill:rgb(100%,100%,100%);fill-opacity:1;" d="M 50.640625 47.640625 C 49.964844 47.09375 49.378906 46.605469 48.78125 46.132812 C 48.179688 45.667969 47.625 45.675781 47.234375 46.140625 C 46.835938 46.613281 46.925781 47.226562 47.496094 47.714844 C 48.300781 48.40625 49.109375 49.078125 49.925781 49.746094 C 50.585938 50.289062 51.058594 50.234375 51.644531 49.589844 C 53.039062 48.058594 54.425781 46.523438 55.828125 45 C 56.339844 44.4375 56.390625 43.859375 55.941406 43.417969 C 55.484375 42.96875 54.898438 43.011719 54.359375 43.566406 C 53.941406 43.996094 53.550781 44.453125 53.144531 44.894531 C 52.328125 45.796875 51.511719 46.695312 50.640625 47.640625 Z M 50.640625 47.640625 "/>
</g>
</svg>
