<?xml version="1.0" encoding="UTF-8"?>
<svg xmlns="http://www.w3.org/2000/svg" xmlns:xlink="http://www.w3.org/1999/xlink" width="75pt" height="75pt" viewBox="0 0 75 75" version="1.1">
<defs>
<filter id="alpha" filterUnits="objectBoundingBox" x="0%" y="0%" width="100%" height="100%">
  <feColorMatrix type="matrix" in="SourceGraphic" values="0 0 0 0 1 0 0 0 0 1 0 0 0 0 1 0 0 0 1 0"/>
</filter>
<mask id="mask0">
  <g filter="url(#alpha)">
<rect x="0" y="0" width="75" height="75" style="fill:rgb(0%,0%,0%);fill-opacity:0.301961;stroke:none;"/>
  </g>
</mask>
<clipPath id="clip1">
  <rect x="0" y="0" width="75" height="75"/>
</clipPath>
<g id="surface8" clip-path="url(#clip1)">
<path style=" stroke:none;fill-rule:nonzero;fill:rgb(11.764706%,11.764706%,10.980392%);fill-opacity:1;" d="M 51.898438 21.988281 L 50.339844 23.503906 C 51.210938 24.140625 51.839844 25.109375 51.996094 26.390625 C 53.574219 26.789062 55.042969 27.886719 55.734375 29.664062 C 56.355469 31.261719 56.917969 32.804688 57.261719 34.484375 C 57.683594 36.570312 56.871094 38.234375 55.566406 39.285156 C 56.675781 40.515625 57.15625 42.441406 56.664062 43.941406 C 56.128906 45.5625 55.460938 46.53125 54.53125 47.257812 C 54.609375 47.976562 54.765625 49.058594 54.773438 49.378906 C 54.796875 52.125 52.222656 54.171875 49.710938 54.203125 C 49.164062 54.75 48.390625 55.207031 47.683594 55.484375 C 45.890625 56.203125 43.777344 55.851562 42.179688 54.824219 C 38.234375 52.289062 39.539062 47.578125 39.988281 43.671875 C 39.996094 43.574219 40.035156 43.492188 40.050781 43.402344 C 39.796875 43.101562 39.585938 42.765625 39.40625 42.398438 L 40.628906 43.988281 C 40.304688 38.84375 40.84375 33.699219 39.789062 28.53125 C 39.414062 26.699219 39.996094 25.191406 41.023438 24.140625 L 35.414062 18.398438 L 34.265625 19.523438 C 35.121094 20.160156 35.796875 21.210938 36.050781 22.183594 C 36.253906 22.964844 36.246094 23.949219 36.007812 24.816406 C 35.992188 25.148438 35.953125 25.476562 35.886719 25.800781 C 35.332031 28.425781 35.234375 30.96875 35.976562 33.554688 C 36.40625 35.054688 36.148438 36.328125 35.496094 37.3125 L 35.761719 37.648438 C 35.828125 38.011719 35.863281 38.386719 35.851562 38.796875 C 35.773438 40.640625 35.421875 42.457031 35.308594 44.300781 C 35.226562 45.691406 35.25 47.078125 35.183594 48.457031 C 36.621094 51.359375 35.199219 55.761719 30.96875 55.71875 C 29.203125 55.695312 27.953125 54.914062 27.195312 53.804688 C 27 53.664062 26.820312 53.511719 26.648438 53.347656 C 26.4375 53.378906 26.21875 53.40625 26.011719 53.40625 L 25.890625 53.40625 C 24.570312 53.390625 23.40625 52.828125 22.460938 51.945312 C 22.214844 51.710938 22.011719 51.449219 21.832031 51.164062 L 20.609375 52.351562 L 39.164062 71.339844 C 55.679688 70.546875 69.148438 57.914062 71.152344 41.664062 Z M 51.898438 21.988281 "/>
</g>
</defs>
<g id="surface1">
<path style=" stroke:none;fill-rule:nonzero;fill:rgb(94.509804%,67.843137%,3.137255%);fill-opacity:1;" d="M 71.40625 37.5 C 71.40625 56.226562 56.226562 71.40625 37.5 71.40625 C 18.773438 71.40625 3.59375 56.226562 3.59375 37.5 C 3.59375 18.773438 18.773438 3.59375 37.5 3.59375 C 56.226562 3.59375 71.40625 18.773438 71.40625 37.5 Z M 71.40625 37.5 "/>
<path style=" stroke:none;fill-rule:nonzero;fill:rgb(100%,100%,100%);fill-opacity:1;" d="M 37.890625 3.59375 C 56.617188 3.808594 71.625 19.164062 71.40625 37.890625 C 71.191406 56.617188 55.835938 71.625 37.109375 71.40625 C 18.382812 71.191406 3.375 55.835938 3.59375 37.109375 C 3.808594 18.382812 19.164062 3.375 37.890625 3.59375 M 37.933594 0 C 27.921875 -0.113281 18.457031 3.675781 11.296875 10.679688 C 4.125 17.675781 0.121094 27.050781 0 37.066406 C -0.121094 47.078125 3.675781 56.542969 10.679688 63.703125 C 17.675781 70.867188 27.050781 74.878906 37.066406 74.992188 C 47.078125 75.105469 56.542969 71.316406 63.703125 64.3125 C 70.867188 57.316406 74.878906 47.941406 74.992188 37.925781 C 75.105469 27.914062 71.316406 18.449219 64.3125 11.289062 C 57.324219 4.125 47.949219 0.121094 37.933594 0 Z M 37.933594 0 "/>
<use xlink:href="#surface8" mask="url(#mask0)"/>
<path style="fill-rule:nonzero;fill:rgb(100%,100%,100%);fill-opacity:1;stroke-width:1.1963;stroke-linecap:round;stroke-linejoin:round;stroke:rgb(100%,100%,100%);stroke-opacity:1;stroke-miterlimit:10;" d="M 64.552083 28.411458 C 68.208333 28.28125 70.890625 30.619792 70.6875 34.859375 C 73.1875 35.552083 74.9375 37.078125 75.140625 39.802083 C 75.21875 40.96875 75.5625 41.817708 76.28125 42.729167 C 78.182292 45.119792 78.182292 48.552083 76.458333 51.088542 C 76.208333 51.447917 75.9375 51.802083 75.630208 52.197917 C 77.380208 54.552083 78.161458 57.1875 77.171875 59.96875 C 76.640625 61.458333 75.46875 62.708333 74.640625 64.098958 C 74.359375 64.567708 74.020833 65.161458 74.0625 65.661458 C 74.421875 69.682292 71.411458 73.020833 67.359375 72.932292 C 66.619792 72.911458 66.088542 72.958333 65.5625 73.661458 C 63.630208 76.197917 60.401042 77.098958 57.432292 76.078125 C 54.5 75.067708 52.510417 72.359375 52.510417 69.151042 C 52.510417 64.609375 52.598958 60.0625 52.651042 55.520833 C 52.75 46.921875 52.828125 38.328125 52.958333 29.729167 C 53.020833 25.578125 56.520833 22.880208 60.359375 23.932292 C 62.197917 24.4375 63.229167 25.541667 64.552083 28.411458 Z M 74.010417 53.25 C 73.75 53.348958 73.458333 53.458333 73.182292 53.5625 C 70.390625 54.578125 67.828125 54.182292 65.578125 52.21875 C 64.03125 50.869792 63.21875 49.098958 63.21875 47.041667 C 63.21875 46.661458 63.75 46.28125 64.03125 45.901042 C 64.338542 46.208333 64.671875 46.5 64.932292 46.848958 C 65.041667 47.010417 64.989583 47.28125 65.020833 47.5 C 65.328125 50 67.161458 51.880208 69.697917 52.302083 C 71.932292 52.671875 74.390625 51.338542 75.421875 49.197917 C 76.46875 47.020833 75.989583 44.598958 74.078125 42.901042 C 73.447917 42.338542 73.1875 41.869792 73.359375 40.96875 C 73.78125 38.697917 72.270833 36.791667 69.947917 36.651042 C 68.739583 36.578125 68.510417 36.052083 68.739583 35.010417 C 69.25 32.609375 68.119792 30.708333 65.911458 30.25 C 63.96875 29.838542 62.208333 31.270833 61.671875 33.5625 C 61.567708 33.979167 61.010417 34.302083 60.661458 34.671875 C 60.411458 34.21875 59.932292 33.760417 59.958333 33.328125 C 60.0625 31.848958 60.708333 30.552083 61.9375 29.697917 C 62.770833 29.119792 62.791667 28.53125 62.348958 27.791667 C 62.098958 27.369792 61.838542 26.9375 61.5 26.609375 C 60.291667 25.447917 58.838542 25.161458 57.302083 25.791667 C 55.661458 26.458333 54.802083 27.739583 54.78125 29.53125 C 54.708333 34.96875 54.651042 40.401042 54.588542 45.838542 C 54.5 53.588542 54.390625 61.348958 54.328125 69.098958 C 54.3125 71.71875 55.880208 73.770833 58.302083 74.489583 C 60.588542 75.171875 63.140625 74.359375 64.380208 72.302083 C 65.0625 71.182292 65.682292 70.838542 67.010417 71.0625 C 69.598958 71.5 71.947917 69.630208 72.302083 67.130208 C 72.661458 64.541667 70.911458 62.171875 68.291667 61.6875 C 67.9375 61.630208 67.541667 61.640625 67.25 61.46875 C 66.989583 61.317708 66.682292 60.921875 66.71875 60.6875 C 66.78125 60.380208 67.119792 59.958333 67.401042 59.901042 C 67.848958 59.791667 68.369792 59.901042 68.848958 59.989583 C 70.682292 60.348958 72.041667 61.458333 73.130208 62.911458 C 76.3125 60.640625 76.708333 56.140625 74.010417 53.25 Z M 74.010417 53.25 " transform="matrix(0.75,0,0,0.75,0,0)"/>
<path style="fill-rule:nonzero;fill:rgb(100%,100%,100%);fill-opacity:1;stroke-width:1.1963;stroke-linecap:round;stroke-linejoin:round;stroke:rgb(100%,100%,100%);stroke-opacity:1;stroke-miterlimit:10;" d="M 25.640625 51.567708 C 22.869792 47.932292 22.989583 44.651042 25.9375 41.260417 C 26.130208 41.041667 26.348958 40.739583 26.338542 40.479167 C 26.197917 37.171875 27.911458 35.260417 30.9375 34.380208 C 30.880208 30.552083 33.197917 27.911458 37.338542 28.078125 C 38.130208 25.588542 39.708333 23.901042 42.458333 23.5625 C 45.479167 23.1875 48.369792 25.421875 48.739583 28.432292 C 48.802083 28.911458 48.817708 29.411458 48.8125 29.901042 C 48.671875 42.817708 48.53125 55.739583 48.359375 68.661458 C 48.291667 74.067708 43.447917 77.651042 38.609375 75.78125 C 37.3125 75.28125 36.28125 74.088542 35.109375 73.239583 C 34.729167 72.958333 34.28125 72.588542 33.859375 72.578125 C 29.208333 72.489583 26.5 69.432292 26.96875 64.739583 C 27 64.447917 26.880208 64.052083 26.6875 63.838542 C 22.880208 59.75 22.5625 56.28125 25.640625 51.567708 Z M 27.828125 62.380208 C 29.848958 60.270833 31.567708 59.317708 33.348958 59.479167 C 33.739583 59.510417 34.098958 60 34.46875 60.270833 C 34.161458 60.567708 33.890625 60.96875 33.520833 61.130208 C 33 61.348958 32.380208 61.317708 31.838542 61.510417 C 29.489583 62.338542 28.197917 64.770833 28.770833 67.1875 C 29.317708 69.552083 31.598958 71.088542 34.161458 70.671875 C 35.229167 70.489583 35.760417 70.729167 36.270833 71.682292 C 36.682292 72.432292 37.348958 73.119792 38.067708 73.598958 C 39.838542 74.78125 41.75 74.869792 43.640625 73.848958 C 45.609375 72.78125 46.588542 71.067708 46.609375 68.828125 C 46.760417 55.770833 46.911458 42.71875 47.0625 29.661458 C 47.0625 29.4375 47.067708 29.208333 47.052083 28.989583 C 46.890625 27.208333 45.510417 25.671875 43.8125 25.369792 C 41.979167 25.041667 40.171875 25.979167 39.411458 27.661458 C 39.119792 28.3125 39.182292 28.729167 39.729167 29.369792 C 40.588542 30.359375 41.161458 31.640625 41.6875 32.869792 C 41.932292 33.432292 41.96875 34.3125 41 34.432292 C 40.109375 34.541667 40.130208 33.817708 40.020833 33.171875 C 39.552083 30.380208 36.78125 29 34.520833 30.432292 C 32.96875 31.411458 32.552083 32.890625 32.921875 34.619792 C 33.130208 35.588542 32.947917 36.130208 31.802083 36.197917 C 29.260417 36.359375 27.9375 38.078125 28.161458 40.619792 C 28.197917 41.130208 27.9375 41.838542 27.5625 42.1875 C 25.5 44.119792 24.901042 46.359375 25.958333 48.671875 C 26.947917 50.828125 29.380208 52.197917 31.619792 51.859375 C 34.239583 51.458333 36.052083 49.541667 36.46875 46.880208 C 36.541667 46.411458 37.098958 46.020833 37.432292 45.588542 C 37.682292 46.078125 38.161458 46.578125 38.130208 47.052083 C 37.838542 50.9375 34.5 53.859375 30.609375 53.598958 C 29.4375 53.520833 28.302083 53.109375 27.088542 52.828125 C 24.520833 55.598958 24.770833 59.791667 27.828125 62.380208 Z M 27.828125 62.380208 " transform="matrix(0.75,0,0,0.75,0,0)"/>
</g>
</svg>
