<?xml version="1.0" encoding="UTF-8"?>
<svg xmlns="http://www.w3.org/2000/svg" xmlns:xlink="http://www.w3.org/1999/xlink" width="75pt" height="75pt" viewBox="0 0 75 75" version="1.1">
<defs>
<filter id="alpha" filterUnits="objectBoundingBox" x="0%" y="0%" width="100%" height="100%">
  <feColorMatrix type="matrix" in="SourceGraphic" values="0 0 0 0 1 0 0 0 0 1 0 0 0 0 1 0 0 0 1 0"/>
</filter>
<mask id="mask0">
  <g filter="url(#alpha)">
<rect x="0" y="0" width="75" height="75" style="fill:rgb(0%,0%,0%);fill-opacity:0.301961;stroke:none;"/>
  </g>
</mask>
<clipPath id="clip1">
  <rect x="0" y="0" width="75" height="75"/>
</clipPath>
<g id="surface5" clip-path="url(#clip1)">
<path style=" stroke:none;fill-rule:nonzero;fill:rgb(11.764706%,11.764706%,10.980392%);fill-opacity:1;" d="M 47.390625 28.460938 C 48.472656 30.335938 49.679688 32.09375 51.136719 33.824219 C 52.15625 35.046875 53.21875 36.292969 54.015625 37.671875 C 54.023438 37.679688 54.03125 37.703125 54.03125 37.710938 C 55.65625 38.476562 56.566406 39.488281 57.179688 40.6875 C 57.988281 41.265625 58.613281 42.171875 58.875 43.453125 C 59.183594 44.949219 59.308594 46.394531 59.300781 47.917969 C 59.296875 49.132812 58.964844 50.101562 58.417969 50.828125 C 58.199219 51.621094 57.796875 52.359375 57.148438 52.867188 C 54.238281 55.191406 51.121094 56.453125 47.398438 56.738281 C 46.988281 56.765625 46.589844 56.730469 46.214844 56.632812 C 45.984375 56.738281 45.742188 56.835938 45.496094 56.917969 C 43.816406 57.464844 41.984375 57.457031 40.230469 57.390625 C 38.859375 57.335938 36.710938 56.59375 35.386719 57.03125 C 34.15625 57.425781 32.960938 57.234375 31.957031 56.664062 L 31.898438 57.71875 L 44.476562 70.679688 C 55.484375 68.378906 64.550781 60.726562 68.804688 50.535156 Z M 47.390625 28.460938 "/>
</g>
</defs>
<g id="surface1">
<path style=" stroke:none;fill-rule:nonzero;fill:rgb(94.509804%,67.843137%,3.137255%);fill-opacity:1;" d="M 71.40625 37.5 C 71.40625 56.226562 56.226562 71.40625 37.5 71.40625 C 18.773438 71.40625 3.59375 56.226562 3.59375 37.5 C 3.59375 18.773438 18.773438 3.59375 37.5 3.59375 C 56.226562 3.59375 71.40625 18.773438 71.40625 37.5 Z M 71.40625 37.5 "/>
<path style=" stroke:none;fill-rule:nonzero;fill:rgb(100%,100%,100%);fill-opacity:1;" d="M 37.890625 3.59375 C 37.933594 3.59375 37.980469 3.59375 38.023438 3.59375 C 56.753906 3.878906 71.699219 19.296875 71.40625 38.015625 C 71.121094 56.699219 55.777344 71.625 37.109375 71.40625 C 37.066406 71.40625 37.019531 71.40625 36.976562 71.40625 C 18.253906 71.121094 3.308594 55.703125 3.59375 36.976562 C 3.878906 18.300781 19.222656 3.375 37.890625 3.59375 M 37.925781 0 C 27.945312 -0.113281 18.503906 3.660156 11.339844 10.628906 C 4.183594 17.59375 0.15625 26.933594 0.0078125 36.921875 C -0.148438 46.933594 3.609375 56.414062 10.582031 63.609375 C 17.558594 70.800781 26.910156 74.84375 36.929688 75 L 37.078125 75 C 47.0625 75.113281 56.503906 71.339844 63.667969 64.371094 C 70.828125 57.40625 74.859375 48.066406 75.007812 38.078125 C 75.164062 28.066406 71.40625 18.585938 64.433594 11.390625 C 57.457031 4.199219 48.089844 0.15625 38.078125 0.0078125 Z M 37.925781 0 "/>
<use xlink:href="#surface5" mask="url(#mask0)"/>
<path style=" stroke:none;fill-rule:nonzero;fill:rgb(100%,100%,100%);fill-opacity:1;" d="M 58.074219 39.441406 L 34.402344 15.03125 C 34.378906 15 34.351562 14.976562 34.320312 14.953125 C 32.09375 13.28125 26.960938 11.003906 23.488281 14.363281 C 19.371094 18.351562 19.679688 22.914062 20.714844 23.984375 L 30.59375 34.175781 L 10.761719 33.871094 C 10.46875 33.863281 10.207031 34.035156 10.09375 34.304688 C 9.984375 34.566406 10.035156 34.882812 10.238281 35.085938 L 31.746094 57.261719 C 31.882812 57.398438 32.0625 57.480469 32.25 57.480469 L 46.15625 57.699219 C 49.613281 57.75 53.0625 56.835938 55.605469 55.175781 C 58.621094 53.21875 60.238281 50.40625 60.292969 47.054688 C 60.292969 47.054688 60.523438 44.859375 60.023438 43.265625 C 59.40625 41.308594 58.074219 39.441406 58.074219 39.441406 Z M 53.257812 36.53125 C 52.566406 36.351562 51.839844 36.246094 51.082031 36.226562 C 51.066406 36.203125 51.050781 36.179688 51.03125 36.164062 L 29.910156 14.371094 C 31.710938 14.886719 33.15625 15.886719 33.421875 16.074219 Z M 42.953125 40.640625 L 22.011719 19.050781 C 22.191406 18.578125 22.425781 18.082031 22.734375 17.578125 L 43.71875 39.226562 C 43.410156 39.660156 43.15625 40.140625 42.953125 40.640625 Z M 44.65625 38.128906 L 23.574219 16.386719 C 23.84375 16.058594 24.148438 15.726562 24.488281 15.390625 C 24.53125 15.34375 24.585938 15.308594 24.628906 15.261719 L 45.898438 37.191406 C 45.449219 37.453125 45.039062 37.769531 44.65625 38.128906 Z M 47.234375 36.570312 C 47.203125 36.503906 47.160156 36.433594 47.109375 36.382812 L 25.851562 14.46875 C 26.429688 14.210938 27.03125 14.09375 27.628906 14.070312 C 27.652344 14.101562 27.675781 14.128906 27.699219 14.160156 L 49.085938 36.21875 C 48.449219 36.246094 47.828125 36.367188 47.234375 36.570312 Z M 21.578125 20.664062 L 42.496094 42.234375 C 42.503906 42.238281 42.511719 42.246094 42.515625 42.253906 C 42.480469 42.539062 42.449219 42.832031 42.449219 43.132812 C 42.441406 43.582031 42.480469 44.023438 42.554688 44.453125 L 21.75 22.996094 C 21.585938 22.777344 21.390625 21.890625 21.578125 20.664062 Z M 54.832031 53.976562 C 52.515625 55.476562 49.363281 56.316406 46.183594 56.265625 L 32.574219 56.054688 L 12.472656 35.324219 L 31.636719 35.617188 C 31.738281 35.617188 31.84375 35.59375 31.933594 35.550781 L 44.101562 48.097656 C 45.285156 49.441406 47.65625 50.484375 49.515625 50.390625 C 52.335938 50.257812 54.667969 48.179688 54.710938 45.351562 L 54.710938 45.226562 C 54.75 42.71875 52.738281 40.640625 50.234375 40.605469 L 49.828125 40.597656 C 47.886719 40.566406 46.28125 42.121094 46.253906 44.0625 C 46.222656 46.003906 47.773438 47.609375 49.71875 47.640625 L 50.257812 47.648438 C 50.65625 47.65625 50.976562 47.339844 50.984375 46.941406 C 50.992188 46.546875 50.675781 46.222656 50.28125 46.214844 L 49.738281 46.207031 C 48.585938 46.191406 47.664062 45.238281 47.683594 44.085938 C 47.699219 42.929688 48.652344 42.007812 49.808594 42.03125 L 50.210938 42.039062 C 51.929688 42.066406 53.308594 43.484375 53.28125 45.203125 L 53.28125 45.328125 C 53.25 47.363281 51.570312 48.988281 49.53125 48.953125 C 46.371094 48.90625 43.835938 46.296875 43.890625 43.132812 C 43.933594 40.042969 46.492188 37.558594 49.589844 37.605469 L 50.953125 37.628906 C 53.332031 37.664062 55.351562 38.625 56.789062 40.402344 C 58.171875 42.105469 58.90625 44.453125 58.867188 47.003906 C 58.816406 50.640625 56.640625 52.800781 54.832031 53.976562 Z M 54.832031 53.976562 "/>
</g>
</svg>
