<?xml version="1.0" encoding="UTF-8"?>
<svg xmlns="http://www.w3.org/2000/svg" xmlns:xlink="http://www.w3.org/1999/xlink" width="75pt" height="75pt" viewBox="0 0 75 75" version="1.1">
<defs>
<filter id="alpha" filterUnits="objectBoundingBox" x="0%" y="0%" width="100%" height="100%">
  <feColorMatrix type="matrix" in="SourceGraphic" values="0 0 0 0 1 0 0 0 0 1 0 0 0 0 1 0 0 0 1 0"/>
</filter>
<mask id="mask0">
  <g filter="url(#alpha)">
<rect x="0" y="0" width="75" height="75" style="fill:rgb(0%,0%,0%);fill-opacity:0.301961;stroke:none;"/>
  </g>
</mask>
<clipPath id="clip1">
  <rect x="0" y="0" width="75" height="75"/>
</clipPath>
<g id="surface5" clip-path="url(#clip1)">
<path style=" stroke:none;fill-rule:nonzero;fill:rgb(11.764706%,11.764706%,10.980392%);fill-opacity:1;" d="M 69.921875 28.328125 L 61.890625 20.300781 L 60.464844 21.234375 L 60.464844 23.0625 L 59.054688 23.0625 L 59.054688 24.03125 L 56.8125 24.03125 L 56.8125 23.0625 L 54.171875 23.0625 L 54.171875 24.246094 L 52.453125 24.246094 L 52.453125 29.265625 L 53.46875 29.265625 L 53.46875 29.835938 L 54.261719 29.835938 L 54.261719 31.417969 L 53.820312 31.417969 L 53.820312 32.339844 L 53.023438 32.339844 L 53.023438 33.488281 L 51.089844 33.488281 L 51.089844 32.339844 L 48.976562 32.339844 L 48.976562 29.925781 L 50.03125 29.925781 L 50.03125 25.65625 L 49.15625 25.65625 L 49.15625 24.644531 L 46.867188 24.644531 L 46.867188 24.816406 L 44.925781 24.816406 L 44.925781 27.285156 L 42.148438 27.285156 L 42.148438 26.445312 L 40.035156 26.445312 L 40.035156 24.683594 L 38.632812 25.816406 L 66.871094 54.050781 C 69.613281 49.15625 71.191406 43.515625 71.191406 37.5 C 71.183594 34.320312 70.738281 31.246094 69.921875 28.328125 Z M 69.921875 28.328125 "/>
</g>
<mask id="mask1">
  <g filter="url(#alpha)">
<rect x="0" y="0" width="75" height="75" style="fill:rgb(0%,0%,0%);fill-opacity:0.301961;stroke:none;"/>
  </g>
</mask>
<clipPath id="clip2">
  <rect x="0" y="0" width="75" height="75"/>
</clipPath>
<g id="surface8" clip-path="url(#clip2)">
<path style=" stroke:none;fill-rule:nonzero;fill:rgb(11.764706%,11.764706%,10.980392%);fill-opacity:1;" d="M 52.972656 14.25 L 50.078125 16.589844 L 50.078125 17.25 L 49.941406 17.25 L 49.941406 18.523438 L 50.121094 18.523438 L 50.121094 20.332031 L 51.75 20.332031 L 51.75 21.5625 L 52.453125 21.5625 L 52.453125 21.699219 L 52.890625 21.699219 L 52.890625 20.859375 L 55.664062 20.859375 L 55.664062 20.683594 L 56.324219 20.683594 L 56.324219 19.09375 L 57.03125 19.09375 L 57.03125 18.96875 L 57.691406 18.96875 Z M 52.972656 14.25 "/>
</g>
<mask id="mask2">
  <g filter="url(#alpha)">
<rect x="0" y="0" width="75" height="75" style="fill:rgb(0%,0%,0%);fill-opacity:0.301961;stroke:none;"/>
  </g>
</mask>
<clipPath id="clip3">
  <rect x="0" y="0" width="75" height="75"/>
</clipPath>
<g id="surface11" clip-path="url(#clip3)">
<path style=" stroke:none;fill-rule:nonzero;fill:rgb(11.764706%,11.764706%,10.980392%);fill-opacity:1;" d="M 50.730469 40.972656 L 50.640625 40.996094 L 35.109375 25.46875 L 34.5 26.390625 L 29.113281 21.007812 L 28.296875 22.246094 C 29.101562 23.128906 29.496094 24.335938 29.496094 25.546875 C 32.625 24.710938 35.859375 28.019531 35.113281 31.425781 L 39.179688 31.425781 L 39.179688 36.710938 L 34.566406 36.710938 C 34.597656 36.996094 34.621094 37.273438 34.636719 37.523438 C 35.566406 38.8125 35.773438 40.589844 35.28125 42.113281 L 39.058594 42.113281 L 39.058594 37.175781 L 45.113281 37.175781 L 45.113281 42.113281 L 50.109375 42.113281 L 50.109375 46.101562 L 46.410156 46.101562 L 46.410156 47.101562 L 45.300781 47.101562 L 45.300781 51.855469 L 45.773438 51.855469 L 45.773438 52.265625 L 50.0625 52.265625 L 50.0625 57.203125 L 45.367188 57.203125 L 45.367188 53.03125 L 44.078125 53.03125 L 44.078125 52.621094 L 40.085938 52.621094 L 40.085938 53.203125 L 39.503906 53.203125 L 39.503906 57.546875 L 19.117188 57.546875 L 17.960938 57.871094 L 30.871094 70.800781 C 31.898438 70.996094 32.949219 71.144531 34.003906 71.25 C 34.109375 71.257812 34.207031 71.265625 34.3125 71.273438 C 34.738281 71.308594 35.175781 71.347656 35.609375 71.371094 C 36.15625 71.398438 36.710938 71.414062 37.273438 71.414062 C 37.824219 71.414062 38.371094 71.398438 38.910156 71.378906 C 39.277344 71.363281 39.644531 71.332031 40.011719 71.300781 C 40.164062 71.289062 40.320312 71.28125 40.46875 71.265625 C 40.941406 71.21875 41.40625 71.167969 41.871094 71.101562 C 41.910156 71.09375 41.949219 71.09375 41.984375 71.085938 C 42.480469 71.015625 42.96875 70.933594 43.453125 70.84375 C 49.394531 69.75 54.789062 67.117188 59.210938 63.359375 L 59.234375 63.328125 C 61.734375 61.199219 63.929688 58.726562 65.722656 55.964844 Z M 50.730469 40.972656 "/>
</g>
</defs>
<g id="surface1">
<path style=" stroke:none;fill-rule:nonzero;fill:rgb(92.156863%,40.784314%,3.137255%);fill-opacity:1;" d="M 71.40625 37.5 C 71.40625 56.226562 56.226562 71.40625 37.5 71.40625 C 18.773438 71.40625 3.59375 56.226562 3.59375 37.5 C 3.59375 18.773438 18.773438 3.59375 37.5 3.59375 C 56.226562 3.59375 71.40625 18.773438 71.40625 37.5 Z M 71.40625 37.5 "/>
<path style=" stroke:none;fill-rule:nonzero;fill:rgb(100%,100%,100%);fill-opacity:1;" d="M 37.5 3.59375 C 56.226562 3.59375 71.40625 18.773438 71.40625 37.5 C 71.40625 56.226562 56.226562 71.40625 37.5 71.40625 C 18.773438 71.40625 3.59375 56.226562 3.59375 37.5 C 3.59375 18.773438 18.773438 3.59375 37.5 3.59375 M 37.5 0 C 27.480469 0 18.066406 3.898438 10.980469 10.980469 C 3.890625 18.058594 0 27.480469 0 37.5 C 0 47.519531 3.898438 56.933594 10.980469 64.019531 C 18.058594 71.109375 27.480469 75 37.5 75 C 47.519531 75 56.933594 71.101562 64.019531 64.019531 C 71.109375 56.941406 75 47.519531 75 37.5 C 75 27.480469 71.101562 18.066406 64.019531 10.980469 C 56.941406 3.890625 47.519531 0 37.5 0 Z M 37.5 0 "/>
<use xlink:href="#surface5" mask="url(#mask0)"/>
<use xlink:href="#surface8" mask="url(#mask1)"/>
<use xlink:href="#surface11" mask="url(#mask2)"/>
<path style=" stroke:none;fill-rule:nonzero;fill:rgb(100%,100%,100%);fill-opacity:1;" d="M 57.863281 17.535156 C 57.808594 17.460938 57.742188 17.398438 57.667969 17.347656 L 57.609375 17.308594 C 57.210938 17.054688 56.707031 17.023438 56.296875 17.25 C 55.875 17.476562 55.605469 17.910156 55.597656 18.398438 C 55.589844 18.816406 55.460938 19.222656 55.238281 19.574219 C 54.78125 20.265625 53.984375 20.648438 53.160156 20.574219 C 52.265625 20.484375 51.523438 19.875 51.136719 18.90625 C 51.113281 18.855469 51.105469 18.800781 51.105469 18.75 C 51.082031 17.609375 51.578125 16.734375 52.46875 16.328125 C 52.914062 16.132812 53.203125 15.710938 53.242188 15.238281 C 53.28125 14.773438 53.054688 14.324219 52.664062 14.070312 L 48.796875 11.527344 C 48.578125 11.386719 48.328125 11.308594 48.066406 11.316406 C 48 11.316406 47.933594 11.324219 47.863281 11.347656 C 47.558594 11.429688 47.296875 11.617188 47.121094 11.871094 L 44.851562 15.246094 C 44.585938 14.886719 44.265625 14.585938 43.882812 14.339844 C 42.15625 13.207031 39.800781 13.664062 38.609375 15.390625 C 37.484375 17.160156 37.957031 19.460938 39.699219 20.632812 C 40.074219 20.878906 40.476562 21.058594 40.90625 21.171875 L 38.675781 24.570312 C 38.625 24.652344 38.59375 24.726562 38.574219 24.773438 C 38.476562 24.996094 38.4375 25.238281 38.476562 25.46875 C 38.484375 25.539062 38.503906 25.597656 38.527344 25.664062 C 38.625 25.90625 38.789062 26.109375 39.007812 26.25 L 42.847656 28.835938 C 43.238281 29.101562 43.738281 29.128906 44.152344 28.921875 C 44.574219 28.695312 44.851562 28.261719 44.859375 27.78125 C 44.878906 26.804688 45.503906 26.003906 46.558594 25.589844 C 46.613281 25.566406 46.664062 25.558594 46.71875 25.558594 C 47.765625 25.550781 48.613281 25.996094 49.042969 26.789062 C 49.433594 27.515625 49.394531 28.402344 48.929688 29.09375 C 48.699219 29.4375 48.367188 29.714844 47.984375 29.878906 C 47.542969 30.074219 47.242188 30.488281 47.199219 30.96875 C 47.152344 31.433594 47.371094 31.890625 47.761719 32.152344 L 47.820312 32.191406 C 47.894531 32.242188 47.976562 32.28125 48.066406 32.300781 L 51.726562 34.703125 C 51.984375 34.867188 52.289062 34.941406 52.597656 34.90625 C 52.628906 34.898438 52.664062 34.898438 52.695312 34.890625 C 52.734375 34.882812 52.769531 34.867188 52.800781 34.851562 C 52.933594 34.800781 53.054688 34.726562 53.175781 34.621094 C 53.226562 34.566406 53.308594 34.492188 53.390625 34.378906 L 55.851562 30.71875 C 55.882812 30.675781 55.90625 30.628906 55.925781 30.578125 C 56.085938 30.203125 56.046875 29.765625 55.84375 29.421875 C 55.640625 29.078125 55.296875 28.851562 54.898438 28.800781 C 54.554688 28.753906 54.234375 28.636719 53.941406 28.441406 C 53.429688 28.09375 53.09375 27.578125 52.988281 26.976562 C 52.882812 26.371094 53.023438 25.769531 53.390625 25.273438 C 53.40625 25.253906 53.421875 25.230469 53.4375 25.207031 C 53.753906 24.675781 54.261719 24.324219 54.847656 24.171875 C 55.449219 24.039062 56.054688 24.140625 56.566406 24.480469 C 56.859375 24.675781 57.097656 24.921875 57.269531 25.230469 C 57.464844 25.574219 57.808594 25.808594 58.207031 25.859375 C 58.613281 25.914062 59.015625 25.769531 59.308594 25.484375 C 59.347656 25.449219 59.386719 25.402344 59.414062 25.359375 L 61.835938 21.667969 C 61.980469 21.449219 62.054688 21.203125 62.046875 20.949219 C 62.046875 20.871094 62.039062 20.804688 62.015625 20.730469 C 61.933594 20.429688 61.746094 20.175781 61.492188 20.011719 Z M 58.386719 23.960938 C 58.132812 23.625 57.816406 23.339844 57.457031 23.109375 C 56.574219 22.53125 55.523438 22.34375 54.496094 22.574219 C 53.476562 22.816406 52.628906 23.429688 52.078125 24.324219 C 51.464844 25.171875 51.226562 26.199219 51.40625 27.226562 C 51.585938 28.265625 52.164062 29.160156 53.039062 29.753906 C 53.390625 29.992188 53.78125 30.164062 54.195312 30.277344 L 52.273438 33.128906 L 49.132812 31.066406 C 49.574219 30.78125 49.957031 30.414062 50.257812 29.96875 C 51.050781 28.785156 51.128906 27.269531 50.453125 26.011719 C 49.746094 24.699219 48.34375 23.917969 46.695312 23.941406 C 46.449219 23.941406 46.199219 23.992188 45.960938 24.082031 C 44.484375 24.667969 43.515625 25.808594 43.289062 27.195312 L 40.230469 25.132812 L 42.449219 21.75 C 42.539062 21.609375 42.609375 21.449219 42.636719 21.277344 C 42.734375 20.925781 42.683594 20.550781 42.488281 20.234375 C 42.285156 19.90625 41.949219 19.695312 41.566406 19.648438 C 41.21875 19.605469 40.890625 19.484375 40.605469 19.289062 C 39.59375 18.609375 39.316406 17.273438 39.960938 16.265625 C 40.640625 15.285156 42.007812 15.015625 43.003906 15.675781 C 43.296875 15.871094 43.539062 16.117188 43.710938 16.417969 C 43.90625 16.753906 44.226562 16.980469 44.609375 17.039062 C 44.976562 17.101562 45.335938 17.003906 45.628906 16.777344 C 45.773438 16.679688 45.890625 16.558594 45.988281 16.425781 L 48.246094 13.074219 L 51.328125 15.097656 C 50.136719 15.839844 49.460938 17.175781 49.492188 18.765625 C 49.5 19.011719 49.550781 19.261719 49.640625 19.492188 C 50.265625 21.015625 51.523438 22.003906 53.011719 22.148438 C 54.433594 22.28125 55.800781 21.628906 56.585938 20.429688 C 56.878906 19.988281 57.074219 19.492188 57.15625 18.976562 L 60.269531 21.074219 Z M 58.386719 23.960938 "/>
<path style=" stroke:none;fill-rule:nonzero;fill:rgb(100%,100%,100%);fill-opacity:1;" d="M 18 57.253906 C 18.007812 57.96875 18.585938 58.546875 19.296875 58.546875 C 19.296875 58.546875 19.304688 58.546875 19.304688 58.546875 L 34.265625 58.453125 C 34.304688 58.453125 34.34375 58.449219 34.378906 58.441406 C 34.539062 58.507812 34.710938 58.546875 34.890625 58.546875 L 39.53125 58.515625 C 39.585938 58.515625 39.636719 58.507812 39.691406 58.5 C 40.085938 58.417969 40.425781 58.15625 40.597656 57.789062 C 40.769531 57.425781 40.761719 57.007812 40.582031 56.648438 C 40.351562 56.191406 40.074219 55.246094 40.867188 54.066406 C 40.898438 54.023438 40.933594 53.984375 40.980469 53.953125 C 41.496094 53.59375 42.03125 53.414062 42.5625 53.414062 C 43.785156 53.414062 44.78125 54.414062 44.789062 55.628906 C 44.789062 55.980469 44.714844 56.316406 44.558594 56.625 C 44.378906 56.984375 44.378906 57.390625 44.558594 57.75 C 44.738281 58.117188 45.082031 58.378906 45.480469 58.453125 C 45.53125 58.460938 45.585938 58.46875 45.636719 58.46875 L 50.046875 58.441406 C 50.390625 58.441406 50.722656 58.304688 50.96875 58.058594 C 51.21875 57.808594 51.34375 57.480469 51.34375 57.136719 L 51.316406 52.53125 C 51.316406 51.808594 50.738281 51.238281 50.015625 51.238281 C 49.761719 51.238281 49.515625 51.316406 49.304688 51.449219 C 48.953125 51.675781 48.539062 51.796875 48.113281 51.800781 C 47.289062 51.800781 46.53125 51.34375 46.148438 50.617188 C 45.726562 49.828125 45.824219 48.878906 46.417969 48.007812 C 46.449219 47.960938 46.484375 47.925781 46.53125 47.894531 C 47.046875 47.535156 47.578125 47.347656 48.121094 47.347656 C 48.539062 47.347656 48.945312 47.46875 49.296875 47.683594 C 49.800781 48.007812 50.503906 47.925781 50.925781 47.511719 C 51.164062 47.273438 51.300781 46.949219 51.292969 46.597656 L 51.261719 41.96875 C 51.253906 41.257812 50.675781 40.679688 49.957031 40.679688 L 45.996094 40.703125 C 46.140625 40.296875 46.207031 39.878906 46.199219 39.441406 C 46.183594 37.34375 44.46875 35.632812 42.367188 35.632812 C 41.519531 35.632812 40.664062 35.910156 39.890625 36.441406 C 40.011719 36.285156 40.125 36.113281 40.214844 35.933594 C 40.90625 34.605469 40.753906 33.015625 39.816406 31.671875 C 39.675781 31.46875 39.496094 31.289062 39.285156 31.148438 C 38.109375 30.34375 36.71875 30.136719 35.527344 30.554688 L 35.503906 26.59375 C 35.503906 25.882812 34.921875 25.304688 34.199219 25.304688 L 30.226562 25.351562 C 30.660156 24.128906 30.441406 22.769531 29.601562 21.570312 C 29.46875 21.367188 29.28125 21.1875 29.078125 21.046875 C 28.304688 20.527344 27.449219 20.25 26.609375 20.25 C 26.609375 20.25 26.609375 20.25 26.601562 20.25 C 25.574219 20.25 24.609375 20.65625 23.878906 21.382812 C 23.152344 22.109375 22.761719 23.078125 22.761719 24.105469 C 22.761719 24.546875 22.84375 24.988281 22.996094 25.394531 L 19.027344 25.417969 C 18.683594 25.417969 18.351562 25.558594 18.113281 25.800781 C 17.863281 26.046875 17.738281 26.378906 17.738281 26.722656 L 17.765625 31.363281 C 17.765625 31.417969 17.773438 31.46875 17.78125 31.523438 C 17.910156 32.121094 18.441406 32.558594 19.050781 32.558594 C 19.253906 32.558594 19.449219 32.511719 19.636719 32.414062 C 20.421875 32.015625 21.351562 32.113281 22.214844 32.699219 C 22.261719 32.730469 22.296875 32.765625 22.328125 32.8125 C 22.925781 33.675781 23.03125 34.628906 22.621094 35.414062 C 22.238281 36.148438 21.488281 36.609375 20.640625 36.613281 C 20.296875 36.613281 19.964844 36.539062 19.648438 36.382812 C 19.46875 36.292969 19.28125 36.246094 19.085938 36.246094 C 18.472656 36.246094 17.941406 36.691406 17.820312 37.296875 C 17.8125 37.351562 17.804688 37.402344 17.804688 37.453125 L 17.828125 41.863281 C 17.828125 41.992188 17.859375 42.105469 17.910156 42.203125 C 17.910156 42.226562 17.902344 42.238281 17.902344 42.261719 L 17.925781 46.050781 C 16.703125 45.613281 15.34375 45.832031 14.136719 46.671875 C 13.933594 46.816406 13.753906 46.996094 13.621094 47.199219 C 12.699219 48.554688 12.570312 50.152344 13.265625 51.464844 C 13.941406 52.726562 15.246094 53.503906 16.671875 53.496094 C 17.113281 53.496094 17.550781 53.414062 17.960938 53.265625 Z M 40.328125 41.753906 C 40.558594 41.363281 40.582031 40.898438 40.371094 40.492188 C 40.140625 40.035156 39.863281 39.089844 40.65625 37.921875 C 40.6875 37.875 40.734375 37.835938 40.769531 37.808594 C 41.289062 37.453125 41.820312 37.265625 42.351562 37.265625 C 43.566406 37.265625 44.566406 38.257812 44.578125 39.480469 C 44.578125 39.832031 44.503906 40.171875 44.347656 40.484375 C 44.144531 40.882812 44.167969 41.347656 44.40625 41.730469 C 44.648438 42.121094 45.058594 42.351562 45.523438 42.351562 L 49.640625 42.328125 L 49.664062 46.109375 C 48.40625 45.539062 46.875 45.71875 45.601562 46.605469 C 45.398438 46.746094 45.21875 46.925781 45.074219 47.136719 C 44.152344 48.496094 44.015625 50.085938 44.714844 51.40625 C 45.382812 52.664062 46.679688 53.445312 48.128906 53.445312 C 48.675781 53.4375 49.214844 53.316406 49.710938 53.09375 L 49.734375 56.871094 L 46.199219 56.894531 C 46.335938 56.496094 46.402344 56.070312 46.402344 55.648438 C 46.386719 53.550781 44.671875 51.839844 42.570312 51.839844 C 41.714844 51.839844 40.851562 52.125 40.074219 52.664062 C 39.871094 52.808594 39.691406 52.988281 39.546875 53.199219 C 38.730469 54.398438 38.527344 55.738281 38.953125 56.949219 L 35.199219 56.96875 L 35.175781 52.835938 C 35.175781 52.125 34.589844 51.539062 33.878906 51.539062 C 33.675781 51.539062 33.464844 51.59375 33.285156 51.691406 C 32.96875 51.855469 32.625 51.945312 32.25 51.945312 C 31.425781 51.945312 30.667969 51.488281 30.285156 50.761719 C 29.863281 49.972656 29.960938 49.019531 30.546875 48.15625 C 30.578125 48.113281 30.613281 48.074219 30.660156 48.046875 C 31.523438 47.4375 32.476562 47.339844 33.253906 47.738281 C 33.742188 47.992188 34.371094 47.886719 34.761719 47.496094 C 35.011719 47.25 35.144531 46.921875 35.136719 46.574219 L 35.113281 42.441406 L 39.234375 42.421875 C 39.683594 42.375 40.09375 42.140625 40.328125 41.753906 Z M 38.746094 40.769531 L 35.578125 40.785156 L 35.566406 37.816406 C 35.960938 37.949219 36.382812 38.015625 36.824219 38.015625 C 37.734375 38.011719 38.585938 37.6875 39.261719 37.125 C 38.503906 38.300781 38.324219 39.601562 38.746094 40.769531 Z M 20.671875 38.234375 C 22.09375 38.226562 23.390625 37.433594 24.050781 36.164062 C 24.734375 34.84375 24.59375 33.246094 23.65625 31.898438 C 23.511719 31.695312 23.332031 31.515625 23.128906 31.371094 C 21.953125 30.570312 20.574219 30.359375 19.378906 30.78125 L 19.359375 27.023438 L 23.488281 27 C 23.949219 26.992188 24.367188 26.761719 24.601562 26.363281 C 24.832031 25.972656 24.847656 25.507812 24.636719 25.109375 C 24.472656 24.796875 24.382812 24.449219 24.382812 24.089844 C 24.382812 23.488281 24.609375 22.933594 25.027344 22.507812 C 25.449219 22.085938 26.011719 21.847656 26.609375 21.847656 C 27.136719 21.847656 27.660156 22.027344 28.171875 22.363281 C 28.214844 22.394531 28.253906 22.433594 28.28125 22.476562 C 28.882812 23.332031 28.996094 24.277344 28.589844 25.074219 C 28.386719 25.46875 28.402344 25.941406 28.640625 26.332031 C 28.882812 26.722656 29.296875 26.953125 29.761719 26.953125 L 33.890625 26.933594 L 33.914062 31.050781 C 33.914062 31.761719 34.5 32.339844 35.210938 32.339844 C 35.40625 32.339844 35.609375 32.296875 35.796875 32.199219 C 36.578125 31.800781 37.507812 31.898438 38.371094 32.484375 C 38.414062 32.511719 38.453125 32.550781 38.484375 32.59375 C 39.082031 33.457031 39.1875 34.402344 38.773438 35.199219 C 38.390625 35.933594 37.640625 36.390625 36.796875 36.398438 C 36.449219 36.398438 36.121094 36.316406 35.8125 36.164062 C 35.332031 35.917969 34.710938 36.023438 34.320312 36.414062 C 34.074219 36.660156 33.9375 36.988281 33.9375 37.34375 L 33.960938 41.09375 C 33.878906 41.160156 33.808594 41.242188 33.742188 41.324219 C 33.710938 41.371094 33.691406 41.40625 33.660156 41.453125 L 29.707031 41.476562 C 29.527344 41.476562 29.371094 41.386719 29.28125 41.234375 C 29.191406 41.078125 29.199219 40.875 29.300781 40.71875 C 29.992188 39.621094 29.910156 38.257812 29.078125 37.058594 C 28.996094 36.9375 28.890625 36.832031 28.761719 36.742188 C 28.117188 36.300781 27.433594 36.074219 26.746094 36.074219 C 25.933594 36.074219 25.171875 36.390625 24.59375 36.96875 C 24.023438 37.546875 23.707031 38.308594 23.714844 39.128906 C 23.722656 39.699219 23.886719 40.261719 24.195312 40.738281 C 24.300781 40.898438 24.308594 41.101562 24.21875 41.265625 C 24.136719 41.414062 23.96875 41.511719 23.789062 41.519531 L 19.433594 41.542969 L 19.410156 38.015625 C 19.816406 38.167969 20.234375 38.234375 20.671875 38.234375 Z M 16.671875 51.90625 C 15.847656 51.898438 15.082031 51.457031 14.691406 50.730469 C 14.273438 49.941406 14.371094 48.988281 14.953125 48.121094 C 14.984375 48.082031 15.023438 48.039062 15.058594 48.007812 C 15.914062 47.40625 16.859375 47.296875 17.65625 47.699219 C 18.058594 47.902344 18.53125 47.886719 18.914062 47.648438 C 19.304688 47.40625 19.539062 46.988281 19.53125 46.53125 L 19.507812 43.171875 L 23.796875 43.148438 C 24.5625 43.140625 25.261719 42.71875 25.628906 42.050781 C 25.996094 41.371094 25.964844 40.546875 25.546875 39.890625 C 25.402344 39.667969 25.328125 39.40625 25.320312 39.140625 C 25.320312 38.761719 25.460938 38.398438 25.734375 38.128906 C 26.242188 37.613281 27.050781 37.574219 27.796875 38.0625 C 28.058594 38.460938 28.378906 39.1875 27.9375 39.886719 C 27.523438 40.539062 27.496094 41.363281 27.871094 42.039062 C 28.238281 42.699219 28.933594 43.117188 29.707031 43.117188 L 33.480469 43.09375 L 33.496094 46.078125 C 32.28125 45.652344 30.890625 45.878906 29.707031 46.703125 C 29.503906 46.84375 29.324219 47.023438 29.191406 47.226562 C 28.273438 48.585938 28.140625 50.175781 28.835938 51.488281 C 29.503906 52.746094 30.800781 53.527344 32.25 53.527344 C 32.691406 53.527344 33.128906 53.445312 33.539062 53.296875 L 33.5625 56.746094 C 33.53125 56.78125 33.496094 56.820312 33.472656 56.859375 L 19.582031 56.941406 L 19.558594 52.808594 C 19.558594 52.351562 19.320312 51.929688 18.921875 51.699219 C 18.53125 51.464844 18.066406 51.449219 17.671875 51.660156 C 17.378906 51.816406 17.03125 51.90625 16.671875 51.90625 Z M 16.671875 51.90625 "/>
</g>
</svg>
