<?xml version="1.0" encoding="UTF-8"?>
<svg xmlns="http://www.w3.org/2000/svg" xmlns:xlink="http://www.w3.org/1999/xlink" width="75pt" height="75pt" viewBox="0 0 75 75" version="1.1">
<defs>
<filter id="alpha" filterUnits="objectBoundingBox" x="0%" y="0%" width="100%" height="100%">
  <feColorMatrix type="matrix" in="SourceGraphic" values="0 0 0 0 1 0 0 0 0 1 0 0 0 0 1 0 0 0 1 0"/>
</filter>
<mask id="mask0">
  <g filter="url(#alpha)">
<rect x="0" y="0" width="75" height="75" style="fill:rgb(0%,0%,0%);fill-opacity:0.301961;stroke:none;"/>
  </g>
</mask>
<clipPath id="clip1">
  <rect width="75" height="75"/>
</clipPath>
<g id="surface6" clip-path="url(#clip1)">
<path style=" stroke:none;fill-rule:nonzero;fill:rgb(11.764706%,11.764706%,10.980392%);fill-opacity:1;" d="M 72.015625 34.640625 L 54.796875 17.421875 L 54.710938 17.503906 C 56.910156 21.097656 55.253906 27.066406 49.753906 27.066406 C 48.644531 27.066406 47.691406 26.820312 46.898438 26.398438 C 46.875 26.386719 46.851562 26.378906 46.828125 26.363281 C 46.734375 26.308594 46.628906 26.25 46.539062 26.191406 C 46.417969 26.121094 46.28125 26.054688 46.171875 25.980469 L 46.09375 26.054688 L 50.671875 30.628906 L 52.808594 30.628906 L 52.808594 30.226562 L 55.964844 30.226562 L 55.964844 32.054688 L 57.285156 32.054688 L 57.285156 35.925781 L 55.964844 35.925781 L 55.964844 36.328125 L 48.425781 36.328125 L 48.425781 36.53125 L 44.460938 36.53125 L 44.460938 33.375 L 45.097656 33.375 L 42.539062 30.816406 L 41.910156 31.335938 L 28.273438 17.707031 L 28.132812 17.84375 C 29.859375 21.464844 28.109375 26.863281 22.882812 26.863281 C 21.515625 26.863281 20.398438 26.488281 19.507812 25.890625 L 19.222656 26.160156 L 22.988281 29.925781 L 28.378906 29.925781 L 28.378906 30.636719 L 30.210938 30.636719 L 30.210938 36.644531 L 27.15625 36.644531 L 27.15625 36.335938 L 17.632812 36.335938 L 16.371094 37.253906 L 34.078125 54.960938 L 40.492188 54.960938 L 40.492188 55.066406 L 42.523438 55.066406 L 42.523438 56.59375 L 43.746094 56.59375 L 43.746094 61.175781 L 42.523438 61.175781 L 42.523438 61.28125 L 29.886719 61.980469 L 39.757812 71.851562 C 40.378906 71.8125 40.996094 71.753906 41.609375 71.675781 C 41.640625 71.675781 41.671875 71.671875 41.699219 71.664062 C 42.285156 71.59375 42.863281 71.503906 43.441406 71.40625 C 43.484375 71.398438 43.53125 71.390625 43.574219 71.386719 C 44.136719 71.289062 44.699219 71.167969 45.253906 71.046875 C 45.300781 71.039062 45.34375 71.023438 45.382812 71.015625 C 45.945312 70.890625 46.5 70.738281 47.046875 70.582031 C 47.078125 70.574219 47.113281 70.566406 47.144531 70.550781 C 47.714844 70.386719 48.277344 70.207031 48.832031 70.011719 C 48.839844 70.011719 48.847656 70.003906 48.863281 70.003906 C 55.191406 67.808594 60.683594 63.816406 64.738281 58.65625 C 69.359375 52.769531 72.121094 45.359375 72.121094 37.304688 C 72.128906 36.40625 72.082031 35.519531 72.015625 34.640625 Z M 41.863281 51.421875 C 41.859375 51.425781 41.851562 51.433594 41.84375 51.441406 C 40.859375 52.515625 39.425781 53.226562 37.539062 53.226562 C 29.664062 53.226562 29.675781 41.011719 37.539062 41.011719 C 43.507812 41.015625 44.941406 48.023438 41.863281 51.421875 Z M 41.863281 51.421875 "/>
</g>
</defs>
<g id="surface1">
<path style=" stroke:none;fill-rule:nonzero;fill:rgb(10.980392%,45.098039%,66.666667%);fill-opacity:1;" d="M 72.128906 37.5 C 72.128906 56.625 56.625 72.128906 37.5 72.128906 C 18.375 72.128906 2.871094 56.625 2.871094 37.5 C 2.871094 18.375 18.375 2.871094 37.5 2.871094 C 56.625 2.871094 72.128906 18.375 72.128906 37.5 Z M 72.128906 37.5 "/>
<path style=" stroke:none;fill-rule:nonzero;fill:rgb(100%,100%,100%);fill-opacity:1;" d="M 37.5 2.871094 C 56.625 2.871094 72.128906 18.375 72.128906 37.5 C 72.128906 56.625 56.625 72.128906 37.5 72.128906 C 18.375 72.128906 2.871094 56.625 2.871094 37.5 C 2.871094 18.375 18.375 2.871094 37.5 2.871094 M 37.5 0 C 16.824219 0 0 16.824219 0 37.5 C 0 58.175781 16.824219 75 37.5 75 C 58.175781 75 75 58.175781 75 37.5 C 75 16.824219 58.175781 0 37.5 0 Z M 37.5 0 "/>
<use xlink:href="#surface6" mask="url(#mask0)"/>
<path style="fill-rule:nonzero;fill:rgb(100%,100%,100%);fill-opacity:1;stroke-width:0.8143;stroke-linecap:butt;stroke-linejoin:miter;stroke:rgb(100%,100%,100%);stroke-opacity:1;stroke-miterlimit:10;" d="M 55.520833 41.229167 L 50.25 45.109375 L 44.979167 41.229167 C 44.739583 40.989583 44.348958 40.989583 44.109375 41.229167 C 43.869792 41.46875 43.869792 41.859375 44.109375 42.098958 L 49.619792 46.270833 L 49.619792 51.979167 C 49.619792 52.317708 49.901042 52.588542 50.239583 52.588542 C 50.578125 52.588542 50.859375 52.317708 50.859375 51.979167 L 50.859375 46.291667 L 56.401042 42.098958 C 56.640625 41.859375 56.640625 41.46875 56.401042 41.229167 C 56.151042 41 55.760417 41 55.520833 41.229167 Z M 55.520833 41.229167 " transform="matrix(0.75,0,0,0.75,0,0)"/>
<path style="fill-rule:nonzero;fill:rgb(100%,100%,100%);fill-opacity:1;stroke-width:0.4072;stroke-linecap:butt;stroke-linejoin:miter;stroke:rgb(100%,100%,100%);stroke-opacity:1;stroke-miterlimit:10;" d="M 26.359375 23.901042 C 24.838542 25.411458 24 27.432292 24 29.567708 C 24 33.989583 27.598958 37.588542 32.03125 37.588542 C 34.171875 37.588542 36.1875 36.75 37.697917 35.239583 C 39.21875 33.71875 40.052083 31.697917 40.052083 29.5625 C 40.052083 25.130208 36.447917 21.53125 32.020833 21.53125 C 29.890625 21.541667 27.869792 22.380208 26.359375 23.901042 Z M 37.932292 29.567708 C 37.932292 31.140625 37.317708 32.619792 36.197917 33.739583 C 35.078125 34.859375 33.598958 35.46875 32.03125 35.46875 C 28.78125 35.46875 26.130208 32.817708 26.130208 29.567708 C 26.130208 27.989583 26.75 26.510417 27.859375 25.390625 C 28.979167 24.270833 30.458333 23.661458 32.03125 23.661458 C 35.28125 23.671875 37.932292 26.317708 37.932292 29.567708 Z M 37.932292 29.567708 " transform="matrix(0.75,0,0,0.75,0,0)"/>
<path style="fill-rule:nonzero;fill:rgb(100%,100%,100%);fill-opacity:1;stroke-width:0.4072;stroke-linecap:butt;stroke-linejoin:miter;stroke:rgb(100%,100%,100%);stroke-opacity:1;stroke-miterlimit:10;" d="M 22.921875 49.890625 L 41.140625 49.890625 C 41.708333 49.890625 42.182292 49.4375 42.197917 48.859375 C 42.208333 48.567708 42.380208 41.791667 38.119792 37.890625 C 37.739583 37.541667 37.161458 37.520833 36.760417 37.828125 C 36.708333 37.869792 32 41.411458 27.609375 37.838542 C 27.208333 37.510417 26.630208 37.520833 26.239583 37.859375 C 26.067708 38.010417 21.958333 41.661458 21.859375 48.8125 C 21.859375 49.088542 21.958333 49.369792 22.171875 49.567708 C 22.359375 49.770833 22.640625 49.890625 22.921875 49.890625 Z M 27.0625 40.0625 C 30.890625 42.598958 35 41.401042 37.270833 40.041667 C 39.432292 42.489583 39.9375 46.03125 40.052083 47.760417 L 24.041667 47.760417 C 24.359375 43.708333 26.119792 41.161458 27.0625 40.0625 Z M 27.0625 40.0625 " transform="matrix(0.75,0,0,0.75,0,0)"/>
<path style="fill-rule:nonzero;fill:rgb(100%,100%,100%);fill-opacity:1;stroke-width:0.4072;stroke-linecap:butt;stroke-linejoin:miter;stroke:rgb(100%,100%,100%);stroke-opacity:1;stroke-miterlimit:10;" d="M 67.96875 37.598958 C 70.109375 37.598958 72.130208 36.760417 73.640625 35.25 C 75.161458 33.729167 75.989583 31.71875 75.989583 29.567708 C 75.989583 25.140625 72.390625 21.541667 67.958333 21.541667 C 65.817708 21.541667 63.802083 22.380208 62.28125 23.901042 C 60.760417 25.421875 59.932292 27.432292 59.932292 29.578125 C 59.9375 34 63.541667 37.598958 67.96875 37.598958 Z M 63.791667 25.401042 C 64.911458 24.28125 66.390625 23.671875 67.958333 23.671875 C 71.208333 23.671875 73.859375 26.317708 73.859375 29.567708 C 73.859375 31.140625 73.25 32.619792 72.130208 33.739583 C 71.020833 34.859375 69.53125 35.46875 67.958333 35.46875 C 64.708333 35.46875 62.0625 32.817708 62.0625 29.567708 C 62.0625 28 62.682292 26.510417 63.791667 25.401042 Z M 63.791667 25.401042 " transform="matrix(0.75,0,0,0.75,0,0)"/>
<path style="fill-rule:nonzero;fill:rgb(100%,100%,100%);fill-opacity:1;stroke-width:0.4072;stroke-linecap:butt;stroke-linejoin:miter;stroke:rgb(100%,100%,100%);stroke-opacity:1;stroke-miterlimit:10;" d="M 78.140625 48.859375 C 78.151042 48.567708 78.317708 41.791667 74.0625 37.890625 C 73.682292 37.541667 73.098958 37.520833 72.697917 37.828125 C 72.651042 37.869792 67.9375 41.411458 63.5625 37.838542 C 63.161458 37.510417 62.578125 37.520833 62.1875 37.859375 C 62.020833 38.010417 57.911458 41.661458 57.8125 48.8125 C 57.8125 49.088542 57.911458 49.369792 58.119792 49.567708 C 58.317708 49.770833 58.588542 49.890625 58.880208 49.890625 L 77.098958 49.890625 C 77.651042 49.880208 78.119792 49.432292 78.140625 48.859375 Z M 59.96875 47.760417 C 60.291667 43.708333 62.0625 41.151042 62.989583 40.0625 C 66.817708 42.598958 70.932292 41.401042 73.1875 40.041667 C 75.348958 42.489583 75.859375 46.03125 75.96875 47.760417 Z M 59.96875 47.760417 " transform="matrix(0.75,0,0,0.75,0,0)"/>
<path style="fill-rule:nonzero;fill:rgb(100%,100%,100%);fill-opacity:1;stroke-width:0.4072;stroke-linecap:butt;stroke-linejoin:miter;stroke:rgb(100%,100%,100%);stroke-opacity:1;stroke-miterlimit:10;" d="M 50.25 54.651042 C 48.109375 54.651042 46.088542 55.489583 44.578125 57 C 43.0625 58.520833 42.229167 60.53125 42.229167 62.682292 C 42.229167 67.098958 45.828125 70.697917 50.260417 70.697917 C 52.401042 70.697917 54.421875 69.859375 55.932292 68.348958 C 57.447917 66.828125 58.28125 64.817708 58.28125 62.682292 C 58.270833 58.25 54.671875 54.651042 50.25 54.651042 Z M 54.421875 66.848958 C 53.302083 67.96875 51.817708 68.578125 50.25 68.578125 C 47 68.578125 44.348958 65.932292 44.348958 62.682292 C 44.348958 61.109375 44.958333 59.619792 46.078125 58.510417 C 47.197917 57.390625 48.682292 56.78125 50.25 56.78125 C 53.5 56.78125 56.151042 59.432292 56.161458 62.682292 C 56.151042 64.25 55.541667 65.729167 54.421875 66.848958 Z M 54.421875 66.848958 " transform="matrix(0.75,0,0,0.75,0,0)"/>
<path style="fill-rule:nonzero;fill:rgb(100%,100%,100%);fill-opacity:1;stroke-width:0.4072;stroke-linecap:butt;stroke-linejoin:miter;stroke:rgb(100%,100%,100%);stroke-opacity:1;stroke-miterlimit:10;" d="M 41.140625 82.989583 L 59.359375 82.989583 C 59.932292 82.989583 60.401042 82.541667 60.421875 81.958333 C 60.432292 81.671875 60.598958 74.901042 56.338542 70.989583 C 55.958333 70.640625 55.380208 70.619792 54.979167 70.932292 C 54.932292 70.96875 50.21875 74.510417 45.828125 70.9375 C 45.432292 70.619792 44.848958 70.619792 44.458333 70.958333 C 44.291667 71.109375 40.182292 74.760417 40.078125 81.911458 C 40.078125 82.1875 40.1875 82.46875 40.390625 82.671875 C 40.578125 82.880208 40.848958 82.989583 41.140625 82.989583 Z M 45.270833 73.171875 C 49.098958 75.71875 53.208333 74.510417 55.46875 73.151042 C 57.630208 75.598958 58.140625 79.140625 58.25 80.869792 L 42.239583 80.869792 C 42.578125 76.8125 44.338542 74.260417 45.270833 73.171875 Z M 45.270833 73.171875 " transform="matrix(0.75,0,0,0.75,0,0)"/>
</g>
</svg>
