<?xml version="1.0" encoding="UTF-8"?>
<svg xmlns="http://www.w3.org/2000/svg" xmlns:xlink="http://www.w3.org/1999/xlink" width="75pt" height="75pt" viewBox="0 0 75 75" version="1.1">
<defs>
<filter id="alpha" filterUnits="objectBoundingBox" x="0%" y="0%" width="100%" height="100%">
  <feColorMatrix type="matrix" in="SourceGraphic" values="0 0 0 0 1 0 0 0 0 1 0 0 0 0 1 0 0 0 1 0"/>
</filter>
<mask id="mask0">
  <g filter="url(#alpha)">
<rect x="0" y="0" width="75" height="75" style="fill:rgb(0%,0%,0%);fill-opacity:0.301961;stroke:none;"/>
  </g>
</mask>
<clipPath id="clip1">
  <rect width="75" height="75"/>
</clipPath>
<g id="surface6" clip-path="url(#clip1)">
<path style=" stroke:none;fill-rule:nonzero;fill:rgb(11.764706%,11.764706%,10.980392%);fill-opacity:1;" d="M 47.210938 17.519531 L 46.085938 18.921875 C 46.792969 19.359375 47.390625 19.964844 47.8125 20.738281 C 49.101562 21.488281 50.003906 22.851562 49.90625 24.847656 C 49.851562 25.859375 49.695312 26.917969 49.453125 27.976562 C 49.574219 28.679688 49.648438 29.398438 49.597656 30.140625 C 49.550781 30.816406 49.441406 31.476562 49.265625 32.121094 C 52.253906 32.28125 55.199219 33.914062 57.203125 36.066406 C 59.859375 38.925781 61.035156 43.289062 60.234375 47.121094 C 59.527344 50.476562 57.140625 52.3125 55.050781 54.800781 C 49.679688 61.171875 43.679688 57.800781 37.636719 54.03125 C 35.453125 56.675781 31.769531 58.304688 28.386719 58.261719 C 26.902344 58.238281 25.679688 57.855469 24.667969 57.195312 C 21.960938 57.046875 19.597656 56.070312 18.441406 53.527344 L 17.210938 55.066406 L 34.101562 71.953125 C 35.21875 72.058594 36.351562 72.121094 37.5 72.121094 C 55.058594 72.121094 69.554688 59.046875 71.8125 42.113281 Z M 47.210938 17.519531 "/>
</g>
</defs>
<g id="surface1">
<path style=" stroke:none;fill-rule:nonzero;fill:rgb(10.980392%,45.098039%,66.666667%);fill-opacity:1;" d="M 72.128906 37.5 C 72.128906 56.625 56.625 72.128906 37.5 72.128906 C 18.375 72.128906 2.871094 56.625 2.871094 37.5 C 2.871094 18.375 18.375 2.871094 37.5 2.871094 C 56.625 2.871094 72.128906 18.375 72.128906 37.5 Z M 72.128906 37.5 "/>
<path style=" stroke:none;fill-rule:nonzero;fill:rgb(100%,100%,100%);fill-opacity:1;" d="M 37.5 2.871094 C 56.625 2.871094 72.128906 18.375 72.128906 37.5 C 72.128906 56.625 56.625 72.128906 37.5 72.128906 C 18.375 72.128906 2.871094 56.625 2.871094 37.5 C 2.871094 18.375 18.375 2.871094 37.5 2.871094 M 37.5 0 C 16.824219 0 0 16.824219 0 37.5 C 0 58.175781 16.824219 75 37.5 75 C 58.175781 75 75 58.175781 75 37.5 C 75 16.824219 58.175781 0 37.5 0 Z M 37.5 0 "/>
<use xlink:href="#surface6" mask="url(#mask0)"/>
<path style=" stroke:none;fill-rule:nonzero;fill:rgb(100%,100%,100%);fill-opacity:1;" d="M 37.5 41.558594 C 29.78125 41.558594 23.503906 35.28125 23.503906 27.5625 C 23.503906 19.84375 29.78125 13.574219 37.5 13.574219 C 45.21875 13.574219 51.496094 19.851562 51.496094 27.570312 C 51.496094 35.289062 45.21875 41.558594 37.5 41.558594 Z M 37.5 15.75 C 30.984375 15.75 25.6875 21.050781 25.6875 27.5625 C 25.6875 34.074219 30.984375 39.382812 37.5 39.382812 C 44.015625 39.382812 49.3125 34.078125 49.3125 27.570312 C 49.3125 21.058594 44.015625 15.75 37.5 15.75 Z M 37.5 15.75 "/>
<path style=" stroke:none;fill-rule:nonzero;fill:rgb(100%,100%,100%);fill-opacity:1;" d="M 42.78125 26.4375 C 42.78125 27.1875 42.171875 27.796875 41.421875 27.796875 C 40.671875 27.796875 40.066406 27.1875 40.066406 26.4375 C 40.066406 25.6875 40.671875 25.078125 41.421875 25.078125 C 42.171875 25.078125 42.78125 25.6875 42.78125 26.4375 Z M 42.78125 26.4375 "/>
<path style=" stroke:none;fill-rule:nonzero;fill:rgb(100%,100%,100%);fill-opacity:1;" d="M 34.972656 26.4375 C 34.972656 27.1875 34.363281 27.796875 33.613281 27.796875 C 32.867188 27.796875 32.257812 27.1875 32.257812 26.4375 C 32.257812 25.6875 32.867188 25.078125 33.613281 25.078125 C 34.363281 25.078125 34.972656 25.6875 34.972656 26.4375 Z M 34.972656 26.4375 "/>
<path style=" stroke:none;fill-rule:nonzero;fill:rgb(100%,100%,100%);fill-opacity:1;" d="M 37.402344 34.175781 C 35.632812 34.175781 34.191406 32.820312 34.191406 31.148438 L 36.058594 31.148438 C 36.058594 31.792969 36.660156 32.308594 37.402344 32.308594 C 38.144531 32.308594 38.746094 31.785156 38.746094 31.148438 L 40.613281 31.148438 C 40.613281 32.8125 39.171875 34.175781 37.402344 34.175781 Z M 37.402344 34.175781 "/>
<path style=" stroke:none;fill-rule:nonzero;fill:rgb(100%,100%,100%);fill-opacity:1;" d="M 49.523438 31.613281 C 49.394531 31.972656 49.222656 32.308594 49.011719 32.625 C 48.984375 33.023438 48.816406 33.40625 48.480469 33.683594 C 54.511719 34.207031 59.265625 39.285156 59.265625 45.449219 C 59.265625 51.96875 53.960938 57.261719 47.453125 57.261719 C 40.941406 57.261719 35.640625 51.960938 35.640625 45.449219 C 35.640625 43.550781 36.089844 41.765625 36.886719 40.175781 C 36.277344 40.140625 35.671875 40.085938 35.070312 39.953125 C 34.921875 39.921875 34.785156 39.855469 34.664062 39.78125 C 33.890625 41.511719 33.457031 43.433594 33.457031 45.449219 C 33.457031 53.167969 39.734375 59.445312 47.453125 59.445312 C 55.171875 59.445312 61.449219 53.167969 61.449219 45.449219 C 61.441406 38.4375 56.257812 32.617188 49.523438 31.613281 Z M 49.523438 31.613281 "/>
<path style=" stroke:none;fill-rule:nonzero;fill:rgb(100%,100%,100%);fill-opacity:1;" d="M 52.734375 44.316406 C 52.734375 45.066406 52.125 45.675781 51.375 45.675781 C 50.625 45.675781 50.015625 45.066406 50.015625 44.316406 C 50.015625 43.566406 50.625 42.960938 51.375 42.960938 C 52.125 42.960938 52.734375 43.566406 52.734375 44.316406 Z M 52.734375 44.316406 "/>
<path style=" stroke:none;fill-rule:nonzero;fill:rgb(100%,100%,100%);fill-opacity:1;" d="M 44.917969 44.316406 C 44.917969 45.066406 44.308594 45.675781 43.558594 45.675781 C 42.808594 45.675781 42.203125 45.066406 42.203125 44.316406 C 42.203125 43.566406 42.808594 42.960938 43.558594 42.960938 C 44.308594 42.960938 44.917969 43.566406 44.917969 44.316406 Z M 44.917969 44.316406 "/>
<path style=" stroke:none;fill-rule:nonzero;fill:rgb(100%,100%,100%);fill-opacity:1;" d="M 50.558594 50.496094 L 48.691406 50.496094 C 48.691406 49.851562 48.089844 49.335938 47.347656 49.335938 C 46.605469 49.335938 46.003906 49.859375 46.003906 50.496094 L 44.136719 50.496094 C 44.136719 48.824219 45.578125 47.46875 47.347656 47.46875 C 49.117188 47.46875 50.558594 48.824219 50.558594 50.496094 Z M 50.558594 50.496094 "/>
<path style=" stroke:none;fill-rule:nonzero;fill:rgb(100%,100%,100%);fill-opacity:1;" d="M 38.640625 53.941406 C 37.734375 53.714844 37.171875 53.265625 36.871094 52.6875 C 34.703125 55.460938 31.335938 57.253906 27.546875 57.253906 C 21.03125 57.253906 15.734375 51.953125 15.734375 45.441406 C 15.734375 39.066406 20.8125 33.855469 27.140625 33.636719 C 26.753906 33.121094 26.445312 32.519531 26.203125 31.941406 C 26.144531 31.800781 26.113281 31.65625 26.101562 31.53125 C 19.066406 32.257812 13.558594 38.21875 13.558594 45.441406 C 13.558594 53.160156 19.835938 59.4375 27.554688 59.4375 C 32.078125 59.4375 36.097656 57.277344 38.664062 53.941406 C 38.648438 53.941406 38.648438 53.941406 38.640625 53.941406 Z M 38.640625 53.941406 "/>
<path style=" stroke:none;fill-rule:nonzero;fill:rgb(100%,100%,100%);fill-opacity:1;" d="M 30.757812 51.121094 L 28.890625 51.121094 C 28.890625 50.476562 28.289062 49.957031 27.546875 49.957031 C 26.804688 49.957031 26.203125 50.484375 26.203125 51.121094 L 24.335938 51.121094 C 24.335938 49.449219 25.777344 48.089844 27.546875 48.089844 C 29.316406 48.089844 30.757812 49.449219 30.757812 51.121094 Z M 30.757812 51.121094 "/>
<path style=" stroke:none;fill-rule:nonzero;fill:rgb(100%,100%,100%);fill-opacity:1;" d="M 29.136719 44.226562 L 32.449219 42.824219 L 33.074219 44.296875 L 29.757812 45.699219 Z M 29.136719 44.226562 "/>
<path style=" stroke:none;fill-rule:nonzero;fill:rgb(100%,100%,100%);fill-opacity:1;" d="M 25.347656 45.695312 L 22.03125 44.292969 L 22.65625 42.820312 L 25.96875 44.222656 Z M 25.347656 45.695312 "/>
</g>
</svg>
