<?xml version="1.0" encoding="UTF-8"?>
<svg xmlns="http://www.w3.org/2000/svg" xmlns:xlink="http://www.w3.org/1999/xlink" width="75pt" height="75pt" viewBox="0 0 75 75" version="1.1">
<defs>
<filter id="alpha" filterUnits="objectBoundingBox" x="0%" y="0%" width="100%" height="100%">
  <feColorMatrix type="matrix" in="SourceGraphic" values="0 0 0 0 1 0 0 0 0 1 0 0 0 0 1 0 0 0 1 0"/>
</filter>
<mask id="mask0">
  <g filter="url(#alpha)">
<rect x="0" y="0" width="75" height="75" style="fill:rgb(0%,0%,0%);fill-opacity:0.301961;stroke:none;"/>
  </g>
</mask>
<clipPath id="clip1">
  <rect width="75" height="75"/>
</clipPath>
<g id="surface6" clip-path="url(#clip1)">
<path style=" stroke:none;fill-rule:nonzero;fill:rgb(11.764706%,11.764706%,10.980392%);fill-opacity:1;" d="M 71.902344 33.644531 L 60.300781 22.042969 L 58.621094 23.113281 C 58.484375 23.453125 58.3125 23.78125 58.117188 24.089844 C 58.09375 24.40625 58.050781 24.71875 57.984375 25.027344 C 57.886719 25.449219 57.78125 25.859375 57.675781 26.273438 C 57.757812 26.542969 57.816406 26.828125 57.863281 27.121094 C 58.460938 28.378906 58.640625 29.859375 58.394531 31.253906 C 58.507812 32.40625 58.621094 33.570312 58.671875 34.726562 C 58.695312 35.09375 58.679688 35.460938 58.679688 35.828125 C 58.898438 36.496094 59.011719 37.199219 59.011719 37.90625 C 59.96875 39.699219 60.234375 41.851562 58.898438 43.582031 C 58.761719 43.753906 58.628906 43.925781 58.5 44.101562 C 57.074219 45.953125 55.550781 46.867188 53.527344 46.996094 C 53.484375 47.054688 53.460938 47.121094 53.414062 47.175781 C 51.789062 49.328125 49.371094 50.113281 47.144531 51.425781 C 45.59375 52.351562 44.339844 53.199219 42.929688 53.820312 C 41.941406 55.808594 40.140625 57.308594 37.636719 57.179688 C 34.140625 57.007812 31.289062 55.558594 28.101562 54.285156 C 24.71875 52.933594 21.058594 52.558594 17.691406 51.15625 C 17.109375 50.910156 16.550781 50.617188 16.050781 50.265625 L 14.699219 51.128906 L 35.617188 72.074219 C 36.238281 72.105469 36.871094 72.128906 37.5 72.128906 C 56.625 72.128906 72.128906 56.625 72.128906 37.5 C 72.128906 36.195312 72.046875 34.914062 71.902344 33.644531 Z M 71.902344 33.644531 "/>
</g>
</defs>
<g id="surface1">
<path style=" stroke:none;fill-rule:nonzero;fill:rgb(10.980392%,45.098039%,66.666667%);fill-opacity:1;" d="M 72.128906 37.5 C 72.128906 56.625 56.625 72.128906 37.5 72.128906 C 18.375 72.128906 2.871094 56.625 2.871094 37.5 C 2.871094 18.375 18.375 2.871094 37.5 2.871094 C 56.625 2.871094 72.128906 18.375 72.128906 37.5 Z M 72.128906 37.5 "/>
<path style=" stroke:none;fill-rule:nonzero;fill:rgb(100%,100%,100%);fill-opacity:1;" d="M 37.5 2.871094 C 56.625 2.871094 72.128906 18.375 72.128906 37.5 C 72.128906 56.625 56.625 72.128906 37.5 72.128906 C 18.375 72.128906 2.871094 56.625 2.871094 37.5 C 2.871094 18.375 18.375 2.871094 37.5 2.871094 M 37.5 0 C 16.824219 0 0 16.824219 0 37.5 C 0 58.175781 16.824219 75 37.5 75 C 58.175781 75 75 58.175781 75 37.5 C 75 16.824219 58.175781 0 37.5 0 Z M 37.5 0 "/>
<use xlink:href="#surface6" mask="url(#mask0)"/>
<path style="fill-rule:nonzero;fill:rgb(100%,100%,100%);fill-opacity:1;stroke-width:0.8143;stroke-linecap:round;stroke-linejoin:round;stroke:rgb(100%,100%,100%);stroke-opacity:1;stroke-miterlimit:10;" d="M 81.229167 56.869792 C 79.697917 55.151042 78.979167 53.520833 79.078125 52.03125 C 79.1875 50.4375 80.197917 49.541667 80.239583 49.510417 C 80.578125 49.21875 80.640625 48.708333 80.369792 48.348958 C 80.21875 48.161458 80.010417 48.052083 79.791667 48.03125 C 78.619792 46.651042 78.098958 45.291667 78.260417 43.96875 C 78.520833 41.828125 80.5 40.411458 80.619792 40.317708 L 80.630208 40.3125 C 81.010417 40.052083 81.109375 39.520833 80.848958 39.140625 C 80.588542 38.760417 80.078125 38.661458 79.697917 38.901042 C 78.588542 37.5625 78.098958 36.229167 78.260417 34.947917 C 78.520833 32.8125 80.5 31.390625 80.619792 31.302083 L 80.630208 31.291667 C 80.651042 31.28125 80.661458 31.270833 80.671875 31.25 C 80.6875 31.229167 80.708333 31.21875 80.729167 31.197917 C 80.75 31.182292 80.770833 31.161458 80.791667 31.130208 C 80.8125 31.109375 80.817708 31.088542 80.828125 31.067708 C 80.848958 31.041667 80.859375 31.020833 80.880208 30.989583 C 80.890625 30.96875 80.901042 30.947917 80.911458 30.932292 C 80.921875 30.901042 80.932292 30.869792 80.9375 30.838542 C 80.9375 30.828125 80.947917 30.8125 80.958333 30.802083 C 80.958333 30.791667 80.958333 30.78125 80.958333 30.770833 C 80.96875 30.739583 80.96875 30.708333 80.96875 30.682292 C 80.96875 30.651042 80.979167 30.630208 80.979167 30.598958 C 80.979167 30.567708 80.979167 30.552083 80.979167 30.520833 C 80.979167 30.489583 80.979167 30.46875 80.96875 30.4375 C 80.96875 30.411458 80.958333 30.390625 80.947917 30.359375 C 80.9375 30.328125 80.9375 30.3125 80.932292 30.28125 C 80.921875 30.260417 80.911458 30.229167 80.901042 30.208333 C 80.890625 30.182292 80.869792 30.161458 80.859375 30.130208 C 80.848958 30.119792 80.848958 30.109375 80.848958 30.109375 C 80.838542 30.098958 80.828125 30.088542 80.817708 30.067708 C 80.802083 30.052083 80.78125 30.020833 80.760417 30 C 80.739583 29.979167 80.71875 29.958333 80.697917 29.947917 C 80.682292 29.932292 80.661458 29.911458 80.630208 29.901042 C 80.609375 29.880208 80.578125 29.869792 80.5625 29.859375 C 80.541667 29.848958 80.510417 29.828125 80.489583 29.817708 C 80.458333 29.8125 80.432292 29.802083 80.401042 29.791667 C 80.390625 29.791667 80.369792 29.78125 80.359375 29.770833 L 51.770833 22.239583 C 51.541667 22.182292 51.291667 22.21875 51.088542 22.348958 L 21.3125 41.838542 C 21.208333 41.901042 21.140625 41.979167 21.067708 42.067708 C 19.760417 43.067708 19.010417 44.578125 19.010417 46.229167 C 19.010417 48.109375 20.020833 49.8125 21.578125 50.729167 C 21.432292 50.817708 21.270833 50.921875 21.130208 51.03125 C 19.791667 52.03125 19.020833 53.5625 19.020833 55.239583 C 19.020833 57.119792 20.03125 58.817708 21.567708 59.739583 C 21.260417 59.890625 20.958333 60.0625 20.682292 60.270833 C 19.338542 61.270833 18.567708 62.802083 18.567708 64.479167 C 18.567708 66.828125 20.151042 68.901042 22.411458 69.53125 L 51.520833 77.729167 C 51.588542 77.75 51.671875 77.760417 51.75 77.760417 C 51.921875 77.760417 52.078125 77.708333 52.21875 77.619792 L 81.078125 58.140625 C 81.28125 58 81.411458 57.791667 81.4375 57.552083 C 81.458333 57.302083 81.390625 57.052083 81.229167 56.869792 Z M 51.708333 23.989583 L 78.161458 30.958333 L 51.708333 49.171875 L 25.770833 41.208333 C 25.671875 41.182292 25.567708 41.161458 25.46875 41.140625 Z M 22.140625 43.380208 C 23.052083 42.697917 24.197917 42.5 25.28125 42.817708 L 51.609375 50.901042 C 51.859375 50.979167 52.119792 50.9375 52.338542 50.791667 L 76.739583 33.989583 C 76.682292 34.229167 76.630208 34.479167 76.588542 34.739583 C 76.369792 36.458333 76.958333 38.1875 78.3125 39.869792 L 51.708333 58.182292 L 31.8125 52.067708 C 31.75 52.041667 31.6875 52.010417 31.630208 51.989583 L 30.802083 51.760417 L 25.770833 50.21875 C 25.359375 50.098958 24.947917 50.03125 24.541667 50 L 23.3125 49.661458 C 21.78125 49.239583 20.697917 47.828125 20.697917 46.229167 C 20.708333 45.098958 21.229167 44.0625 22.140625 43.380208 Z M 22.140625 52.390625 C 22.78125 51.921875 23.53125 51.682292 24.302083 51.6875 L 30.348958 53.390625 L 51.598958 59.911458 C 51.848958 59.989583 52.109375 59.947917 52.328125 59.802083 L 76.729167 43 C 76.671875 43.239583 76.619792 43.489583 76.578125 43.75 C 76.359375 45.447917 76.932292 47.161458 78.25 48.817708 L 51.25 67.421875 L 28.302083 60.369792 L 23.3125 58.661458 C 21.78125 58.229167 20.697917 56.828125 20.697917 55.229167 C 20.708333 54.109375 21.229167 53.067708 22.140625 52.390625 Z M 51.588542 76 L 22.848958 67.901042 C 21.317708 67.46875 20.239583 66.067708 20.239583 64.46875 C 20.239583 63.338542 20.760417 62.302083 21.671875 61.619792 C 22.302083 61.151042 23.03125 60.911458 23.78125 60.911458 C 24.119792 60.911458 24.46875 60.958333 24.8125 61.0625 L 27.770833 61.96875 L 27.947917 62.03125 C 27.96875 62.041667 27.979167 62.03125 28 62.041667 L 51.140625 69.140625 C 51.390625 69.21875 51.651042 69.182292 51.869792 69.03125 L 77.4375 51.421875 C 77.421875 51.5625 77.401042 51.708333 77.390625 51.859375 C 77.260417 53.598958 77.921875 55.411458 79.348958 57.239583 Z M 51.588542 76 " transform="matrix(0.75,0,0,0.75,0,0)"/>
<path style="fill-rule:nonzero;fill:rgb(100%,100%,100%);fill-opacity:1;stroke-width:0.8143;stroke-linecap:round;stroke-linejoin:round;stroke:rgb(100%,100%,100%);stroke-opacity:1;stroke-miterlimit:10;" d="M 45.958333 32.989583 L 62.088542 37.630208 C 62.171875 37.651042 62.25 37.661458 62.317708 37.661458 C 62.479167 37.661458 62.651042 37.609375 62.791667 37.520833 L 69.53125 33.0625 C 69.802083 32.880208 69.947917 32.552083 69.901042 32.229167 C 69.848958 31.901042 69.619792 31.640625 69.302083 31.552083 L 53.25 26.911458 C 53.010417 26.838542 52.760417 26.880208 52.552083 27.010417 L 45.729167 31.46875 C 45.447917 31.651042 45.3125 31.979167 45.359375 32.302083 C 45.411458 32.630208 45.651042 32.890625 45.958333 32.989583 Z M 53.151042 28.640625 L 67.078125 32.671875 L 62.182292 35.911458 L 48.197917 31.869792 Z M 53.151042 28.640625 " transform="matrix(0.75,0,0,0.75,0,0)"/>
</g>
</svg>
