<?xml version="1.0" encoding="UTF-8"?>
<svg xmlns="http://www.w3.org/2000/svg" xmlns:xlink="http://www.w3.org/1999/xlink" width="75pt" height="75pt" viewBox="0 0 75 75" version="1.1">
<defs>
<filter id="alpha" filterUnits="objectBoundingBox" x="0%" y="0%" width="100%" height="100%">
  <feColorMatrix type="matrix" in="SourceGraphic" values="0 0 0 0 1 0 0 0 0 1 0 0 0 0 1 0 0 0 1 0"/>
</filter>
<mask id="mask0">
  <g filter="url(#alpha)">
<rect x="0" y="0" width="75" height="75" style="fill:rgb(0%,0%,0%);fill-opacity:0.301961;stroke:none;"/>
  </g>
</mask>
<clipPath id="clip1">
  <rect width="75" height="75"/>
</clipPath>
<g id="surface6" clip-path="url(#clip1)">
<path style=" stroke:none;fill-rule:nonzero;fill:rgb(11.764706%,11.764706%,10.980392%);fill-opacity:1;" d="M 46.230469 11.941406 L 44.953125 13.027344 C 46.078125 14.296875 46.566406 16.042969 46.460938 17.746094 C 46.46875 17.765625 46.476562 17.789062 46.484375 17.804688 C 47.871094 22.703125 48.246094 27.808594 47.722656 32.863281 C 47.558594 34.453125 46.957031 35.925781 45.984375 37.027344 C 45.59375 38.199219 45.136719 39.34375 44.664062 40.5 C 44.574219 41.761719 44.378906 43.011719 44.257812 44.273438 C 44.199219 44.871094 42.308594 45.78125 42.148438 46.304688 L 44.664062 46.304688 L 44.664062 46.410156 L 45.375 46.410156 L 45.375 47.683594 L 46.34375 47.683594 L 46.34375 49.363281 L 47.917969 49.363281 L 47.917969 51.246094 L 48.832031 51.246094 L 50.609375 52.265625 L 50.714844 52.265625 L 50.714844 53.4375 L 50.609375 53.4375 L 50.609375 54.710938 L 49.648438 54.710938 L 49.648438 55.371094 L 44.609375 55.371094 L 44.609375 54.351562 L 41.78125 54.351562 C 40.3125 56.199219 37.761719 57.121094 35.300781 56.578125 C 36.929688 56.941406 34.273438 56.828125 33.800781 56.796875 C 32.773438 56.730469 31.867188 56.675781 30.90625 56.273438 C 29.730469 55.777344 28.84375 54.953125 28.050781 54.023438 C 26.753906 53.714844 25.738281 53.015625 25.027344 52.109375 L 24.15625 53.871094 L 42.097656 71.8125 C 42.601562 71.746094 43.101562 71.671875 43.605469 71.578125 C 43.613281 71.578125 43.628906 71.578125 43.636719 71.574219 C 44.128906 71.484375 44.617188 71.386719 45.113281 71.28125 C 45.128906 71.28125 45.140625 71.273438 45.15625 71.265625 C 45.628906 71.160156 46.101562 71.039062 46.574219 70.921875 C 46.65625 70.898438 46.734375 70.875 46.816406 70.851562 C 47.203125 70.746094 47.59375 70.636719 47.984375 70.507812 C 61.882812 66.097656 71.976562 53.152344 72.121094 37.828125 Z M 46.230469 11.941406 "/>
</g>
</defs>
<g id="surface1">
<path style=" stroke:none;fill-rule:nonzero;fill:rgb(10.980392%,45.098039%,66.666667%);fill-opacity:1;" d="M 72.128906 37.5 C 72.128906 56.625 56.625 72.128906 37.5 72.128906 C 18.375 72.128906 2.871094 56.625 2.871094 37.5 C 2.871094 18.375 18.375 2.871094 37.5 2.871094 C 56.625 2.871094 72.128906 18.375 72.128906 37.5 Z M 72.128906 37.5 "/>
<path style=" stroke:none;fill-rule:nonzero;fill:rgb(100%,100%,100%);fill-opacity:1;" d="M 37.5 2.871094 C 56.625 2.871094 72.128906 18.375 72.128906 37.5 C 72.128906 56.625 56.625 72.128906 37.5 72.128906 C 18.375 72.128906 2.871094 56.625 2.871094 37.5 C 2.871094 18.375 18.375 2.871094 37.5 2.871094 M 37.5 0 C 16.824219 0 0 16.824219 0 37.5 C 0 58.175781 16.824219 75 37.5 75 C 58.175781 75 75 58.175781 75 37.5 C 75 16.824219 58.175781 0 37.5 0 Z M 37.5 0 "/>
<use xlink:href="#surface6" mask="url(#mask0)"/>
<path style="fill-rule:nonzero;fill:rgb(100%,100%,100%);fill-opacity:1;stroke-width:0.4072;stroke-linecap:butt;stroke-linejoin:miter;stroke:rgb(100%,100%,100%);stroke-opacity:1;stroke-miterlimit:10;" d="M 66.380208 40.020833 C 66.411458 39.880208 66.421875 39.739583 66.401042 39.598958 L 63.552083 19.578125 C 63.541667 19.3125 63.5 19.041667 63.432292 18.78125 C 63.432292 18.760417 63.421875 18.739583 63.411458 18.708333 C 63.052083 17.390625 62.0625 16.338542 60.770833 15.911458 C 59.4375 15.46875 58 15.729167 56.911458 16.630208 C 56.869792 16.661458 56.838542 16.682292 56.8125 16.71875 C 56.671875 16.848958 56.541667 16.96875 56.432292 17.098958 L 42.46875 30.921875 C 41.71875 31.541667 41.21875 32.239583 40.947917 33.041667 L 34.880208 51.21875 L 24.197917 54.598958 C 24.119792 54.619792 24.052083 54.661458 23.989583 54.708333 C 22.848958 55.078125 21.958333 55.947917 21.578125 57.098958 C 20.932292 59.052083 21.958333 61.161458 23.890625 61.859375 C 23.932292 61.880208 23.96875 61.901042 24.010417 61.911458 L 30.578125 64.098958 L 29.979167 65.901042 C 29.140625 68.411458 30.510417 71.140625 33.020833 71.979167 L 35.161458 72.697917 L 35.161458 73.0625 C 35.151042 73.567708 35.479167 74.020833 35.958333 74.182292 L 45.348958 77.3125 C 45.828125 77.46875 46.359375 77.302083 46.671875 76.890625 L 46.880208 76.598958 L 49.098958 77.338542 C 50.317708 77.75 51.619792 77.661458 52.770833 77.078125 C 53.921875 76.510417 54.770833 75.520833 55.182292 74.302083 L 55.661458 72.869792 L 62.3125 75.088542 C 62.369792 75.109375 62.421875 75.119792 62.479167 75.130208 C 62.541667 75.161458 62.588542 75.182292 62.651042 75.197917 C 63.609375 75.520833 64.630208 75.447917 65.53125 74.989583 C 66.432292 74.541667 67.109375 73.760417 67.432292 72.802083 C 67.880208 71.458333 67.541667 70.010417 66.578125 69 C 66.5625 68.958333 66.541667 68.911458 66.510417 68.880208 L 60.010417 59.791667 L 66.130208 41.447917 C 66.302083 41 66.380208 40.53125 66.380208 40.020833 Z M 24.671875 60.46875 C 24.630208 60.447917 24.578125 60.421875 24.541667 60.411458 C 24.5 60.401042 24.458333 60.380208 24.411458 60.380208 C 23.291667 59.96875 22.6875 58.729167 23.067708 57.588542 C 23.3125 56.869792 23.901042 56.328125 24.640625 56.151042 C 24.739583 56.119792 24.838542 56.078125 24.921875 56.020833 L 34.270833 53.067708 L 31.078125 62.609375 Z M 65.067708 69.552083 C 65.109375 69.697917 65.1875 69.838542 65.3125 69.947917 C 65.979167 70.541667 66.229167 71.46875 65.947917 72.317708 C 65.760417 72.880208 65.369792 73.338542 64.838542 73.598958 C 64.3125 73.859375 63.708333 73.911458 63.151042 73.71875 C 63.109375 73.708333 63.067708 73.6875 63.03125 73.661458 L 62.901042 73.598958 C 62.78125 73.552083 62.661458 73.520833 62.541667 73.53125 L 56.270833 71.4375 L 59.5 61.770833 Z M 64.03125 39.8125 C 64.052083 40.151042 64.010417 40.4375 63.921875 40.708333 L 52.958333 73.5625 C 52.75 74.182292 52.317708 74.682292 51.729167 74.979167 C 51.510417 75.088542 51.28125 75.171875 51.041667 75.208333 C 50.802083 75.25 50.5625 75.260417 50.317708 75.21875 C 50.161458 75.197917 50 75.161458 49.848958 75.109375 L 46.817708 74.098958 C 46.520833 74 46.1875 74.03125 45.921875 74.161458 C 45.760417 74.239583 45.609375 74.359375 45.5 74.510417 L 45.291667 74.802083 L 37.520833 72.208333 L 37.520833 71.848958 C 37.53125 71.338542 37.197917 70.890625 36.71875 70.729167 L 33.770833 69.739583 C 32.479167 69.3125 31.78125 67.921875 32.208333 66.630208 L 43.171875 33.78125 C 43.302083 33.390625 43.5625 33.052083 43.989583 32.697917 C 44.020833 32.671875 44.052083 32.651042 44.078125 32.619792 L 58.098958 18.729167 C 58.119792 18.708333 58.140625 18.682292 58.161458 18.661458 C 58.208333 18.598958 58.260417 18.552083 58.317708 18.5 C 58.338542 18.489583 58.348958 18.479167 58.369792 18.458333 C 58.838542 18.067708 59.447917 17.947917 60.020833 18.140625 C 60.552083 18.317708 60.96875 18.75 61.130208 19.291667 C 61.130208 19.302083 61.140625 19.317708 61.140625 19.328125 C 61.182292 19.458333 61.197917 19.588542 61.197917 19.729167 C 61.197917 19.770833 61.208333 19.817708 61.208333 19.859375 L 64.03125 39.661458 C 64.020833 39.697917 64.020833 39.75 64.03125 39.8125 Z M 64.03125 39.8125 " transform="matrix(0.75,0,0,0.75,0,0)"/>
<path style="fill-rule:nonzero;fill:rgb(100%,100%,100%);fill-opacity:1;stroke-width:0.4072;stroke-linecap:butt;stroke-linejoin:miter;stroke:rgb(100%,100%,100%);stroke-opacity:1;stroke-miterlimit:10;" d="M 46.260417 53.578125 C 45.182292 53.21875 44.020833 53.302083 43 53.8125 C 41.979167 54.317708 41.21875 55.197917 40.859375 56.270833 L 38.520833 63.291667 C 37.770833 65.520833 38.979167 67.947917 41.21875 68.6875 L 44.53125 69.791667 C 45.609375 70.151042 46.770833 70.067708 47.791667 69.5625 C 48.8125 69.052083 49.567708 68.171875 49.932292 67.088542 L 52.270833 60.067708 C 52.630208 58.989583 52.552083 57.828125 52.041667 56.8125 C 51.53125 55.791667 50.651042 55.03125 49.567708 54.671875 Z M 50.041667 59.348958 L 47.697917 66.369792 C 47.541667 66.859375 47.197917 67.25 46.739583 67.479167 C 46.28125 67.708333 45.760417 67.75 45.270833 67.578125 L 41.958333 66.479167 C 40.947917 66.140625 40.411458 65.052083 40.739583 64.052083 L 43.078125 57.03125 C 43.239583 56.552083 43.578125 56.151042 44.041667 55.921875 C 44.5 55.6875 45.020833 55.651042 45.510417 55.817708 L 48.817708 56.921875 C 49.3125 57.078125 49.697917 57.432292 49.932292 57.890625 C 50.171875 58.338542 50.197917 58.859375 50.041667 59.348958 Z M 50.041667 59.348958 " transform="matrix(0.75,0,0,0.75,0,0)"/>
<path style="fill-rule:nonzero;fill:rgb(100%,100%,100%);fill-opacity:1;stroke-width:0.4072;stroke-linecap:butt;stroke-linejoin:miter;stroke:rgb(100%,100%,100%);stroke-opacity:1;stroke-miterlimit:10;" d="M 51.890625 36.010417 C 50.802083 35.979167 49.697917 36.21875 48.697917 36.71875 C 47.088542 37.520833 45.890625 38.911458 45.317708 40.619792 C 44.75 42.328125 44.880208 44.161458 45.682292 45.770833 C 46.479167 47.380208 47.869792 48.578125 49.578125 49.151042 C 51.291667 49.71875 53.109375 49.588542 54.729167 48.78125 C 56.338542 47.979167 57.541667 46.588542 58.109375 44.880208 C 58.682292 43.171875 58.552083 41.338542 57.75 39.729167 C 56.947917 38.119792 55.5625 36.921875 53.848958 36.348958 C 53.197917 36.151042 52.552083 36.03125 51.890625 36.010417 Z M 55.880208 44.151042 C 55.510417 45.270833 54.729167 46.171875 53.671875 46.6875 C 52.619792 47.208333 51.432292 47.302083 50.317708 46.932292 C 49.197917 46.5625 48.302083 45.770833 47.78125 44.71875 C 47.260417 43.671875 47.171875 42.479167 47.541667 41.359375 C 47.911458 40.25 48.6875 39.338542 49.739583 38.817708 C 50.791667 38.302083 51.979167 38.208333 53.098958 38.578125 C 54.208333 38.947917 55.119792 39.739583 55.640625 40.78125 C 56.171875 41.838542 56.25 43.041667 55.880208 44.151042 Z M 55.880208 44.151042 " transform="matrix(0.75,0,0,0.75,0,0)"/>
</g>
</svg>
