<?xml version="1.0" encoding="UTF-8"?>
<svg xmlns="http://www.w3.org/2000/svg" xmlns:xlink="http://www.w3.org/1999/xlink" width="75pt" height="75pt" viewBox="0 0 75 75" version="1.1">
<defs>
<filter id="alpha" filterUnits="objectBoundingBox" x="0%" y="0%" width="100%" height="100%">
  <feColorMatrix type="matrix" in="SourceGraphic" values="0 0 0 0 1 0 0 0 0 1 0 0 0 0 1 0 0 0 1 0"/>
</filter>
<mask id="mask0">
  <g filter="url(#alpha)">
<rect x="0" y="0" width="75" height="75" style="fill:rgb(0%,0%,0%);fill-opacity:0.301961;stroke:none;"/>
  </g>
</mask>
<clipPath id="clip1">
  <rect width="75" height="75"/>
</clipPath>
<g id="surface6" clip-path="url(#clip1)">
<path style=" stroke:none;fill-rule:nonzero;fill:rgb(11.764706%,11.764706%,10.980392%);fill-opacity:1;" d="M 52.019531 21.496094 L 50.445312 23.0625 C 51.34375 23.699219 51.988281 24.683594 52.171875 25.996094 C 53.78125 26.386719 55.289062 27.488281 56.023438 29.289062 C 56.675781 30.90625 57.269531 32.484375 57.636719 34.191406 C 58.09375 36.324219 57.285156 38.023438 55.964844 39.113281 C 57.113281 40.359375 57.628906 42.316406 57.140625 43.859375 C 56.617188 45.515625 55.949219 46.515625 55.003906 47.273438 C 55.09375 48.007812 55.265625 49.101562 55.273438 49.433594 C 55.335938 52.238281 52.734375 54.351562 50.160156 54.414062 C 49.613281 54.976562 48.824219 55.453125 48.113281 55.746094 C 46.289062 56.503906 44.121094 56.167969 42.480469 55.140625 C 38.421875 52.597656 39.699219 47.773438 40.117188 43.777344 C 40.125 43.679688 40.164062 43.597656 40.171875 43.5 C 39.90625 43.199219 39.691406 42.855469 39.503906 42.488281 L 40.769531 44.09375 C 40.378906 38.84375 40.875 33.585938 39.734375 28.328125 C 39.328125 26.460938 39.90625 24.914062 40.941406 23.835938 L 35.144531 18.039062 L 33.984375 19.199219 C 34.859375 19.835938 35.558594 20.902344 35.835938 21.898438 C 36.050781 22.6875 36.058594 23.699219 35.820312 24.59375 C 35.8125 24.929688 35.773438 25.265625 35.707031 25.597656 C 35.175781 28.28125 35.109375 30.878906 35.894531 33.515625 C 36.351562 35.039062 36.105469 36.34375 35.445312 37.359375 L 35.714844 37.703125 C 35.78125 38.070312 35.835938 38.453125 35.820312 38.871094 C 35.765625 40.753906 35.421875 42.613281 35.332031 44.496094 C 35.265625 45.914062 35.300781 47.332031 35.25 48.742188 C 36.75 51.691406 35.347656 56.203125 31.035156 56.203125 C 29.234375 56.203125 27.945312 55.425781 27.15625 54.292969 C 26.960938 54.148438 26.765625 54 26.59375 53.835938 C 26.378906 53.863281 26.160156 53.902344 25.941406 53.902344 L 25.816406 53.902344 C 24.464844 53.902344 23.273438 53.339844 22.296875 52.449219 C 22.042969 52.214844 21.832031 51.945312 21.644531 51.660156 L 20.40625 52.890625 L 39.578125 72.058594 C 56.429688 71.054688 70.035156 57.996094 71.886719 41.386719 Z M 52.019531 21.496094 "/>
</g>
</defs>
<g id="surface1">
<path style=" stroke:none;fill-rule:nonzero;fill:rgb(10.980392%,45.098039%,66.666667%);fill-opacity:1;" d="M 72.128906 37.5 C 72.128906 56.625 56.625 72.128906 37.5 72.128906 C 18.375 72.128906 2.871094 56.625 2.871094 37.5 C 2.871094 18.375 18.375 2.871094 37.5 2.871094 C 56.625 2.871094 72.128906 18.375 72.128906 37.5 Z M 72.128906 37.5 "/>
<path style=" stroke:none;fill-rule:nonzero;fill:rgb(100%,100%,100%);fill-opacity:1;" d="M 37.5 2.871094 C 56.625 2.871094 72.128906 18.375 72.128906 37.5 C 72.128906 56.625 56.625 72.128906 37.5 72.128906 C 18.375 72.128906 2.871094 56.625 2.871094 37.5 C 2.871094 18.375 18.375 2.871094 37.5 2.871094 M 37.5 0 C 16.824219 0 0 16.824219 0 37.5 C 0 58.175781 16.824219 75 37.5 75 C 58.175781 75 75 58.175781 75 37.5 C 75 16.824219 58.175781 0 37.5 0 Z M 37.5 0 "/>
<use xlink:href="#surface6" mask="url(#mask0)"/>
<path style="fill-rule:nonzero;fill:rgb(100%,100%,100%);fill-opacity:1;stroke-width:1.2215;stroke-linecap:round;stroke-linejoin:round;stroke:rgb(100%,100%,100%);stroke-opacity:1;stroke-miterlimit:10;" d="M 64.598958 27.78125 C 68.328125 27.598958 71.098958 29.958333 70.947917 34.302083 C 73.510417 34.979167 75.317708 36.520833 75.552083 39.291667 C 75.651042 40.489583 76 41.348958 76.75 42.270833 C 78.71875 44.6875 78.760417 48.1875 77.03125 50.802083 C 76.78125 51.171875 76.5 51.53125 76.197917 51.947917 C 78.020833 54.328125 78.838542 57.010417 77.869792 59.869792 C 77.348958 61.401042 76.161458 62.6875 75.328125 64.119792 C 75.052083 64.609375 74.708333 65.208333 74.760417 65.71875 C 75.182292 69.817708 72.140625 73.260417 68 73.21875 C 67.239583 73.208333 66.697917 73.270833 66.171875 73.979167 C 64.229167 76.588542 60.9375 77.552083 57.901042 76.541667 C 54.890625 75.541667 52.838542 72.802083 52.802083 69.520833 C 52.739583 64.880208 52.78125 60.239583 52.78125 55.598958 C 52.78125 46.817708 52.760417 38.052083 52.791667 29.270833 C 52.8125 25.03125 56.338542 22.229167 60.270833 23.260417 C 62.151042 23.760417 63.21875 24.869792 64.598958 27.78125 Z M 74.552083 53.03125 C 74.28125 53.130208 74 53.25 73.708333 53.359375 C 70.869792 54.4375 68.25 54.0625 65.9375 52.078125 C 64.338542 50.71875 63.489583 48.921875 63.458333 46.817708 C 63.447917 46.432292 63.989583 46.041667 64.270833 45.640625 C 64.588542 45.958333 64.932292 46.25 65.197917 46.598958 C 65.317708 46.760417 65.270833 47.041667 65.302083 47.270833 C 65.651042 49.817708 67.541667 51.71875 70.130208 52.119792 C 72.411458 52.46875 74.911458 51.078125 75.932292 48.890625 C 76.979167 46.651042 76.458333 44.1875 74.489583 42.46875 C 73.838542 41.911458 73.567708 41.421875 73.729167 40.5 C 74.130208 38.171875 72.567708 36.25 70.197917 36.130208 C 68.96875 36.067708 68.729167 35.53125 68.9375 34.46875 C 69.4375 32.010417 68.25 30.088542 65.989583 29.640625 C 64 29.239583 62.229167 30.71875 61.697917 33.067708 C 61.598958 33.5 61.041667 33.828125 60.682292 34.208333 C 60.421875 33.760417 59.921875 33.291667 59.947917 32.848958 C 60.041667 31.338542 60.6875 30.010417 61.932292 29.119792 C 62.770833 28.520833 62.78125 27.921875 62.317708 27.171875 C 62.0625 26.75 61.791667 26.3125 61.4375 25.979167 C 60.1875 24.8125 58.697917 24.53125 57.140625 25.1875 C 55.479167 25.890625 54.609375 27.208333 54.609375 29.041667 C 54.609375 34.588542 54.609375 40.140625 54.609375 45.6875 C 54.609375 53.609375 54.588542 61.53125 54.619792 69.4375 C 54.630208 72.109375 56.260417 74.1875 58.739583 74.901042 C 61.088542 75.567708 63.682292 74.708333 64.921875 72.588542 C 65.598958 71.4375 66.229167 71.078125 67.588542 71.302083 C 70.239583 71.71875 72.619792 69.78125 72.9375 67.21875 C 73.270833 64.567708 71.458333 62.171875 68.78125 61.708333 C 68.421875 61.651042 68.010417 61.671875 67.71875 61.5 C 67.458333 61.348958 67.130208 60.9375 67.171875 60.708333 C 67.229167 60.390625 67.5625 59.958333 67.859375 59.890625 C 68.317708 59.78125 68.848958 59.880208 69.338542 59.96875 C 71.21875 60.317708 72.609375 61.4375 73.739583 62.901042 C 76.989583 60.552083 77.348958 55.947917 74.552083 53.03125 Z M 74.552083 53.03125 " transform="matrix(0.75,0,0,0.75,0,0)"/>
<path style="fill-rule:nonzero;fill:rgb(100%,100%,100%);fill-opacity:1;stroke-width:1.2215;stroke-linecap:round;stroke-linejoin:round;stroke:rgb(100%,100%,100%);stroke-opacity:1;stroke-miterlimit:10;" d="M 25.151042 51.890625 C 22.28125 48.208333 22.359375 44.859375 25.338542 41.359375 C 25.53125 41.140625 25.760417 40.817708 25.739583 40.5625 C 25.5625 37.182292 27.28125 35.208333 30.359375 34.28125 C 30.25 30.369792 32.588542 27.651042 36.817708 27.770833 C 37.598958 25.21875 39.1875 23.46875 41.989583 23.088542 C 45.067708 22.671875 48.041667 24.921875 48.458333 27.989583 C 48.53125 28.479167 48.552083 28.989583 48.552083 29.489583 C 48.552083 42.682292 48.567708 55.880208 48.552083 69.067708 C 48.541667 74.588542 43.640625 78.302083 38.682292 76.447917 C 37.348958 75.947917 36.291667 74.75 35.078125 73.901042 C 34.682292 73.619792 34.229167 73.239583 33.791667 73.239583 C 29.041667 73.197917 26.239583 70.109375 26.661458 65.3125 C 26.6875 65.010417 26.5625 64.609375 26.359375 64.401042 C 22.421875 60.270833 22.0625 56.729167 25.151042 51.890625 Z M 27.520833 62.901042 C 29.5625 60.71875 31.302083 59.729167 33.119792 59.869792 C 33.520833 59.901042 33.890625 60.390625 34.270833 60.661458 C 33.947917 60.96875 33.6875 61.390625 33.3125 61.552083 C 32.78125 61.78125 32.151042 61.760417 31.598958 61.958333 C 29.208333 62.838542 27.921875 65.328125 28.53125 67.802083 C 29.119792 70.197917 31.46875 71.75 34.078125 71.291667 C 35.171875 71.098958 35.708333 71.338542 36.25 72.302083 C 36.671875 73.0625 37.369792 73.760417 38.109375 74.239583 C 39.932292 75.432292 41.890625 75.489583 43.802083 74.432292 C 45.802083 73.317708 46.78125 71.5625 46.78125 69.270833 C 46.78125 55.9375 46.78125 42.609375 46.78125 29.28125 C 46.78125 29.052083 46.791667 28.817708 46.770833 28.598958 C 46.588542 26.791667 45.161458 25.229167 43.421875 24.9375 C 41.552083 24.619792 39.708333 25.609375 38.947917 27.328125 C 38.661458 28 38.71875 28.421875 39.302083 29.067708 C 40.1875 30.078125 40.791667 31.369792 41.348958 32.619792 C 41.598958 33.1875 41.661458 34.088542 40.661458 34.21875 C 39.75 34.338542 39.760417 33.598958 39.640625 32.947917 C 39.130208 30.109375 36.28125 28.729167 33.989583 30.21875 C 32.421875 31.239583 32.010417 32.75 32.411458 34.510417 C 32.640625 35.5 32.458333 36.052083 31.28125 36.140625 C 28.6875 36.328125 27.359375 38.098958 27.619792 40.6875 C 27.671875 41.208333 27.411458 41.9375 27.03125 42.302083 C 24.947917 44.291667 24.359375 46.588542 25.46875 48.932292 C 26.5 51.119792 29 52.489583 31.291667 52.119792 C 33.958333 51.682292 35.78125 49.697917 36.182292 46.96875 C 36.25 46.489583 36.8125 46.078125 37.151042 45.640625 C 37.411458 46.130208 37.911458 46.651042 37.880208 47.119792 C 37.630208 51.098958 34.260417 54.109375 30.28125 53.890625 C 29.088542 53.817708 27.911458 53.411458 26.682292 53.151042 C 24.052083 56.020833 24.359375 60.291667 27.520833 62.901042 Z M 27.520833 62.901042 " transform="matrix(0.75,0,0,0.75,0,0)"/>
</g>
</svg>
