<?xml version="1.0" encoding="UTF-8"?>
<svg xmlns="http://www.w3.org/2000/svg" xmlns:xlink="http://www.w3.org/1999/xlink" width="75pt" height="75pt" viewBox="0 0 75 75" version="1.1">
<defs>
<filter id="alpha" filterUnits="objectBoundingBox" x="0%" y="0%" width="100%" height="100%">
  <feColorMatrix type="matrix" in="SourceGraphic" values="0 0 0 0 1 0 0 0 0 1 0 0 0 0 1 0 0 0 1 0"/>
</filter>
<mask id="mask0">
  <g filter="url(#alpha)">
<rect x="0" y="0" width="75" height="75" style="fill:rgb(0%,0%,0%);fill-opacity:0.301961;stroke:none;"/>
  </g>
</mask>
<clipPath id="clip1">
  <rect width="75" height="75"/>
</clipPath>
<g id="surface6" clip-path="url(#clip1)">
<path style=" stroke:none;fill-rule:nonzero;fill:rgb(11.764706%,11.764706%,10.980392%);fill-opacity:1;" d="M 64.3125 31.042969 L 61.824219 31.175781 C 61.335938 32.113281 60.503906 32.953125 59.25 33.5625 C 56.683594 34.808594 54.128906 36.136719 51.546875 37.410156 C 51.5625 37.925781 51.546875 38.445312 51.472656 38.96875 C 51.15625 41.136719 51.382812 43.378906 52.078125 45.496094 C 53.632812 50.160156 48.855469 53.941406 44.566406 53.011719 C 40.84375 52.199219 37.507812 52.867188 33.773438 52.824219 C 33.316406 52.816406 32.886719 52.769531 32.484375 52.6875 C 31.867188 52.898438 31.175781 53.023438 30.414062 53.023438 C 24.59375 53.023438 23.085938 46.351562 25.875 42.871094 C 25.882812 42.765625 25.890625 42.667969 25.890625 42.5625 C 25.921875 41.363281 25.84375 40.171875 25.835938 38.976562 C 25.835938 38.578125 25.875 38.199219 25.949219 37.828125 C 24.285156 37.484375 23.039062 36.5625 22.214844 35.371094 C 21.21875 35.265625 20.378906 34.941406 19.671875 34.476562 L 18.789062 37.425781 C 18.914062 37.734375 19.019531 38.046875 19.101562 38.371094 L 19.230469 38.371094 L 19.230469 39.105469 C 19.3125 39.71875 19.3125 40.34375 19.230469 40.957031 L 19.230469 48.441406 L 15.585938 48.441406 L 39.21875 72.074219 C 57.105469 71.203125 71.421875 56.753906 72.097656 38.8125 Z M 64.3125 31.042969 "/>
</g>
</defs>
<g id="surface1">
<path style=" stroke:none;fill-rule:nonzero;fill:rgb(10.980392%,45.098039%,66.666667%);fill-opacity:1;" d="M 72.128906 37.5 C 72.128906 56.625 56.625 72.128906 37.5 72.128906 C 18.375 72.128906 2.871094 56.625 2.871094 37.5 C 2.871094 18.375 18.375 2.871094 37.5 2.871094 C 56.625 2.871094 72.128906 18.375 72.128906 37.5 Z M 72.128906 37.5 "/>
<path style=" stroke:none;fill-rule:nonzero;fill:rgb(100%,100%,100%);fill-opacity:1;" d="M 37.5 2.871094 C 56.625 2.871094 72.128906 18.375 72.128906 37.5 C 72.128906 56.625 56.625 72.128906 37.5 72.128906 C 18.375 72.128906 2.871094 56.625 2.871094 37.5 C 2.871094 18.375 18.375 2.871094 37.5 2.871094 M 37.5 0 C 16.824219 0 0 16.824219 0 37.5 C 0 58.175781 16.824219 75 37.5 75 C 58.175781 75 75 58.175781 75 37.5 C 75 16.824219 58.175781 0 37.5 0 Z M 37.5 0 "/>
<use xlink:href="#surface6" mask="url(#mask0)"/>
<path style="fill-rule:nonzero;fill:rgb(100%,100%,100%);fill-opacity:1;stroke-width:0.4072;stroke-linecap:butt;stroke-linejoin:miter;stroke:rgb(100%,100%,100%);stroke-opacity:1;stroke-miterlimit:10;" d="M 23.838542 51.697917 C 22.520833 51.979167 21.53125 53.151042 21.53125 54.552083 C 21.53125 55.197917 21.739583 55.8125 22.119792 56.3125 L 20.901042 63.520833 C 20.848958 63.828125 20.932292 64.140625 21.140625 64.380208 C 21.338542 64.619792 21.640625 64.760417 21.947917 64.760417 L 26.932292 64.760417 C 27.239583 64.760417 27.53125 64.630208 27.729167 64.401042 C 27.932292 64.171875 28.020833 63.859375 27.979167 63.5625 L 26.9375 56.052083 C 27.208333 55.598958 27.348958 55.088542 27.348958 54.5625 C 27.348958 53.510417 26.791667 52.588542 25.947917 52.078125 L 25.947917 48.182292 L 32.510417 51.03125 L 32.510417 67.328125 C 32.510417 69.338542 34.140625 70.96875 36.151042 70.96875 L 66.098958 70.96875 C 68.109375 70.96875 69.739583 69.338542 69.739583 67.328125 L 69.739583 50.010417 L 85.380208 43.229167 C 85.78125 43.0625 86.041667 42.651042 86.020833 42.208333 C 86 41.770833 85.71875 41.390625 85.302083 41.25 L 49.760417 29.109375 C 49.53125 29.03125 49.270833 29.03125 49.041667 29.119792 C 36.859375 33.729167 16.869792 41.078125 15.010417 41.1875 C 14.510417 41.1875 14.078125 41.552083 13.979167 42.041667 C 13.880208 42.53125 14.140625 43.03125 14.598958 43.229167 L 23.838542 47.239583 Z M 23.208333 62.630208 L 24.302083 56.151042 C 24.359375 55.78125 24.21875 55.401042 23.932292 55.161458 C 23.75 55.010417 23.651042 54.791667 23.651042 54.552083 C 23.651042 54.109375 24 53.760417 24.4375 53.760417 C 24.880208 53.760417 25.229167 54.109375 25.229167 54.552083 C 25.229167 54.791667 25.119792 54.96875 25.03125 55.067708 C 24.828125 55.302083 24.739583 55.609375 24.78125 55.911458 L 25.708333 62.630208 Z M 67.651042 67.3125 C 67.651042 68.151042 66.96875 68.828125 66.130208 68.828125 L 36.171875 68.828125 C 35.328125 68.828125 34.651042 68.151042 34.651042 67.3125 L 34.651042 51.932292 L 49.578125 58.411458 C 49.71875 58.46875 49.859375 58.5 50 58.5 C 50.140625 58.5 50.291667 58.46875 50.421875 58.411458 L 67.640625 50.9375 L 67.640625 67.3125 Z M 18.239583 42.5 C 25.932292 40.098958 44.390625 33.151042 49.432292 31.25 L 82.041667 42.380208 L 50 56.28125 L 28.838542 47.098958 L 46.708333 44.739583 C 47.489583 45.21875 48.661458 45.510417 50 45.510417 C 52.458333 45.510417 54.317708 44.53125 54.317708 43.229167 C 54.317708 41.932292 52.458333 40.947917 50 40.947917 C 47.880208 40.947917 46.197917 41.682292 45.78125 42.71875 L 25.052083 45.458333 Z M 46.739583 43.229167 C 46.739583 42.729167 48.010417 42.010417 50 42.010417 C 51.989583 42.010417 53.260417 42.729167 53.260417 43.229167 C 53.260417 43.729167 51.989583 44.447917 50 44.447917 C 48.010417 44.447917 46.739583 43.729167 46.739583 43.229167 Z M 46.739583 43.229167 " transform="matrix(0.75,0,0,0.75,0,0)"/>
</g>
</svg>
