<?xml version="1.0" encoding="UTF-8"?>
<svg xmlns="http://www.w3.org/2000/svg" xmlns:xlink="http://www.w3.org/1999/xlink" width="75pt" height="75pt" viewBox="0 0 75 75" version="1.1">
<defs>
<filter id="alpha" filterUnits="objectBoundingBox" x="0%" y="0%" width="100%" height="100%">
  <feColorMatrix type="matrix" in="SourceGraphic" values="0 0 0 0 1 0 0 0 0 1 0 0 0 0 1 0 0 0 1 0"/>
</filter>
<mask id="mask0">
  <g filter="url(#alpha)">
<rect x="0" y="0" width="75" height="75" style="fill:rgb(0%,0%,0%);fill-opacity:0.301961;stroke:none;"/>
  </g>
</mask>
<clipPath id="clip1">
  <rect width="75" height="75"/>
</clipPath>
<g id="surface6" clip-path="url(#clip1)">
<path style=" stroke:none;fill-rule:nonzero;fill:rgb(11.764706%,11.764706%,10.980392%);fill-opacity:1;" d="M 46.453125 20.296875 L 45.234375 21.675781 C 45.441406 22.019531 45.59375 22.402344 45.710938 22.800781 C 49.65625 23.859375 50.054688 29.535156 46.914062 31.523438 C 46.882812 32.128906 46.738281 32.738281 46.453125 33.292969 C 46.988281 33.726562 47.421875 34.3125 47.714844 35.085938 C 47.894531 35.574219 48.089844 36.050781 48.292969 36.53125 C 48.660156 36.382812 49.058594 36.300781 49.460938 36.253906 L 49.460938 29.078125 L 54.398438 29.078125 L 54.398438 37.238281 C 55.363281 38.339844 55.628906 39.996094 55.175781 41.398438 C 55.265625 41.949219 55.246094 42.503906 55.050781 43.019531 C 55.011719 43.125 54.871094 43.949219 54.855469 43.777344 C 54.847656 44.085938 54.855469 44.390625 54.855469 44.699219 C 54.855469 45.644531 54.757812 46.589844 54.554688 47.511719 C 54.773438 47.65625 54.976562 47.8125 55.15625 48 C 55.222656 48.066406 55.265625 48.140625 55.328125 48.21875 C 55.640625 48.390625 55.941406 48.59375 56.21875 48.871094 C 57.675781 50.324219 57.847656 53.109375 56.21875 54.53125 C 54.984375 55.613281 53.550781 56.308594 52.207031 57.226562 C 50.820312 58.175781 49.363281 59.011719 47.933594 59.894531 C 45.539062 61.371094 42.953125 59.820312 42.050781 57.503906 C 41.78125 56.820312 41.453125 55.914062 41.378906 54.953125 C 40.972656 54.898438 40.574219 54.832031 40.175781 54.757812 C 39.734375 54.675781 39.335938 54.503906 38.984375 54.261719 C 37.558594 55.066406 35.84375 55.148438 34.386719 55.957031 C 34.34375 55.980469 34.296875 56.003906 34.253906 56.023438 C 34.546875 58.207031 33.277344 60.644531 30.433594 60.644531 C 28.53125 60.644531 27.328125 59.550781 26.835938 58.171875 C 26.820312 58.140625 26.789062 58.117188 26.773438 58.085938 C 26.640625 58.011719 26.503906 57.945312 26.460938 57.914062 C 25.988281 57.644531 25.53125 57.359375 25.074219 57.082031 C 23.96875 56.414062 23.003906 55.738281 22.265625 54.816406 C 22.066406 54.71875 21.863281 54.609375 21.675781 54.488281 C 21.59375 54.496094 21.511719 54.503906 21.425781 54.503906 C 19.710938 54.503906 18.5625 53.609375 17.992188 52.425781 L 17.210938 53.300781 L 35.738281 72.082031 C 36.324219 72.113281 36.90625 72.128906 37.5 72.128906 C 53.933594 72.128906 67.679688 60.675781 71.226562 45.324219 Z M 46.453125 20.296875 "/>
</g>
</defs>
<g id="surface1">
<path style=" stroke:none;fill-rule:nonzero;fill:rgb(10.980392%,45.098039%,66.666667%);fill-opacity:1;" d="M 72.128906 37.5 C 72.128906 56.625 56.625 72.128906 37.5 72.128906 C 18.375 72.128906 2.871094 56.625 2.871094 37.5 C 2.871094 18.375 18.375 2.871094 37.5 2.871094 C 56.625 2.871094 72.128906 18.375 72.128906 37.5 Z M 72.128906 37.5 "/>
<path style=" stroke:none;fill-rule:nonzero;fill:rgb(100%,100%,100%);fill-opacity:1;" d="M 37.5 2.871094 C 56.625 2.871094 72.128906 18.375 72.128906 37.5 C 72.128906 56.625 56.625 72.128906 37.5 72.128906 C 18.375 72.128906 2.871094 56.625 2.871094 37.5 C 2.871094 18.375 18.375 2.871094 37.5 2.871094 M 37.5 0 C 16.824219 0 0 16.824219 0 37.5 C 0 58.175781 16.824219 75 37.5 75 C 58.175781 75 75 58.175781 75 37.5 C 75 16.824219 58.175781 0 37.5 0 Z M 37.5 0 "/>
<use xlink:href="#surface6" mask="url(#mask0)"/>
<path style=" stroke:none;fill-rule:nonzero;fill:rgb(100%,100%,100%);fill-opacity:1;" d="M 55.792969 47.28125 C 56.601562 45.015625 56.59375 42.621094 56.46875 40.261719 C 56.300781 37.09375 56.039062 33.929688 55.746094 30.773438 C 55.566406 28.753906 54.097656 27.382812 52.289062 27.382812 C 51.628906 27.382812 51.015625 27.578125 50.484375 27.90625 C 51.121094 25.679688 50.273438 24.277344 47.257812 23.199219 C 47.242188 23.191406 47.234375 23.183594 47.234375 23.167969 C 47.296875 21.546875 46.90625 20.558594 45.472656 19.738281 C 44.011719 18.898438 42.585938 18.800781 41.289062 20.46875 C 41.28125 20.484375 40.933594 20.910156 40.925781 20.894531 C 40.734375 19.988281 39.984375 19.417969 39.367188 19.148438 C 38.347656 18.699219 37.402344 18.699219 36.570312 19.132812 C 36.308594 19.199219 36.046875 19.289062 35.773438 19.425781 C 35.175781 19.71875 34.449219 20.316406 34.289062 21.234375 C 34.289062 21.246094 33.929688 20.828125 33.914062 20.820312 C 32.550781 19.199219 31.132812 19.363281 29.707031 20.257812 C 28.304688 21.136719 27.953125 22.140625 28.074219 23.753906 C 28.074219 23.765625 28.066406 23.78125 28.050781 23.789062 C 25.304688 24.890625 24.425781 26.199219 24.878906 28.125 C 24.359375 27.863281 23.78125 27.71875 23.175781 27.742188 C 21.367188 27.808594 19.957031 29.242188 19.851562 31.265625 C 19.6875 34.433594 19.546875 37.605469 19.507812 40.777344 C 19.476562 43.148438 19.558594 45.53125 20.460938 47.765625 L 16.964844 53.378906 L 32.03125 62.398438 L 35.835938 56.28125 C 36.609375 56.070312 37.363281 55.761719 38.101562 55.351562 C 38.96875 55.835938 39.863281 56.191406 40.769531 56.390625 L 44.871094 62.683594 L 59.566406 53.070312 Z M 45.660156 26.363281 C 46.363281 25.183594 47.101562 24.871094 48.023438 25.328125 C 48.996094 25.808594 49.261719 26.574219 48.585938 27.800781 C 48.023438 28.828125 47.4375 29.851562 46.851562 30.863281 C 46.175781 29.828125 45.496094 28.792969 44.820312 27.757812 C 45.097656 27.300781 45.375 26.828125 45.660156 26.363281 Z M 48.609375 31.875 C 48.578125 32.265625 48.546875 32.691406 48.511719 33.195312 C 48.511719 33.226562 48.464844 33.238281 48.449219 33.210938 C 48.238281 32.925781 48.089844 32.722656 47.953125 32.535156 C 48.140625 32.265625 48.351562 32.03125 48.609375 31.875 Z M 42.105469 22.246094 C 42.742188 21.195312 43.5 20.851562 44.332031 21.195312 C 45.449219 21.652344 45.734375 22.703125 45.03125 23.878906 C 44.585938 24.613281 44.144531 25.351562 43.710938 26.078125 C 43.035156 25.042969 42.351562 24 41.671875 22.964844 C 41.8125 22.726562 41.960938 22.484375 42.105469 22.246094 Z M 36.148438 54.261719 C 35.804688 54.382812 35.453125 54.480469 35.078125 54.5625 L 34.101562 56.191406 L 33.871094 56.578125 L 31.605469 60.351562 L 19.164062 52.882812 L 21.261719 49.378906 L 22.304688 47.640625 C 22.171875 47.347656 22.050781 47.054688 21.953125 46.746094 C 21.839844 46.417969 21.75 46.078125 21.675781 45.734375 C 21.53125 45.058594 21.449219 44.363281 21.441406 43.640625 C 21.398438 39.570312 21.515625 35.488281 21.621094 31.410156 C 21.652344 30.300781 22.359375 29.566406 23.226562 29.519531 C 24 29.484375 24.621094 29.886719 24.929688 30.636719 C 24.703125 30.757812 24.496094 30.914062 24.234375 31.207031 C 22.964844 32.632812 22.828125 34.738281 23.84375 36.351562 C 26.796875 41.046875 29.8125 45.710938 32.878906 50.339844 C 33.480469 51.238281 34.148438 52.09375 34.90625 52.867188 C 35.378906 53.355469 35.863281 53.789062 36.359375 54.179688 C 36.292969 54.210938 36.226562 54.238281 36.148438 54.261719 Z M 42.742188 56.617188 L 42.496094 56.234375 L 41.460938 54.652344 C 41.085938 54.585938 40.726562 54.503906 40.378906 54.390625 C 39.953125 54.253906 39.546875 54.097656 39.15625 53.910156 C 37.394531 53.0625 35.976562 51.667969 34.792969 49.949219 C 33.179688 47.625 31.679688 45.21875 30.128906 42.855469 C 28.5 40.371094 26.863281 37.890625 25.261719 35.390625 C 24.984375 34.964844 24.53125 34.335938 24.621094 33.59375 C 24.691406 33.050781 24.976562 32.730469 25.386719 32.445312 C 25.753906 32.191406 26.542969 32.242188 26.992188 32.46875 C 27.480469 32.707031 27.855469 33.261719 28.175781 33.75 C 28.941406 34.890625 29.683594 36.039062 30.433594 37.183594 C 30.800781 37.738281 31.171875 38.300781 31.546875 38.851562 C 31.941406 39.433594 32.699219 41.070312 33.609375 40.433594 C 34.441406 39.847656 33.34375 38.527344 32.992188 38.003906 C 32.625 37.449219 32.257812 36.886719 31.898438 36.324219 C 30.226562 33.703125 28.523438 31.109375 26.917969 28.449219 C 26.191406 27.246094 26.429688 26.46875 27.382812 25.949219 C 28.289062 25.453125 29.03125 25.738281 29.78125 26.886719 C 31.738281 29.863281 33.691406 32.851562 35.640625 35.835938 C 35.917969 36.253906 36.074219 36.601562 36.59375 36.773438 C 36.976562 36.898438 37.351562 36.824219 37.492188 36.441406 C 37.734375 35.78125 37.539062 35.4375 37.191406 34.90625 C 34.898438 31.394531 32.59375 27.890625 30.308594 24.375 C 29.558594 23.21875 29.796875 22.164062 30.898438 21.660156 C 31.71875 21.285156 32.496094 21.601562 33.171875 22.621094 C 35.511719 26.183594 37.851562 29.753906 40.175781 33.324219 C 40.558594 33.90625 41.015625 34.394531 41.691406 33.921875 C 42.335938 33.464844 41.96875 32.878906 41.632812 32.363281 C 39.824219 29.617188 38.023438 26.863281 36.238281 24.113281 C 36 23.746094 35.761719 23.363281 35.632812 22.949219 C 35.347656 22.019531 35.984375 21.050781 36.945312 20.878906 C 37.925781 20.707031 38.40625 21.292969 38.859375 21.988281 C 41.910156 26.671875 44.960938 31.359375 48.058594 36.015625 C 48.34375 36.441406 48.945312 36.945312 49.386719 36.9375 C 50.210938 36.914062 50.121094 36.058594 50.175781 35.460938 C 50.300781 33.96875 50.363281 32.46875 50.519531 30.976562 C 50.640625 29.828125 51.359375 29.152344 52.320312 29.167969 C 53.191406 29.183594 53.925781 29.878906 54 30.996094 C 54.261719 35.0625 54.539062 39.136719 54.652344 43.214844 C 54.675781 43.933594 54.621094 44.632812 54.503906 45.308594 C 54.441406 45.660156 54.359375 45.996094 54.261719 46.335938 C 54.171875 46.640625 54.066406 46.941406 53.949219 47.242188 L 54.75 48.464844 L 55.058594 48.9375 L 57.292969 52.359375 L 45.15625 60.300781 Z M 42.742188 56.617188 "/>
<path style=" stroke:none;fill-rule:nonzero;fill:rgb(100%,100%,100%);fill-opacity:1;" d="M 46.109375 37.695312 C 44.820312 37.695312 43.628906 38.339844 42.855469 39.425781 C 42.089844 38.339844 40.898438 37.695312 39.601562 37.695312 C 37.90625 37.695312 36.367188 38.835938 35.789062 40.53125 C 35.625 41.011719 35.542969 41.496094 35.542969 41.984375 C 35.542969 42.464844 35.617188 42.921875 35.761719 43.363281 L 35.746094 43.371094 L 35.8125 43.5 C 35.820312 43.515625 35.828125 43.53125 35.835938 43.550781 L 35.859375 43.605469 C 36.03125 44.054688 36.253906 44.453125 36.515625 44.78125 C 36.644531 44.941406 36.789062 45.089844 36.9375 45.226562 L 42.863281 51.496094 L 48.988281 45.007812 C 49.402344 44.566406 49.726562 44.015625 49.925781 43.441406 C 50.085938 42.976562 50.167969 42.488281 50.167969 41.992188 C 50.167969 39.621094 48.34375 37.695312 46.109375 37.695312 Z M 43.996094 40.90625 C 44.378906 40.003906 45.210938 39.421875 46.109375 39.421875 C 47.398438 39.421875 48.441406 40.574219 48.441406 41.992188 C 48.441406 42.300781 48.398438 42.601562 48.300781 42.890625 C 48.179688 43.253906 47.984375 43.574219 47.722656 43.851562 L 42.863281 48.996094 L 38.167969 44.023438 L 38.128906 43.988281 C 38.03125 43.898438 37.941406 43.800781 37.859375 43.703125 C 37.703125 43.507812 37.574219 43.273438 37.460938 42.996094 C 37.441406 42.9375 37.417969 42.878906 37.394531 42.855469 C 37.304688 42.578125 37.261719 42.292969 37.261719 42 C 37.261719 41.699219 37.3125 41.390625 37.410156 41.101562 C 37.753906 40.101562 38.632812 39.425781 39.59375 39.425781 C 40.492188 39.425781 41.324219 40.011719 41.707031 40.914062 C 41.902344 41.371094 42.34375 41.664062 42.839844 41.664062 C 43.359375 41.65625 43.800781 41.363281 43.996094 40.90625 Z M 43.996094 40.90625 "/>
</g>
</svg>
