<?xml version="1.0" encoding="utf-8"?>
<!-- Generator: Adobe Illustrator 24.1.0, SVG Export Plug-In . SVG Version: 6.00 Build 0)  -->
<svg version="1.1" xmlns="http://www.w3.org/2000/svg" xmlns:xlink="http://www.w3.org/1999/xlink" x="0px" y="0px"
	 viewBox="0 0 1920 345" style="enable-background:new 0 0 1920 345;" xml:space="preserve">
<style type="text/css">
	.st0{fill:none;stroke:#FFFFFF;stroke-miterlimit:10;}
	.st1{fill:#FFFFFF;}
	.st2{fill:none;stroke:#FFFFFF;stroke-width:3;stroke-miterlimit:10;}
	.st3{fill:#010C4D;}
	.st4{fill:#6CC5F1;}
	.st5{fill:#AEEDE8;}
	.st6{fill:#FF6228;}
	.st7{fill:#FFE682;}
	.st8{fill:#BCD864;}
	.st9{fill:#06B0F2;}
	.st10{fill:#DADADA;}
	.st11{fill:#9D9D9C;}
	.st12{fill:#FEDBC8;}
	.st13{fill:#FFDDCC;}
	.st14{opacity:0.5;}
	.st15{fill:#231F20;}
	.st16{fill:#EA83A8;}
	.st17{fill:#26395F;}
	.st18{clip-path:url(#SVGID_2_);}
	.st19{fill:#F7B7D9;}
	.st20{fill:#FEFFFD;}
	.st21{fill:#EDEDED;}
	.st22{fill-rule:evenodd;clip-rule:evenodd;fill:#001689;}
	.st23{fill:#008DC7;}
	.st24{fill:#001689;}
	.st25{fill-rule:evenodd;clip-rule:evenodd;fill:#008DC7;}
	.st26{fill:#1D1D1B;}
	.st27{clip-path:url(#SVGID_4_);}
	.st28{fill:none;stroke:#FF6228;stroke-width:3;stroke-linecap:round;stroke-miterlimit:10;}
	.st29{fill:none;stroke:#FF6228;stroke-width:3;stroke-linecap:round;stroke-miterlimit:10;stroke-dasharray:7.8512,7.8512;}
	.st30{fill:#00DDFF;}
	.st31{fill:#00C3FF;}
	.st32{fill:#DCDDDD;}
	.st33{fill:#BDD2D5;}
	.st34{fill:#91A2BB;}
	.st35{fill:#BBF9FF;}
	.st36{clip-path:url(#SVGID_6_);}
	.st37{clip-path:url(#SVGID_6_);fill:#FFE682;}
	.st38{clip-path:url(#SVGID_6_);fill:#FF6228;}
	.st39{fill:#00D3A5;}
	.st40{fill:#00B6A7;}
	.st41{fill:#00F3A3;}
	.st42{fill:#DDD8E6;}
	.st43{fill:#FFE230;}
	.st44{fill:#695595;}
	.st45{fill:#F2B939;}
	.st46{fill:#D2943F;}
	.st47{fill:#FF33A2;}
	.st48{fill:#FFEE00;}
	.st49{fill:#00B7FF;}
	.st50{fill:#A33EFF;}
	.st51{fill:#A63192;}
	.st52{fill:#EEA63D;}
	.st53{fill:#E2FCFF;}
	.st54{fill:#454E80;}
	.st55{fill:#FF4F6A;}
	.st56{fill:#784F6A;}
	.st57{fill:#C94F6A;}
	.st58{fill:#434C7C;}
	.st59{fill:#A54F6A;}
	.st60{fill:#00A8EC;}
	.st61{fill:#BCABBD;}
	.st62{fill:#8FBB25;}
	.st63{fill:#00A8DE;}
	.st64{fill:#D9D9D9;}
	.st65{fill:#0082C9;}
	.st66{fill:none;stroke:#00A8DE;stroke-width:10;stroke-linecap:round;stroke-miterlimit:10;}
	.st67{fill:#ECECEC;}
	.st68{fill:#731324;}
	.st69{clip-path:url(#SVGID_14_);fill:#1C1009;}
	.st70{fill:#1A2F50;}
	.st71{fill:#0B121F;}
	.st72{opacity:0.9;fill:#FFFFFF;}
	.st73{fill:#0080B9;}
	.st74{fill:#159FDA;}
	.st75{clip-path:url(#SVGID_16_);fill:#E8467B;}
	.st76{fill:#FFFFFF;stroke:#37474F;stroke-width:2;stroke-linecap:round;stroke-linejoin:round;stroke-miterlimit:10;}
	.st77{fill:none;stroke:#37474F;stroke-width:2;stroke-linecap:round;stroke-linejoin:round;stroke-miterlimit:10;}
	.st78{fill:#FF6228;stroke:#37474F;stroke-width:2;stroke-linecap:round;stroke-linejoin:round;stroke-miterlimit:10;}
	.st79{fill:#FFFFFF;stroke:#1D1D1B;stroke-miterlimit:10;}
	.st80{fill:#D0FFFB;}
	.st81{fill:#50E5D9;}
	.st82{fill:#75E9DE;}
	.st83{fill:#FED62B;}
	.st84{fill:#C4B2F5;}
	.st85{opacity:0.3;}
	.st86{fill:#D2C8FB;}
	.st87{fill:#FFEFB0;}
	.st88{opacity:0.8;}
	.st89{fill:#A4EFE8;}
	.st90{fill:#FFE783;}
	.st91{fill:#FFE164;}
	.st92{fill:#1B9CD9;stroke:#FFFFFF;stroke-width:3;stroke-linecap:round;stroke-miterlimit:10;}
	.st93{fill:none;stroke:#FFFFFF;stroke-width:3;stroke-linecap:round;stroke-miterlimit:10;}
	.st94{fill:#FFFFFF;stroke:#FFFFFF;stroke-width:3;stroke-miterlimit:10;}
	.st95{fill:#FFCA28;}
	.st96{fill:none;stroke:#010C4D;stroke-width:2;stroke-linecap:round;stroke-linejoin:round;stroke-miterlimit:10;}
	.st97{fill:#1B9CD9;}
	.st98{fill:#1B9CD9;stroke:#FFFFFF;stroke-width:3;stroke-miterlimit:10;}
	.st99{clip-path:url(#SVGID_22_);fill:#AFDFF2;}
	.st100{clip-path:url(#SVGID_22_);}
	.st101{clip-path:url(#SVGID_22_);fill:none;stroke:#6CC5F1;stroke-width:2;stroke-miterlimit:10;}
	.st102{fill:#00EE80;}
	.st103{fill:#2ABB84;}
	.st104{fill:#5B9487;}
	.st105{fill:#A9FC80;}
	.st106{fill:#76DBFF;}
	.st107{fill:#94FFFF;}
	.st108{fill:#DDFFFF;}
	.st109{fill:#FFE3D6;}
	.st110{fill:#FF9B3E;}
	.st111{fill:#FFB03B;}
	.st112{fill:#FFC936;}
	.st113{fill:#8A6A43;}
	.st114{fill:#C352FF;}
	.st115{clip-path:url(#SVGID_22_);fill:#FF6228;}
	.st116{clip-path:url(#SVGID_28_);fill:#1C1009;}
	.st117{clip-path:url(#SVGID_30_);fill:#E8467B;}
	.st118{clip-path:url(#SVGID_22_);fill:#6CC5F1;}
	.st119{clip-path:url(#SVGID_22_);fill:#FFE682;}
	.st120{fill:#AFDFF2;}
	.st121{clip-path:url(#SVGID_36_);}
	.st122{clip-path:url(#SVGID_36_);fill:#6CC5F1;}
	.st123{clip-path:url(#SVGID_38_);}
	.st124{clip-path:url(#SVGID_38_);fill:#FF6228;}
	.st125{clip-path:url(#SVGID_38_);fill:#FFE682;}
	.st126{clip-path:url(#SVGID_38_);fill:#010C4D;}
	.st127{clip-path:url(#SVGID_40_);}
	.st128{clip-path:url(#SVGID_42_);}
</style>
<g id="Capa_2">
</g>
<g id="Capa_3">
</g>
<g id="Capa_1">
	<g>
		<defs>
			<rect id="SVGID_35_" y="196.94" width="551.15" height="148.06"/>
		</defs>
		<clipPath id="SVGID_2_">
			<use xlink:href="#SVGID_35_"  style="overflow:visible;"/>
		</clipPath>
		<g class="st18">
			<path class="st3" d="M-123.29,413.33l600.18-18.03c-4.07-53.8-54.77-91.83-137.44-69.67c-58.55,15.7-119.51,15.77-182.51-2.81
				c-80.5-24.74-145.53-137.93-284.9-64.94L-123.29,413.33z"/>
		</g>
		<path style="clip-path:url(#SVGID_2_);fill:#6CC5F1;" d="M70.05,282.63c4.78,8.85,12.03,16.59,19.31,23.44
			c7.09,6.66,14.71,12.15,24.03,15.13c5.26,1.67,34.89,7.16,28.66-6.78c-1.57-3.51-5.1-6.16-8.02-8.48
			c-6.14-4.89-12.93-9.12-19.57-13.29c-7.7-4.82-15.77-8.99-23.16-14.31c-5.33-3.2-15.14-10.44-21.98-7.91
			C64.51,272.2,68.67,280.08,70.05,282.63z M90.03,280.34c13.33,9.6,28.1,16.97,41.45,26.62c3.75,2.71,14.3,11.2,5.08,13.89
			c-6.36,1.85-14.03,0.31-20.25-1.29c-15.77-4.06-28.18-16.59-38.03-29c-3.35-4.21-8.9-10.82-8.75-16.63
			C69.69,268.33,88.53,279.43,90.03,280.34z"/>
		<g class="st18">
			<path class="st1" d="M75.69,252.69l-1-0.65c-3.33-3.6-22.19-11.64-21.41,0.21C55.36,262.12,86.75,268.35,75.69,252.69z"/>
		</g>
		<g class="st18">
			<path class="st5" d="M10.24,262.25l-2.27-0.99c-8.42-5.46-48.97-17.75-40.56,0.14C-22.88,276.31,40.41,285.98,10.24,262.25z"/>
		</g>
		<g class="st18">
			<path class="st6" d="M403.95,327.44l-1.81-0.35c-6.89-3.02-38.47-4.22-30.17,10.7C380.9,349.53,429.1,342.28,403.95,327.44z"/>
		</g>
	</g>
	<g>
		<defs>
			<rect id="SVGID_37_" x="1416.54" y="0" width="503.46" height="197.2"/>
		</defs>
		<clipPath id="SVGID_4_">
			<use xlink:href="#SVGID_37_"  style="overflow:visible;"/>
		</clipPath>
		<g class="st27">
			<path class="st4" d="M1331.14-33.77c6.7-1,13.59-1.81,20.82-1.99c51.98-2.4,58.02,13.94,99.95,44.76
				c78.15,56.29,145.55-21.21,216.33,47.36c28.51,26.76,33.88,57.39,77.48,70.59c36.9,11.17,77.13-12.91,116.04-8.38
				c29.43,6.09,55.78,22.25,70.82,47.55l44.86-148.18l-606.38-183.56L1331.14-33.77z"/>
		</g>
		<path style="clip-path:url(#SVGID_4_);fill:#FF6228;" d="M1501.74,48.57c-4.09,4.97,2.47,9.15,6.64,10.89
			c8.32,3.47,18.54,2.71,27.28,1.88c9.56-0.9,19.28-2.95,28.17-6.66c6.62-2.77,21.79-15.41,7.17-17.86
			c-12.3-2.06-25.24,1.75-37.52,3.04c-0.28-0.28-0.66-0.46-1.15-0.41C1523.83,40.42,1507.83,41.17,1501.74,48.57z M1516.63,44.89
			c4.74-1.23,9.6-1.95,14.46-2.54c0.27,0.26,0.65,0.43,1.11,0.39c9.57-0.79,18.99-2.79,28.59-3.38c4.04-0.25,9.53-0.85,13.25,1.15
			c3.79,2.04-8.12,10.07-9.45,10.78c-12.6,6.67-29.7,8.42-43.68,7.76c-2.42-0.12-20.54-2.33-17.48-8.25
			C1505.35,47.11,1513.15,45.79,1516.63,44.89z"/>
		<path style="clip-path:url(#SVGID_4_);fill:#FFE682;" d="M1703.78,73.1c0.04,0.25,0.14,0.43,0.27,0.58
			c4.46,9.84,18.12,16.55,28.02,18.87c7.71,1.8,12.59-2.94,8.04-10.01c-5.34-8.29-15.6-14.98-24.67-18.38
			C1707.62,61.23,1702.25,64.61,1703.78,73.1z"/>
		<path style="clip-path:url(#SVGID_4_);fill:#010C4D;" d="M1918.94,114.36c0,0-12.08-14.46-41.34-14.91
			c-29.26-0.45-30.02-8.67-26.44-15.99c3.58-7.31,42.38-16.46,67.78,5.49C1918.94,102.67,1918.94,114.36,1918.94,114.36z"/>
	</g>
	<g>
		<defs>
			<rect id="SVGID_39_" y="0" width="1403.68" height="108.95"/>
		</defs>
		<clipPath id="SVGID_6_">
			<use xlink:href="#SVGID_39_"  style="overflow:visible;"/>
		</clipPath>
		<g class="st36">
			<g>
				<path class="st4" d="M-91.79,73.49c4.6-49.5,54.15-81.37,100.33-85.42c59.97-5.26,115.55,26.51,168.14,50.52
					C227.55,61.82,280.9,78.9,336.68,63.72c26.38-7.18,51.08-19.29,75.45-31.44c25.87-12.9,51.86-25.3,78.87-35.69
					c105.41-40.53,220.23-56.06,332.64-45.51c57.84,5.43,113.89,18.71,169.16,36.29c56.16,17.86,111.79,38.43,169.93,49.11
					c85.72,15.74,189.19,5.57,250.6-63.44c6.82-7.66,12.85-15.94,18.19-24.69c0.34-0.55-0.53-1.05-0.86-0.5
					c-51.62,84.61-162.87,104.07-253.85,90.01c-58.88-9.1-115.19-29.27-171.66-47.56C950.94-27.27,896.21-41.67,839.5-48.25
					c-110.91-12.87-224.77-0.2-330.07,36.98c-25.96,9.17-51.35,19.84-76.09,31.9c-26.53,12.93-52.57,27.15-80.48,36.97
					c-28.69,10.09-58.4,14-88.57,9.27c-29.94-4.69-58.39-16.09-85.83-28.57c-51.04-23.21-103.12-52.7-160.9-51.7
					C-22.86-12.7-66.98,8.31-85.23,45.92c-4.22,8.68-6.66,17.97-7.55,27.56C-92.85,74.13-91.85,74.12-91.79,73.49L-91.79,73.49z"/>
			</g>
		</g>
	</g>
	<g>
		<defs>
			<rect id="SVGID_41_" x="1074.46" y="208.71" width="845.54" height="136.29"/>
		</defs>
		<clipPath id="SVGID_8_">
			<use xlink:href="#SVGID_41_"  style="overflow:visible;"/>
		</clipPath>
		<g style="clip-path:url(#SVGID_8_);">
			<g>
				<path class="st3" d="M1080.11,381.87c49.54-31.2,105.34-50.87,162.81-61.28c58.34-10.57,118.09-11.98,177.14-7.9
					c62.79,4.34,124.49,17.08,187.07,23.18c31.72,3.09,63.79,4.32,95.55,1.01c29.89-3.12,58.89-10.64,86.39-22.77
					c51.36-22.67,97.96-58.35,153.76-69.94c7.32-1.52,14.72-2.55,22.17-3.12c0.64-0.05,0.64-1.05,0-1
					c-56.59,4.3-104.6,37.35-153.78,62.37c-27.26,13.87-55.47,24.79-85.66,30.23c-32.03,5.77-64.8,6.14-97.2,3.98
					c-63.89-4.26-126.69-17.92-190.45-23.53c-58.39-5.14-117.51-5.15-175.6,3.32c-57.07,8.32-113.18,25.14-163.7,53.29
					c-6.44,3.59-12.77,7.37-19.01,11.29C1079.06,381.34,1079.56,382.21,1080.11,381.87L1080.11,381.87z"/>
			</g>
		</g>
	</g>
</g>
</svg>
