<svg xmlns="http://www.w3.org/2000/svg" viewBox="0 0 100 100"><defs><style>.cls-1{fill:#fff;stroke:#c1c1c1;stroke-width:1.77px;}.cls-1,.cls-4{stroke-miterlimit:10;}.cls-2,.cls-4{fill:#010c4d;}.cls-3{fill:#6cc5f1;}.cls-4,.cls-5{stroke:#010c4d;}.cls-4{stroke-width:0.21px;}.cls-5{fill:#ff6228;stroke-linecap:round;stroke-linejoin:round;stroke-width:1.67px;}</style></defs><g id="Capa_1" data-name="Capa 1"><circle class="cls-1" cx="44.7" cy="54.33" r="40.47" transform="translate(-18.66 84.89) rotate(-76.3)"/><path class="cls-2" d="M98.47,50.4h-2A52,52,0,0,0,.34,27.28a2.33,2.33,0,1,0,4,2.43A47.28,47.28,0,0,1,91.81,50.4H90.17a1.53,1.53,0,0,0-1.33,2.3L93,59.88a1.52,1.52,0,0,0,2.65,0l4.15-7.18A1.53,1.53,0,0,0,98.47,50.4Z"/><path class="cls-3" d="M40.9,38.16V73.24a4.66,4.66,0,0,1-3.12,3.64c-1.56.52-5.94.07-7.79-3.12-4.68-.52-6.71-3.05-7.32-6.09-.79-.79-4-3.5-4.63-5.86-.79-3.08,1.35-6.05,3.42-8.12-2.2-2.33-3.22-9.23,1-11-.6-3.64,3.32-6.69,6.15-7a7,7,0,0,1,8.09-4C39.51,32.59,40.9,38.16,40.9,38.16Z"/><path class="cls-4" d="M40.67,73.14a.71.71,0,0,1-.71-.7V36.89a.71.71,0,0,1,1.41,0V72.44A.71.71,0,0,1,40.67,73.14Z"/><path class="cls-4" d="M35.4,77.84c-2.77,0-5.31-2.24-6.14-3.6a7.84,7.84,0,0,1-5.68-2.7,6.28,6.28,0,0,1-1.93-4.38,7.94,7.94,0,0,1-4.44-7.26,8,8,0,0,1,3.06-6.19,7.37,7.37,0,0,1-2.16-5.09,7.1,7.1,0,0,1,3.6-6.21c.18-4.26,3-6.67,5.89-7a6.88,6.88,0,0,1,6.45-4.62c4.31,0,7.32,2.5,7.32,6.08a.71.71,0,1,1-1.41,0c0-3.21-3.06-4.67-5.91-4.67a5.49,5.49,0,0,0-5.25,4.07.72.72,0,0,1-.66.51c-3,.07-5,2.56-5,6.05a.69.69,0,0,1-.41.63,5.68,5.68,0,0,0-3.19,5.14,6.1,6.1,0,0,0,2.29,4.59.67.67,0,0,1,.27.57.74.74,0,0,1-.3.56,6.8,6.8,0,0,0-3.16,5.56,6.61,6.61,0,0,0,4.08,6.2.72.72,0,0,1,.4.8,4.61,4.61,0,0,0,1.52,3.69,6.17,6.17,0,0,0,5,2.22.71.71,0,0,1,.56.16.66.66,0,0,1,.23.43c.25.57,2.46,3,5,3,2.77,0,4.56-1.57,4.56-4a.71.71,0,0,1,1.41,0C41.37,75.67,39,77.84,35.4,77.84Z"/><path class="cls-4" d="M62.13,51.47a.74.74,0,0,1-.25,0,.7.7,0,0,1-.41-.9,5.54,5.54,0,0,0,.35-1.9,5.66,5.66,0,0,0-3.19-5.14.7.7,0,0,1-.4-.63c0-3.49-2.07-6-5-6.05a.72.72,0,0,1-.66-.51,5.49,5.49,0,0,0-5.25-4.07c-2.85,0-5.92,1.46-5.92,4.67a.71.71,0,1,1-1.41,0c0-3.58,3-6.08,7.33-6.08a6.86,6.86,0,0,1,6.44,4.62c2.91.31,5.71,2.72,5.89,7a7.11,7.11,0,0,1,3.61,6.21A6.74,6.74,0,0,1,62.78,51,.7.7,0,0,1,62.13,51.47Z"/><path class="cls-4" d="M35.2,44a6.4,6.4,0,0,1-4.28-1.77.7.7,0,1,1,1-1,5,5,0,0,0,3.32,1.39c2.45,0,4.76-3.46,4.76-6.13a.71.71,0,0,1,1.41,0C41.37,39.82,38.52,44,35.2,44Z"/><path class="cls-4" d="M29.68,74.2a.7.7,0,0,1-.7-.64,5.21,5.21,0,0,1,1.54-4.17.69.69,0,0,1,1,0,.71.71,0,0,1,0,1,3.88,3.88,0,0,0-1.13,3.06.7.7,0,0,1-.63.76Z"/><path class="cls-4" d="M40.67,68.93a.7.7,0,0,1-.71-.7C40,66.72,38.07,65,36.41,65A2.89,2.89,0,0,0,34,66.28a.7.7,0,1,1-1.16-.79,4.3,4.3,0,0,1,3.56-1.89c2.45,0,5,2.34,5,4.63A.7.7,0,0,1,40.67,68.93Z"/><path class="cls-4" d="M44.84,49.26c-2.34,0-4.88-1.51-4.88-3.95a.71.71,0,0,1,1.41,0c0,1.5,1.83,2.55,3.47,2.55a2.87,2.87,0,0,0,2.39-1.27.71.71,0,0,1,1-.19.69.69,0,0,1,.18,1A4.26,4.26,0,0,1,44.84,49.26Z"/><path class="cls-4" d="M28.18,54.65a.75.75,0,0,1-.4-.12,6.1,6.1,0,0,0-6.08-.16.7.7,0,0,1-.95-.28.71.71,0,0,1,.28-1,7.47,7.47,0,0,1,7.54.22.71.71,0,0,1-.39,1.29Z"/><path class="cls-4" d="M24.42,67.85a6.27,6.27,0,0,1-2.18-.42l-.07,0a.7.7,0,0,1-.42-.9.7.7,0,0,1,.89-.42l.08,0a3.9,3.9,0,0,0,3.94-.44.7.7,0,0,1,.84,1.12A5,5,0,0,1,24.42,67.85Z"/><path class="cls-4" d="M33.73,59.29a.7.7,0,0,1-.63-.4,6.07,6.07,0,0,1,.08-5.33A6,6,0,0,1,40,51a.7.7,0,1,1-.36,1.36,4.25,4.25,0,0,0-5.23,6,.69.69,0,0,1-.33.93A.63.63,0,0,1,33.73,59.29Z"/><path class="cls-4" d="M27,47.36h-.11a.71.71,0,0,1-.59-.8,3.06,3.06,0,0,0-.77-2.31,2.67,2.67,0,0,0-2.67-.8.7.7,0,0,1-.46-1.33,4,4,0,0,1,4.12,1.14,4.43,4.43,0,0,1,1.17,3.51A.71.71,0,0,1,27,47.36Z"/><path class="cls-4" d="M48.64,41.47a.7.7,0,1,1,0-1.4A4.11,4.11,0,0,0,52.44,36a.7.7,0,1,1,1.4,0A5.49,5.49,0,0,1,48.64,41.47Z"/><path class="cls-5" d="M72.2,61.91c0-.16,0-.33,0-.49a8.33,8.33,0,0,0-7.44-7.67c-2.64-.26-5.06,1.33-6.75,3-1.67-1.73-4.07-3.34-6.72-3.1a8.31,8.31,0,0,0-7.45,7.2,6.73,6.73,0,0,0-.07,1,7.87,7.87,0,0,0,3,6.15l11.14,8.9,11.22-8.85A7.86,7.86,0,0,0,72.2,61.91Z"/></g></svg>