<svg xmlns="http://www.w3.org/2000/svg" viewBox="0 0 100 100"><defs><style>.cls-1,.cls-10{fill:#fff;}.cls-1{stroke:#c1c1c1;stroke-miterlimit:10;stroke-width:1.77px;}.cls-2{fill:#1b9cd9;}.cls-3{fill:#ffe682;}.cls-10,.cls-3,.cls-4,.cls-5,.cls-6,.cls-7,.cls-8,.cls-9{stroke:#010c4d;stroke-linecap:round;stroke-linejoin:round;}.cls-10,.cls-3,.cls-4,.cls-5,.cls-6,.cls-9{stroke-width:1.67px;}.cls-4{fill:#ffca28;}.cls-5{fill:#6cc5f1;}.cls-6{fill:#aeede8;}.cls-7{fill:#ff6228;stroke-width:1.25px;}.cls-8,.cls-9{fill:none;}.cls-8{stroke-width:1.46px;}</style></defs><g id="Capa_1" data-name="Capa 1"><circle class="cls-1" cx="44.7" cy="55.74" r="40.47" transform="translate(-20.04 85.97) rotate(-76.3)"/><path class="cls-2" d="M98.47,51.81h-2A52,52,0,0,0,.34,28.7a2.33,2.33,0,0,0,4,2.43A47.28,47.28,0,0,1,91.81,51.81H90.17a1.53,1.53,0,0,0-1.33,2.3L93,61.3a1.53,1.53,0,0,0,2.65,0l4.15-7.19A1.53,1.53,0,0,0,98.47,51.81Z"/><g id="Award"><path class="cls-3" d="M33.87,45.43H30.78a6.72,6.72,0,0,1-6.71-6.71V31.5A1.55,1.55,0,0,1,25.62,30h8.25a1.54,1.54,0,0,1,1.55,1.54V43.88A1.55,1.55,0,0,1,33.87,45.43Zm-6.7-12.38v5.67a3.61,3.61,0,0,0,3.61,3.61h1.55V33.05Z"/><path class="cls-3" d="M58.63,45.43h-3.1A1.56,1.56,0,0,1,54,43.88V31.5A1.55,1.55,0,0,1,55.53,30h8.25a1.54,1.54,0,0,1,1.55,1.54v7.22A6.72,6.72,0,0,1,58.63,45.43Zm-1.55-3.1h1.55a3.61,3.61,0,0,0,3.61-3.61V33.05H57.08Z"/><path class="cls-3" d="M43.67,26.86H57.08V40.27A12.38,12.38,0,0,1,44.7,52.65h0A12.38,12.38,0,0,1,32.33,40.27V26.86h2.06"/><line class="cls-4" x1="37.48" y1="26.86" x2="40.58" y2="26.86"/><path class="cls-5" d="M36.89,68.12H52.52a2.5,2.5,0,0,1,2.5,2.5v7.81a0,0,0,0,1,0,0H34.39a0,0,0,0,1,0,0V70.62A2.5,2.5,0,0,1,36.89,68.12Z"/><rect class="cls-6" x="22.51" y="78.43" width="44.39" height="6.19" rx="2.5"/><polygon class="cls-7" points="44.7 33.56 46.3 36.96 49.86 37.51 47.28 40.15 47.89 43.88 44.7 42.12 41.52 43.88 42.12 40.15 39.55 37.51 43.11 36.96 44.7 33.56"/><path class="cls-8" d="M32.33,59.87l-1.72-.57a2.92,2.92,0,0,1-1.84-1.85l-.57-1.71-.57,1.71a2.91,2.91,0,0,1-1.85,1.85l-1.71.57,1.71.57a2.9,2.9,0,0,1,1.85,1.84L28.2,64l.57-1.71a2.91,2.91,0,0,1,1.84-1.84Z"/><path class="cls-8" d="M65.33,59.87l-1.71-.57a2.94,2.94,0,0,1-1.85-1.85l-.57-1.71-.57,1.71a2.92,2.92,0,0,1-1.84,1.85l-1.71.57,1.71.57a2.91,2.91,0,0,1,1.84,1.84L61.2,64l.57-1.71a2.92,2.92,0,0,1,1.85-1.84Z"/><path class="cls-9" d="M44.7,52.65a12.88,12.88,0,0,1-2.65-.29L40.58,68.12h8.25L47.35,52.36A12.81,12.81,0,0,1,44.7,52.65Z"/><rect class="cls-10" x="40.58" y="72.24" width="8.25" height="2.06" rx="1.03"/></g></g></svg>