<svg xmlns="http://www.w3.org/2000/svg" viewBox="0 0 100 100"><defs><style>.cls-1,.cls-4{fill:#fff;}.cls-1{stroke:#c1c1c1;stroke-miterlimit:10;stroke-width:1.77px;}.cls-2{fill:#ff6228;}.cls-3{fill:none;}.cls-3,.cls-4,.cls-5,.cls-6,.cls-7{stroke:#010c4d;stroke-linecap:round;stroke-linejoin:round;stroke-width:1.45px;}.cls-5{fill:#6cc5f1;}.cls-6{fill:#ffe682;}.cls-7{fill:#ffca28;}.cls-8{fill:#ffe230;}</style></defs><g id="Capa_1" data-name="Capa 1"><circle class="cls-1" cx="44.7" cy="55.74" r="40.47" transform="translate(-20.04 85.97) rotate(-76.3)"/><g id="Wisdom"><path class="cls-2" d="M32.74,59.16a18.56,18.56,0,0,1,2-8.47h-.08a4.27,4.27,0,0,0-4.07,3L27.29,64a2.14,2.14,0,0,0,2,2.79H31.1A6.4,6.4,0,0,0,34,66.06,18.83,18.83,0,0,1,32.74,59.16Z"/><path class="cls-2" d="M62.11,64,58.82,53.66a4.26,4.26,0,0,0-4.07-3h-.08a18.44,18.44,0,0,1,2,8.47,18.83,18.83,0,0,1-1.29,6.9,6.43,6.43,0,0,0,2.93.71h1.78A2.14,2.14,0,0,0,62.11,64Z"/><path class="cls-3" d="M55,59.16c0,7.55-4.59,13.66-10.25,13.66-4.75,0-8.75-4.31-9.91-10.17a19.25,19.25,0,0,1-.32-2.56c0-.31,0-.62,0-.93,0-.56,0-1.1.07-1.64A17.53,17.53,0,0,1,34.94,55c1.33-5.49,5.2-9.47,9.76-9.47C50.36,45.49,55,51.61,55,59.16Z"/><path class="cls-3" d="M57.52,81.37H27.62a6,6,0,0,0,0-8.55h29.9a4.28,4.28,0,0,1,4.27,4.28h0A4.28,4.28,0,0,1,57.52,81.37Z"/><path class="cls-3" d="M57.09,75H29a6,6,0,0,1,0,4.27h28.1a2.14,2.14,0,0,0,0-4.27Z"/><line class="cls-4" x1="29.38" y1="77.1" x2="54.95" y2="77.1"/><path class="cls-3" d="M34.47,60.09c0-.31,0-.62,0-.93,0-.56,0-1.1.07-1.64"/><path class="cls-3" d="M34.94,55c1.33-5.49,5.2-9.47,9.76-9.47C50.36,45.49,55,51.61,55,59.16S50.36,72.82,44.7,72.82c-4.75,0-8.75-4.31-9.91-10.17"/><path class="cls-3" d="M55.37,66.06a6.43,6.43,0,0,0,2.93.71h1.78a2.14,2.14,0,0,0,2-2.79L58.82,53.66a4.26,4.26,0,0,0-4.07-3h-.08"/><path class="cls-3" d="M34.73,50.69h-.08a4.27,4.27,0,0,0-4.07,3L27.29,64a2.14,2.14,0,0,0,2,2.79H31.1A6.4,6.4,0,0,0,34,66.06"/><path class="cls-3" d="M33.26,44.26a8.52,8.52,0,0,0,3.86,5.8H52.28a8.49,8.49,0,0,0,3.86-5.8l.52-3.12H32.74Z"/><path class="cls-5" d="M36.48,33.53v7.64l1.72,1a12.86,12.86,0,0,0,12.79,0l1.72-1V33.53Z"/><polygon class="cls-5" points="44.59 30.11 31.78 33.53 44.59 36.95 57.41 33.53 44.59 30.11"/><line class="cls-3" x1="57.41" y1="33.53" x2="57.41" y2="37.8"/><polyline class="cls-3" points="46.41 51.39 44.7 55.66 42.99 51.39"/><circle class="cls-4" cx="40.43" cy="48.4" r="4.27"/><circle class="cls-4" cx="48.97" cy="48.4" r="4.27"/><circle class="cls-3" cx="40.43" cy="48.4" r="1.28"/><circle class="cls-3" cx="48.97" cy="48.4" r="1.28"/><rect class="cls-6" x="46.41" y="70.26" width="5.13" height="5.13" rx="1"/><line class="cls-7" x1="48.97" y1="71.97" x2="48.97" y2="75.39"/><rect class="cls-6" x="37.87" y="70.26" width="5.13" height="5.13" rx="1"/><line class="cls-7" x1="40.43" y1="71.97" x2="40.43" y2="75.39"/><path class="cls-3" d="M68.19,46.34l-1.41-.47a2.4,2.4,0,0,1-1.53-1.53l-.47-1.41-.48,1.41a2.41,2.41,0,0,1-1.52,1.53l-1.42.47,1.42.48a2.4,2.4,0,0,1,1.52,1.52l.48,1.42.47-1.42a2.39,2.39,0,0,1,1.53-1.52Z"/><path class="cls-3" d="M28,46.34l-1.41-.47a2.43,2.43,0,0,1-1.53-1.53l-.47-1.41-.47,1.41a2.43,2.43,0,0,1-1.53,1.53l-1.42.47,1.42.48a2.41,2.41,0,0,1,1.53,1.52l.47,1.42.47-1.42a2.41,2.41,0,0,1,1.53-1.52Z"/></g><path class="cls-8" d="M98.47,51.81h-2A52,52,0,0,0,.34,28.7a2.33,2.33,0,0,0,4,2.43A47.28,47.28,0,0,1,91.81,51.81H90.17a1.53,1.53,0,0,0-1.33,2.3L93,61.3a1.53,1.53,0,0,0,2.65,0l4.15-7.19A1.53,1.53,0,0,0,98.47,51.81Z"/></g></svg>