<svg xmlns="http://www.w3.org/2000/svg" viewBox="0 0 100 100"><defs><style>.cls-1{fill:#fff;stroke:#c1c1c1;stroke-miterlimit:10;stroke-width:1.77px;}.cls-2{fill:#ff6228;}.cls-3,.cls-5{fill:#ffe682;}.cls-4{fill:#6cc5f1;stroke-width:1.25px;}.cls-4,.cls-5,.cls-6{stroke:#010c4d;stroke-linecap:round;stroke-linejoin:round;}.cls-5,.cls-6{stroke-width:1.67px;}.cls-6{fill:none;}</style></defs><g id="Capa_1" data-name="Capa 1"><circle class="cls-1" cx="44.7" cy="52.45" r="40.47" transform="translate(-16.84 83.46) rotate(-76.3)"/><path class="cls-2" d="M98.47,48.52h-2A52,52,0,0,0,.34,25.4a2.33,2.33,0,1,0,4,2.43A47.28,47.28,0,0,1,91.81,48.52H90.17a1.53,1.53,0,0,0-1.33,2.3L93,58a1.53,1.53,0,0,0,2.65,0l4.15-7.18A1.53,1.53,0,0,0,98.47,48.52Z"/><path class="cls-3" d="M37.13,67.68v-2.8a7,7,0,0,0-2.2-5.13,15.42,15.42,0,0,1-3.37-17.67,13.77,13.77,0,0,1,7.3-7.23,17,17,0,0,1,5.56-1.32V67.36Z"/><path class="cls-4" d="M42.71,79.68v.38a2.65,2.65,0,0,0,2.65,2.65h0A2.66,2.66,0,0,0,48,80.06v-.38H51.8a1.93,1.93,0,0,0,1.75-1.14l.12-.25A5.5,5.5,0,0,0,54.16,76V71.36A1.17,1.17,0,0,0,53,70.19H38.31a1.17,1.17,0,0,0-1.18,1.17v4.72a5.4,5.4,0,0,0,.51,2.3l.4.87a.76.76,0,0,0,.7.44l1,0"/><path class="cls-5" d="M37.13,67.68v-2.8a7,7,0,0,0-2.2-5.13,15.42,15.42,0,0,1-3.37-17.67,13.77,13.77,0,0,1,7.3-7.23,17,17,0,0,1,5.56-1.32"/><line class="cls-6" x1="39.92" y1="72.98" x2="47.46" y2="72.98"/><line class="cls-6" x1="43.83" y1="76.33" x2="51.36" y2="76.33"/><line class="cls-6" x1="45.5" y1="23.86" x2="45.5" y2="30"/><line class="cls-6" x1="24.3" y1="61.16" x2="29.59" y2="58.11"/><line class="cls-6" x1="20.67" y1="48.98" x2="26.81" y2="48.99"/><line class="cls-6" x1="24.22" y1="36.42" x2="29.5" y2="39.48"/><line class="cls-6" x1="33.25" y1="27.33" x2="36.29" y2="32.63"/><path class="cls-6" d="M55.41,68.21a4.87,4.87,0,0,0,.24-1.54V64.86"/><path class="cls-6" d="M54.56,37.3v-.79a4.44,4.44,0,0,0-4.45-4.44h0A3.17,3.17,0,0,0,47,35.26l-.07,32.1"/><path class="cls-6" d="M58.72,40.36a3.68,3.68,0,0,0-4.4-5.91"/><path class="cls-6" d="M50.14,60.47A3.89,3.89,0,0,0,52.3,55.4"/><path class="cls-6" d="M51.43,43.2a2.36,2.36,0,0,0,2.31-2.42"/><path class="cls-6" d="M59.1,51a2.89,2.89,0,0,0-3.18-2.56"/><path class="cls-6" d="M54.25,63.49a5.44,5.44,0,1,0,8.56-6.72"/><path class="cls-6" d="M63,47.63a4.21,4.21,0,0,0-5-6.76"/><path class="cls-6" d="M57.51,55.53a5.83,5.83,0,1,0,7.06-9.26"/></g></svg>