<svg xmlns="http://www.w3.org/2000/svg" viewBox="0 0 100 100"><defs><style>.cls-1{fill:#fff;stroke:#c1c1c1;stroke-miterlimit:10;stroke-width:1.77px;}.cls-2{fill:#aeede8;}.cls-3{fill:#010c4d;}.cls-4{fill:#6cc5f1;}.cls-5{fill:#ff6228;}</style></defs><g id="Capa_1" data-name="Capa 1"><circle class="cls-1" cx="44.7" cy="54.69" r="40.47" transform="translate(-19.02 85.17) rotate(-76.3)"/><path class="cls-2" d="M98.47,50.76h-2A52,52,0,0,0,.34,27.65a2.33,2.33,0,0,0,4,2.43A47.28,47.28,0,0,1,91.81,50.76H90.17a1.53,1.53,0,0,0-1.33,2.3L93,60.25a1.53,1.53,0,0,0,2.65,0l4.15-7.19A1.53,1.53,0,0,0,98.47,50.76Z"/><path class="cls-3" d="M42.34,42.42a.81.81,0,0,1-.51-.18.91.91,0,0,0-.58-.22,1,1,0,0,0-.61.21.78.78,0,1,1-1-1.18,2.53,2.53,0,0,1,1.65-.6,2.49,2.49,0,0,1,1.58.6.78.78,0,0,1,.08,1.1A.76.76,0,0,1,42.34,42.42Z"/><path class="cls-3" d="M47.46,42.42A.78.78,0,0,1,47,41.05a2.47,2.47,0,0,1,3.23,0,.78.78,0,0,1-1,1.19.92.92,0,0,0-.6-.22.89.89,0,0,0-.59.22A.81.81,0,0,1,47.46,42.42Z"/><path class="cls-3" d="M35.12,52.42a2.45,2.45,0,0,1-2-1.36,3.26,3.26,0,0,1-2.24-1.43,2.24,2.24,0,0,1-.31-1.49A2.63,2.63,0,0,1,29,46.3a2.46,2.46,0,0,1,.24-1.81,2.15,2.15,0,0,1-.29-1.72,3,3,0,0,1,1-1.69,2.36,2.36,0,0,1,.14-2.25,2.52,2.52,0,0,1,.56-.68l-.15-.26a1.54,1.54,0,0,1-.11-1.35,2.09,2.09,0,0,1,.92-1A5,5,0,0,1,31,33.87a1.53,1.53,0,0,1,.48-1.15,1.88,1.88,0,0,1,.68-.42,2.5,2.5,0,0,1-.09-.66A2.73,2.73,0,0,1,34.72,29,2.73,2.73,0,0,1,37.5,26.4a3.2,3.2,0,0,1,.83.12A2.86,2.86,0,0,1,40.86,25a3.11,3.11,0,0,1,1.33.33A2.86,2.86,0,0,1,44.6,24h.21a2.88,2.88,0,0,1,2.44,1.33,3,3,0,0,1,1.3-.33,2.89,2.89,0,0,1,2.56,1.54,3.1,3.1,0,0,1,.8-.12A2.75,2.75,0,0,1,54.73,29a2.74,2.74,0,0,1,2.68,2.65,2.41,2.41,0,0,1-.09.59A2.71,2.71,0,0,1,59,33.49,1.77,1.77,0,0,1,59.12,35a1.56,1.56,0,0,1-.2.41,2.32,2.32,0,0,1,.7,1.63,2,2,0,0,1-.4,1.18,2.51,2.51,0,0,1,.54.66,2.36,2.36,0,0,1,.14,2.25,3,3,0,0,1,1,1.69,2.15,2.15,0,0,1-.29,1.72,2.51,2.51,0,0,1,.24,1.81,2.63,2.63,0,0,1-1.62,1.84,2.24,2.24,0,0,1-.31,1.49,3.22,3.22,0,0,1-2.25,1.43,2.94,2.94,0,0,1-1.22,1.2.79.79,0,0,1-.65-1.43c.29-.13.61-.71.72-.9a.78.78,0,0,1,.68-.4,1.74,1.74,0,0,0,1.38-.7.81.81,0,0,0,0-.88.8.8,0,0,1,0-.75.77.77,0,0,1,.63-.4,1.2,1.2,0,0,0,1.15-.88,1,1,0,0,0-.49-1.08.79.79,0,0,1-.29-1,.78.78,0,0,1,.84-.42,1.18,1.18,0,0,0-.1-.56,1.29,1.29,0,0,0-.82-.78.78.78,0,0,1-.24-1.38.75.75,0,0,0,.17-1.06c-.14-.24-.4-.45-.59-.42l-.11,0a.78.78,0,0,1-.57-1.45l.16-.07c.28-.12.76-.42.76-.73,0-.5-.69-.85-.69-.85a.79.79,0,0,1-.47-.71.8.8,0,0,1,.47-.72.65.65,0,0,0,.27-.25c0-.06,0-.17-.06-.21-.34-.61-1.27-.6-1.27-.61a.81.81,0,0,1-.66-.34,1,1,0,0,1,0-1,3,3,0,0,0,.2-.67,1.2,1.2,0,0,0-1.25-1.09,1.48,1.48,0,0,0-.6.17.78.78,0,0,1-.94-.18.77.77,0,0,1-.06-1,1,1,0,0,0,.17-.53A1.2,1.2,0,0,0,51.91,28a1.39,1.39,0,0,0-.83.32.78.78,0,0,1-1.28-.63v0a1.2,1.2,0,0,0-1.25-1.05,1.31,1.31,0,0,0-1.06.57.77.77,0,0,1-.88.32.78.78,0,0,1-.56-.76s0-.06,0-.09a1.21,1.21,0,0,0-1.25-1.05h0a.17.17,0,0,1-.1,0h-.06a1.21,1.21,0,0,0-1.23,1.05.28.28,0,0,1,0,.09.77.77,0,0,1-.55.76.76.76,0,0,1-.89-.32,1.31,1.31,0,0,0-1.09-.57,1.2,1.2,0,0,0-1.22,1.05v0a.77.77,0,0,1-.43.73.8.8,0,0,1-.85-.1A1.4,1.4,0,0,0,37.5,28a1.19,1.19,0,0,0-1.22,1.09.91.91,0,0,0,.18.53.79.79,0,0,1-1,1.14,1.45,1.45,0,0,0-.63-.17,1.19,1.19,0,0,0-1.22,1.09,1,1,0,0,0,.3.69.78.78,0,0,1-.58,1.33,1.46,1.46,0,0,0-.8.19A4.34,4.34,0,0,0,33,35.57a.76.76,0,0,1,0,.67.79.79,0,0,1-.5.46,1.56,1.56,0,0,0-.72.43,1.81,1.81,0,0,0,.45.52,1.73,1.73,0,0,1,.42.14.77.77,0,0,1,.45.84.79.79,0,0,1-.71.65,1.32,1.32,0,0,1-.54-.08.89.89,0,0,0-.47.42.75.75,0,0,0,.17,1.06.78.78,0,0,1-.24,1.38,1.26,1.26,0,0,0-.82.78,1.21,1.21,0,0,0-.1.56.83.83,0,0,1,.83.43.77.77,0,0,1-.28,1,1,1,0,0,0-.49,1.08,1.2,1.2,0,0,0,1.15.88.77.77,0,0,1,.63.4.8.8,0,0,1,0,.75.81.81,0,0,0,0,.88,1.74,1.74,0,0,0,1.38.7.78.78,0,0,1,.68.4c.35.64.61.93.85.92a.79.79,0,0,1,.84.72.77.77,0,0,1-.71.84Z"/><path class="cls-3" d="M55.55,39.19a.76.76,0,0,1-.6-.28c-2.42-2.9-4.28-3.33-7.36-3.84a12.29,12.29,0,0,1-5.46-2.73c-1.14,1.57-3.27,4.4-4.22,4.88a.79.79,0,0,1-1-.35.78.78,0,0,1,.35-1,31.91,31.91,0,0,0,4.15-5.1.79.79,0,0,1,1.19-.1,11.7,11.7,0,0,0,5.3,2.91c3.36.55,5.59,1.13,8.3,4.38a.78.78,0,0,1-.1,1.1A.72.72,0,0,1,55.55,39.19Z"/><path class="cls-3" d="M44.9,55.07c-4.74,0-8.85-4.41-9.76-10.49a.77.77,0,0,1,.66-.89.79.79,0,0,1,.89.66c.79,5.3,4.25,9.15,8.21,9.15s7.41-3.85,8.21-9.15a.78.78,0,1,1,1.55.23C53.75,50.66,49.64,55.07,44.9,55.07Z"/><path class="cls-3" d="M44.9,51.48a4.63,4.63,0,0,1-2.83-1,.76.76,0,0,1-.15-1.09A.77.77,0,0,1,43,49.21a2.89,2.89,0,0,0,3.78,0,.76.76,0,0,1,1.09.15.77.77,0,0,1-.15,1.09A4.68,4.68,0,0,1,44.9,51.48Z"/><path class="cls-4" d="M62.26,60.78a10.49,10.49,0,0,0-8.59-5.36,10.46,10.46,0,0,1-8.55,4.38,10.34,10.34,0,0,1-8.91-4.38,10.48,10.48,0,0,0-8.58,5.36c-1.3,2.19-7.69,17.53-4.07,20.71,2.65,2.31,14.18.29,20.8-2.26L40.29,77.7,36,77l-3.19-4s-1.13-8.57,3-4.57c.29-.83,1.61-1.34,2.71-2.36,2-1.89,1.27-1.18,4-.81,1.22.17,3.15.24,4.09.88a10.35,10.35,0,0,1,6.21-1.32c3.68.39,3.47.87,4.7,4.25A9,9,0,0,1,57.72,74c-.16,1-1.61,1.26-2.28,1.85-5.29-.47-12.58-1.7-12.58-1.7l-.64,4s20.25,6.75,24.1,3.38C70,78.31,63.55,63,62.26,60.78Z"/><path class="cls-3" d="M28.19,83.43c-2.39,0-4.11-.45-5.14-1.36-4.39-3.83,3.11-20.34,3.9-21.68a11.18,11.18,0,0,1,9.26-5.75.8.8,0,0,1,.68.38c.09.16,2.45,4,8.23,4A9.59,9.59,0,0,0,53,55a.81.81,0,0,1,.66-.36,11.16,11.16,0,0,1,9.26,5.75c.79,1.34,8.3,17.85,3.91,21.68s-21.3-1.9-24.82-3.2l-5.71-1a.49.49,0,0,1-.16,0c-.7-.28-3.48-3.62-3.79-4.23A48.76,48.76,0,0,1,31.8,68a1.8,1.8,0,0,1,1.86-1.81,2.1,2.1,0,0,1,1.46.59,2.31,2.31,0,0,1,.66,1.7.79.79,0,1,1-1.57,0,.8.8,0,0,0-.19-.58.51.51,0,0,0-.36-.15c-.29,0-.29.19-.29.25,0,.61.31,4.35.43,5a28.88,28.88,0,0,0,2.94,3.39l5.61.94.15,0c6.64,2.45,20.07,6.35,23.31,3.52,2.94-2.58-2.46-16.73-4.23-19.72a9.84,9.84,0,0,0-7.51-5,11.24,11.24,0,0,1-9,4.36,11.25,11.25,0,0,1-9.31-4.36,9.85,9.85,0,0,0-7.51,5c-1.76,3-7.17,17.14-4.22,19.72,1.86,1.63,7.81,1.17,16.31-1.25a.78.78,0,0,1,.42,1.51A49.32,49.32,0,0,1,28.19,83.43Z"/><path class="cls-5" d="M36.83,66.36c2.84-2.59,7.5-2.56,9.33.36C48.49,63,55.59,64,57.46,69.11a13.94,13.94,0,0,1,.14,6.56c-6.93-.62-15.15-1-17.31-2.55C38.83,71.28,38,69.53,37,69.34c-.26,0-1.1,1-1.38,1.19l-.44-1.48A7,7,0,0,1,36.83,66.36Z"/><path class="cls-3" d="M57.84,74h-.12a.78.78,0,0,1-.65-.89,7.37,7.37,0,0,0-.35-3.73,6.33,6.33,0,0,0-5.38-4.08,4.57,4.57,0,0,0-4.52,1.84.77.77,0,0,1-1.32,0,4.2,4.2,0,0,0-3-1.83,6.48,6.48,0,0,0-5.1,1.63.78.78,0,1,1-1.06-1.15,8,8,0,0,1,6.37-2,5.9,5.9,0,0,1,3.49,1.7,6.5,6.5,0,0,1,5.35-1.72,7.91,7.91,0,0,1,6.68,5.11,8.81,8.81,0,0,1,.42,4.5A.77.77,0,0,1,57.84,74Z"/><path class="cls-3" d="M59.58,77h-.09C57.94,76.8,44.27,75.33,43,75l-.39-.09c-1.16-.27-2.75-.64-3.45-1.69-.22-.32-.44-.69-.66-1.06a9.88,9.88,0,0,0-1.38-1.94l0,0a4.19,4.19,0,0,0,.07,2.26.77.77,0,0,1-.46,1,.77.77,0,0,1-1-.46,5.41,5.41,0,0,1,0-3.48,1.7,1.7,0,0,1,1-.91c1.27-.41,2.19,1.09,3.15,2.68.22.35.43.7.64,1,.35.52,1.69.83,2.5,1l.4.1c.89.21,10.23,1.26,16.29,1.91A.78.78,0,0,1,59.58,77Z"/></g></svg>