<?xml version="1.0" encoding="UTF-8"?>
<svg xmlns="http://www.w3.org/2000/svg" xmlns:xlink="http://www.w3.org/1999/xlink" width="75pt" height="75pt" viewBox="0 0 75 75" version="1.1">
<defs>
<filter id="alpha" filterUnits="objectBoundingBox" x="0%" y="0%" width="100%" height="100%">
  <feColorMatrix type="matrix" in="SourceGraphic" values="0 0 0 0 1 0 0 0 0 1 0 0 0 0 1 0 0 0 1 0"/>
</filter>
<mask id="mask0">
  <g filter="url(#alpha)">
<rect x="0" y="0" width="75" height="75" style="fill:rgb(0%,0%,0%);fill-opacity:0.301961;stroke:none;"/>
  </g>
</mask>
<clipPath id="clip1">
  <rect width="75" height="75"/>
</clipPath>
<g id="surface6" clip-path="url(#clip1)">
<path style=" stroke:none;fill-rule:nonzero;fill:rgb(11.372549%,11.372549%,10.588235%);fill-opacity:1;" d="M 69.628906 37.5 C 69.628906 36.496094 69.578125 35.496094 69.488281 34.515625 L 58.859375 23.109375 L 55.074219 25.359375 C 55.011719 27.238281 53.933594 29.078125 51.824219 29.542969 C 51.433594 30.660156 50.625 31.605469 49.410156 32.054688 C 48.789062 33.375 47.542969 34.378906 45.652344 34.410156 C 46.46875 34.792969 47.183594 35.398438 47.632812 36.171875 C 48.421875 37.523438 48.855469 39.03125 48.871094 40.539062 L 48.226562 39.890625 C 48.300781 40.191406 48.359375 40.492188 48.390625 40.800781 C 48.660156 44.085938 45.765625 46.460938 43.035156 47.542969 C 42.292969 47.835938 41.503906 48.007812 40.710938 48.066406 C 38.453125 48.023438 36.292969 47.0625 35.015625 45.066406 C 35.003906 45.039062 34.988281 45.007812 34.964844 44.976562 C 34.695312 44.707031 34.453125 44.421875 34.28125 44.09375 C 33.636719 42.863281 33.324219 41.664062 33.335938 40.449219 C 33.382812 39.578125 33.609375 38.714844 34.050781 37.90625 C 34.304688 37.433594 34.628906 37.011719 34.980469 36.636719 C 36.253906 34.546875 38.347656 33.03125 40.949219 33.058594 C 41.113281 33.058594 41.265625 33.089844 41.421875 33.105469 L 31.261719 22.230469 L 21.539062 31.46875 L 28.484375 38.414062 C 28.46875 38.949219 28.378906 39.472656 28.199219 39.96875 C 28.175781 40.246094 28.125 40.53125 28.035156 40.800781 C 27.71875 41.789062 27.261719 42.796875 26.699219 43.726562 C 26.511719 44.566406 26.109375 45.367188 25.550781 46.035156 C 24.546875 47.234375 23.113281 47.8125 21.609375 47.96875 C 19.550781 48.523438 17.339844 48.089844 15.691406 46.335938 C 15.324219 45.945312 15.039062 45.511719 14.835938 45.050781 L 15.226562 46.695312 L 37.304688 69.667969 C 37.359375 69.667969 37.417969 69.675781 37.46875 69.675781 C 55.230469 69.667969 69.628906 55.265625 69.628906 37.5 Z M 69.628906 37.5 "/>
</g>
</defs>
<g id="surface1">
<path style=" stroke:none;fill-rule:nonzero;fill:rgb(0%,44.313725%,73.72549%);fill-opacity:1;" d="M 69.523438 34.515625 C 68.015625 18.148438 54.253906 5.332031 37.5 5.332031 C 19.734375 5.332031 5.332031 19.734375 5.332031 37.5 C 5.332031 55.207031 19.640625 69.570312 37.335938 69.660156 C 37.386719 69.660156 37.449219 69.667969 37.5 69.667969 C 55.265625 69.667969 69.667969 55.265625 69.667969 37.5 C 69.667969 36.496094 69.613281 35.496094 69.523438 34.515625 Z M 69.523438 34.515625 "/>
<path style=" stroke:none;fill-rule:nonzero;fill:rgb(100%,100%,100%);fill-opacity:1;" d="M 37.5 5.332031 C 54.253906 5.332031 68.015625 18.148438 69.523438 34.515625 C 69.613281 35.496094 69.667969 36.496094 69.667969 37.5 C 69.667969 55.265625 55.265625 69.667969 37.5 69.667969 C 37.449219 69.667969 37.386719 69.660156 37.335938 69.660156 C 19.640625 69.570312 5.332031 55.207031 5.332031 37.5 C 5.332031 19.734375 19.734375 5.332031 37.5 5.332031 M 37.5 0 C 16.824219 0 0 16.824219 0 37.5 C 0 58.050781 16.703125 74.859375 37.253906 74.992188 C 37.34375 74.992188 37.417969 75 37.5 75 C 58.175781 75 75 58.175781 75 37.5 C 75 36.375 74.949219 35.234375 74.835938 34.027344 C 73.980469 24.757812 69.71875 16.171875 62.835938 9.855469 C 55.90625 3.503906 46.914062 0 37.5 0 Z M 37.5 0 "/>
<use xlink:href="#surface6" mask="url(#mask0)"/>
<path style=" stroke:none;fill-rule:nonzero;fill:rgb(100%,100%,100%);fill-opacity:1;" d="M 29.015625 40.230469 C 29.015625 39.878906 28.996094 39.53125 28.949219 39.195312 C 29.308594 38.566406 29.992188 38.128906 30.773438 38.128906 C 31.515625 38.128906 32.167969 38.519531 32.542969 39.105469 C 32.488281 39.488281 32.460938 39.871094 32.460938 40.265625 C 32.460938 44.902344 36.226562 48.667969 40.859375 48.667969 C 45.496094 48.667969 49.261719 44.902344 49.261719 40.265625 C 49.261719 38.648438 48.800781 37.140625 48.007812 35.859375 L 59.003906 24.863281 C 59.453125 24.414062 59.40625 23.625 58.898438 23.109375 C 58.386719 22.597656 57.601562 22.550781 57.140625 23.003906 L 46.289062 33.855469 C 44.828125 32.609375 42.929688 31.859375 40.867188 31.859375 C 37.386719 31.859375 34.394531 33.988281 33.121094 37.011719 C 32.460938 36.53125 31.65625 36.246094 30.78125 36.246094 C 29.886719 36.246094 29.0625 36.546875 28.394531 37.050781 C 27.457031 34.761719 25.539062 32.976562 23.160156 32.21875 L 31.402344 23.976562 C 31.851562 23.527344 31.808594 22.738281 31.296875 22.230469 C 31.058594 21.988281 30.75 21.839844 30.425781 21.816406 C 30.089844 21.789062 29.773438 21.898438 29.550781 22.125 L 19.800781 31.867188 C 15.546875 32.28125 12.21875 35.871094 12.21875 40.230469 C 12.21875 44.859375 15.984375 48.628906 20.617188 48.628906 C 25.253906 48.628906 29.015625 44.863281 29.015625 40.230469 Z M 40.867188 33.171875 C 44.78125 33.171875 47.960938 36.351562 47.960938 40.265625 C 47.960938 44.183594 44.78125 47.363281 40.867188 47.363281 C 36.953125 47.363281 33.773438 44.183594 33.773438 40.265625 C 33.773438 36.351562 36.953125 33.171875 40.867188 33.171875 Z M 20.617188 47.324219 C 16.703125 47.324219 13.523438 44.144531 13.523438 40.230469 C 13.523438 36.316406 16.703125 33.136719 20.617188 33.136719 C 24.53125 33.136719 27.710938 36.316406 27.710938 40.230469 C 27.710938 44.144531 24.53125 47.324219 20.617188 47.324219 Z M 20.617188 47.324219 "/>
<path style=" stroke:none;fill-rule:nonzero;fill:rgb(100%,100%,100%);fill-opacity:1;" d="M 20.242188 34.417969 C 18.53125 34.453125 15.238281 35.511719 14.992188 39.261719 C 14.960938 39.765625 15.335938 40.199219 15.839844 40.230469 C 16.335938 40.261719 16.777344 39.878906 16.808594 39.382812 C 16.824219 39.140625 16.859375 38.917969 16.921875 38.683594 C 17.300781 37.183594 18.515625 36.59375 19.46875 36.359375 C 19.921875 36.253906 20.25 36.238281 20.28125 36.238281 C 20.78125 36.226562 21.179688 35.8125 21.171875 35.308594 C 21.164062 34.816406 20.753906 34.417969 20.242188 34.417969 Z M 20.242188 34.417969 "/>
<path style=" stroke:none;fill-rule:nonzero;fill:rgb(100%,100%,100%);fill-opacity:1;" d="M 41.300781 34.417969 C 39.59375 34.453125 36.300781 35.511719 36.050781 39.261719 C 36.023438 39.765625 36.398438 40.199219 36.898438 40.230469 C 37.394531 40.261719 37.835938 39.878906 37.867188 39.382812 C 37.882812 39.140625 37.921875 38.917969 37.980469 38.683594 C 38.363281 37.183594 39.578125 36.59375 40.53125 36.359375 C 40.980469 36.253906 41.308594 36.238281 41.339844 36.238281 C 41.84375 36.226562 42.238281 35.8125 42.234375 35.308594 C 42.21875 34.816406 41.8125 34.417969 41.300781 34.417969 Z M 41.300781 34.417969 "/>
</g>
</svg>
