<?xml version="1.0" encoding="UTF-8"?>
<svg xmlns="http://www.w3.org/2000/svg" xmlns:xlink="http://www.w3.org/1999/xlink" width="75pt" height="75pt" viewBox="0 0 75 75" version="1.1">
<defs>
<filter id="alpha" filterUnits="objectBoundingBox" x="0%" y="0%" width="100%" height="100%">
  <feColorMatrix type="matrix" in="SourceGraphic" values="0 0 0 0 1 0 0 0 0 1 0 0 0 0 1 0 0 0 1 0"/>
</filter>
<mask id="mask0">
  <g filter="url(#alpha)">
<rect x="0" y="0" width="75" height="75" style="fill:rgb(0%,0%,0%);fill-opacity:0.301961;stroke:none;"/>
  </g>
</mask>
<clipPath id="clip1">
  <rect width="75" height="75"/>
</clipPath>
<g id="surface6" clip-path="url(#clip1)">
<path style=" stroke:none;fill-rule:nonzero;fill:rgb(11.764706%,11.764706%,10.980392%);fill-opacity:1;" d="M 50.015625 17.949219 L 49.582031 17.949219 C 49.433594 18.292969 49.246094 18.621094 49.003906 18.914062 L 49.003906 21.773438 L 46.703125 21.773438 L 46.703125 20.273438 C 46.378906 20.332031 46.035156 20.378906 45.660156 20.363281 C 40.613281 20.21875 36.652344 19.363281 31.835938 21.390625 C 31.410156 21.570312 30.96875 21.636719 30.523438 21.628906 L 26.273438 26.273438 L 52.140625 52.125 L 50.054688 53.640625 L 25.800781 29.386719 L 24.878906 30.390625 C 25.597656 30.96875 26.28125 31.859375 26.421875 32.691406 C 26.550781 33.449219 26.714844 34.246094 26.664062 35.023438 C 26.550781 36.90625 25.753906 38.558594 24.128906 39.59375 C 22.546875 40.597656 20.550781 40.550781 18.929688 39.660156 C 18.34375 39.335938 17.871094 38.894531 17.496094 38.378906 L 16.882812 39.039062 L 20.859375 43.011719 L 27.398438 43.011719 L 27.398438 44.796875 L 28.582031 44.796875 L 28.582031 50.445312 L 15.136719 50.445312 L 15.136719 49.035156 L 13.351562 50.332031 L 32.25 69.234375 C 33.960938 69.511719 35.707031 69.667969 37.492188 69.667969 C 42.652344 69.667969 47.527344 68.445312 51.847656 66.285156 L 51.871094 66.269531 C 62.386719 61.003906 69.621094 50.144531 69.652344 37.589844 Z M 56.585938 39.140625 C 56.234375 40.074219 55.5 40.828125 54.675781 41.363281 C 54.644531 41.378906 54.609375 41.390625 54.578125 41.40625 L 54.578125 43.085938 L 50.863281 43.085938 L 50.863281 41.691406 C 49.964844 41.339844 48.960938 40.605469 48.578125 39.773438 C 48.554688 39.726562 48.523438 39.691406 48.503906 39.652344 C 48.238281 39.382812 47.96875 39.121094 47.683594 38.878906 C 47.601562 38.820312 47.519531 38.761719 47.429688 38.699219 C 45.335938 37.34375 44.664062 34.824219 45.832031 32.601562 C 46.921875 30.539062 49.972656 29.730469 51.929688 31.003906 C 52.320312 31.261719 52.703125 31.539062 53.078125 31.824219 C 53.789062 30.890625 54.90625 30.253906 56.445312 30.253906 C 62.128906 30.234375 62.167969 38.984375 56.585938 39.140625 Z M 56.585938 39.140625 "/>
</g>
</defs>
<g id="surface1">
<path style=" stroke:none;fill-rule:nonzero;fill:rgb(5.098039%,44.313725%,72.54902%);fill-opacity:1;" d="M 69.667969 37.5 C 69.667969 55.265625 55.265625 69.667969 37.5 69.667969 C 19.734375 69.667969 5.332031 55.265625 5.332031 37.5 C 5.332031 19.734375 19.734375 5.332031 37.5 5.332031 C 55.265625 5.332031 69.667969 19.734375 69.667969 37.5 Z M 69.667969 37.5 "/>
<path style=" stroke:none;fill-rule:nonzero;fill:rgb(100%,100%,100%);fill-opacity:1;" d="M 37.5 5.332031 C 55.265625 5.332031 69.667969 19.734375 69.667969 37.5 C 69.667969 55.265625 55.265625 69.667969 37.5 69.667969 C 19.734375 69.667969 5.332031 55.265625 5.332031 37.5 C 5.332031 19.734375 19.734375 5.332031 37.5 5.332031 M 37.5 0 C 16.824219 0 0 16.824219 0 37.5 C 0 58.175781 16.824219 75 37.5 75 C 58.175781 75 75 58.175781 75 37.5 C 75 16.824219 58.175781 0 37.5 0 Z M 37.5 0 "/>
<use xlink:href="#surface6" mask="url(#mask0)"/>
<path style=" stroke:none;fill-rule:nonzero;fill:rgb(100%,100%,100%);fill-opacity:1;" d="M 21.765625 41.128906 C 23.503906 41.128906 25.140625 40.453125 26.371094 39.21875 C 27.601562 37.988281 28.28125 36.351562 28.28125 34.605469 C 28.28125 31.011719 25.359375 28.085938 21.765625 28.085938 C 20.023438 28.085938 18.390625 28.761719 17.160156 30 C 15.929688 31.230469 15.246094 32.863281 15.246094 34.605469 C 15.253906 38.203125 18.171875 41.128906 21.765625 41.128906 Z M 18.382812 31.222656 C 19.289062 30.316406 20.488281 29.8125 21.773438 29.8125 C 24.414062 29.8125 26.566406 31.957031 26.566406 34.605469 C 26.566406 35.878906 26.0625 37.085938 25.164062 37.996094 C 24.253906 38.902344 23.054688 39.398438 21.78125 39.398438 C 19.140625 39.398438 16.988281 37.253906 16.988281 34.605469 C 16.972656 33.335938 17.476562 32.136719 18.382812 31.222656 Z M 18.382812 31.222656 "/>
<path style=" stroke:none;fill-rule:nonzero;fill:rgb(100%,100%,100%);fill-opacity:1;" d="M 30.023438 50.273438 C 30.03125 50.039062 30.171875 44.535156 26.707031 41.363281 C 26.398438 41.078125 25.933594 41.0625 25.597656 41.316406 C 25.558594 41.347656 21.734375 44.21875 18.171875 41.324219 C 17.851562 41.0625 17.378906 41.070312 17.0625 41.339844 C 16.921875 41.460938 13.589844 44.421875 13.507812 50.234375 C 13.5 50.46875 13.589844 50.683594 13.753906 50.851562 C 13.921875 51.015625 14.136719 51.105469 14.371094 51.105469 L 29.160156 51.097656 C 29.625 51.105469 30.007812 50.738281 30.023438 50.273438 Z M 15.277344 49.378906 C 15.539062 46.09375 16.972656 44.015625 17.730469 43.132812 C 20.84375 45.195312 24.179688 44.21875 26.015625 43.117188 C 27.773438 45.105469 28.175781 47.976562 28.273438 49.378906 Z M 15.277344 49.378906 "/>
<path style=" stroke:none;fill-rule:nonzero;fill:rgb(100%,100%,100%);fill-opacity:1;" d="M 56.804688 29.226562 C 55.191406 29.226562 53.707031 30.113281 52.851562 31.539062 C 51.996094 30.121094 50.511719 29.226562 48.898438 29.226562 C 46.941406 29.226562 45.171875 30.546875 44.503906 32.503906 C 44.316406 33.058594 44.21875 33.628906 44.21875 34.199219 C 44.21875 34.761719 44.308594 35.316406 44.484375 35.835938 C 44.503906 35.894531 44.519531 35.949219 44.550781 35.992188 L 45.277344 35.65625 L 44.542969 36 L 45.269531 35.65625 L 44.542969 36 C 44.550781 36.023438 44.558594 36.039062 44.574219 36.066406 C 44.773438 36.59375 45.039062 37.050781 45.335938 37.433594 C 45.488281 37.621094 45.652344 37.792969 45.832031 37.957031 L 52.851562 45.390625 L 60.121094 37.695312 C 60.601562 37.175781 60.976562 36.546875 61.207031 35.871094 C 61.386719 35.332031 61.484375 34.761719 61.484375 34.191406 C 61.484375 31.460938 59.386719 29.226562 56.804688 29.226562 Z M 59.691406 35.371094 C 59.535156 35.828125 59.28125 36.261719 58.933594 36.628906 L 52.859375 43.074219 L 46.988281 36.847656 L 46.941406 36.800781 C 46.816406 36.683594 46.695312 36.5625 46.589844 36.425781 C 46.386719 36.171875 46.207031 35.859375 46.074219 35.503906 C 46.050781 35.4375 46.019531 35.378906 45.988281 35.316406 C 45.878906 34.957031 45.816406 34.582031 45.816406 34.207031 C 45.816406 33.816406 45.886719 33.421875 46.011719 33.039062 C 46.460938 31.726562 47.617188 30.839844 48.890625 30.839844 C 50.085938 30.839844 51.179688 31.605469 51.691406 32.796875 C 51.886719 33.261719 52.34375 33.5625 52.84375 33.5625 C 53.347656 33.5625 53.804688 33.261719 54 32.796875 C 54.511719 31.613281 55.605469 30.839844 56.796875 30.839844 C 58.5 30.839844 59.878906 32.347656 59.878906 34.207031 C 59.886719 34.605469 59.820312 34.996094 59.691406 35.371094 Z M 59.691406 35.371094 "/>
<path style=" stroke:none;fill-rule:nonzero;fill:rgb(100%,100%,100%);fill-opacity:1;" d="M 26.753906 26.429688 C 26.566406 26.429688 26.378906 26.371094 26.21875 26.25 C 25.835938 25.957031 25.761719 25.410156 26.054688 25.027344 C 26.210938 24.816406 30.046875 19.890625 37.261719 19.050781 C 46.117188 18.023438 50.234375 22.101562 50.40625 22.273438 C 50.746094 22.621094 50.738281 23.175781 50.398438 23.511719 C 50.054688 23.851562 49.5 23.851562 49.164062 23.503906 C 49.125 23.476562 45.421875 19.867188 37.460938 20.789062 C 31.011719 21.539062 27.480469 26.039062 27.441406 26.085938 C 27.277344 26.308594 27.015625 26.429688 26.753906 26.429688 Z M 26.753906 26.429688 "/>
<path style=" stroke:none;fill-rule:nonzero;fill:rgb(100%,100%,100%);fill-opacity:1;" d="M 45.039062 24.808594 C 44.578125 24.808594 44.191406 24.449219 44.167969 23.984375 C 44.136719 23.503906 44.511719 23.09375 44.992188 23.0625 L 49.378906 22.816406 L 48.683594 18.78125 C 48.601562 18.308594 48.921875 17.851562 49.394531 17.765625 C 49.867188 17.683594 50.324219 18.007812 50.40625 18.480469 L 51.269531 23.484375 C 51.316406 23.730469 51.246094 23.976562 51.089844 24.171875 C 50.933594 24.367188 50.707031 24.488281 50.453125 24.503906 L 45.089844 24.800781 C 45.074219 24.808594 45.050781 24.808594 45.039062 24.808594 Z M 45.039062 24.808594 "/>
<path style=" stroke:none;fill-rule:nonzero;fill:rgb(100%,100%,100%);fill-opacity:1;" d="M 41.460938 57.554688 C 36.097656 57.554688 33.292969 55.34375 33.140625 55.222656 C 32.765625 54.914062 32.707031 54.367188 33.015625 53.992188 C 33.316406 53.617188 33.871094 53.558594 34.246094 53.863281 C 34.28125 53.894531 38.371094 57.050781 46.175781 55.238281 C 52.5 53.765625 55.5 48.886719 55.53125 48.839844 C 55.777344 48.425781 56.316406 48.292969 56.730469 48.539062 C 57.140625 48.789062 57.277344 49.320312 57.03125 49.738281 C 56.894531 49.964844 53.648438 55.296875 46.574219 56.949219 C 44.671875 57.382812 42.96875 57.554688 41.460938 57.554688 Z M 41.460938 57.554688 "/>
<path style=" stroke:none;fill-rule:nonzero;fill:rgb(100%,100%,100%);fill-opacity:1;" d="M 34.425781 59.625 C 34.050781 59.625 33.699219 59.378906 33.585938 58.996094 L 32.160156 54.128906 C 32.09375 53.886719 32.121094 53.632812 32.257812 53.421875 C 32.390625 53.210938 32.601562 53.0625 32.851562 53.023438 L 38.144531 52.117188 C 38.625 52.042969 39.074219 52.359375 39.15625 52.828125 C 39.238281 53.300781 38.917969 53.761719 38.445312 53.84375 L 34.117188 54.585938 L 35.265625 58.5 C 35.398438 58.964844 35.136719 59.445312 34.671875 59.585938 C 34.589844 59.609375 34.507812 59.625 34.425781 59.625 Z M 34.425781 59.625 "/>
</g>
</svg>
