<?xml version="1.0" encoding="UTF-8"?>
<svg xmlns="http://www.w3.org/2000/svg" xmlns:xlink="http://www.w3.org/1999/xlink" width="75pt" height="75pt" viewBox="0 0 75 75" version="1.1">
<defs>
<filter id="alpha" filterUnits="objectBoundingBox" x="0%" y="0%" width="100%" height="100%">
  <feColorMatrix type="matrix" in="SourceGraphic" values="0 0 0 0 1 0 0 0 0 1 0 0 0 0 1 0 0 0 1 0"/>
</filter>
<mask id="mask0">
  <g filter="url(#alpha)">
<rect x="0" y="0" width="75" height="75" style="fill:rgb(0%,0%,0%);fill-opacity:0.301961;stroke:none;"/>
  </g>
</mask>
<clipPath id="clip1">
  <rect width="75" height="75"/>
</clipPath>
<g id="surface6" clip-path="url(#clip1)">
<path style=" stroke:none;fill-rule:nonzero;fill:rgb(11.764706%,11.764706%,10.980392%);fill-opacity:1;" d="M 29.128906 27.636719 L 24.367188 22.875 L 22.363281 23.765625 L 28.289062 29.691406 C 28.402344 28.949219 28.679688 28.238281 29.128906 27.636719 Z M 29.128906 27.636719 "/>
</g>
<mask id="mask1">
  <g filter="url(#alpha)">
<rect x="0" y="0" width="75" height="75" style="fill:rgb(0%,0%,0%);fill-opacity:0.301961;stroke:none;"/>
  </g>
</mask>
<clipPath id="clip2">
  <rect width="75" height="75"/>
</clipPath>
<g id="surface9" clip-path="url(#clip2)">
<path style=" stroke:none;fill-rule:nonzero;fill:rgb(11.764706%,11.764706%,10.980392%);fill-opacity:1;" d="M 27.496094 47.585938 C 25.605469 46.386719 25.148438 44.484375 25.558594 42.789062 L 19.351562 36.578125 L 14.671875 38.023438 L 30.808594 54.164062 C 31.621094 51.945312 29.429688 48.816406 27.496094 47.585938 Z M 27.496094 47.585938 "/>
</g>
<mask id="mask2">
  <g filter="url(#alpha)">
<rect x="0" y="0" width="75" height="75" style="fill:rgb(0%,0%,0%);fill-opacity:0.301961;stroke:none;"/>
  </g>
</mask>
<clipPath id="clip3">
  <rect width="75" height="75"/>
</clipPath>
<g id="surface12" clip-path="url(#clip3)">
<path style=" stroke:none;fill-rule:nonzero;fill:rgb(11.764706%,11.764706%,10.980392%);fill-opacity:1;" d="M 38.183594 14.632812 L 36.511719 19.085938 L 46.101562 28.679688 C 48.996094 29.265625 49.988281 32.4375 49.085938 34.808594 C 49.476562 36.105469 49.335938 37.582031 48.652344 38.738281 C 48.773438 39.148438 48.839844 39.585938 48.898438 40.058594 C 49.304688 43.273438 48.046875 46.84375 45.480469 48.890625 C 45.226562 49.101562 44.953125 49.273438 44.683594 49.441406 C 44.519531 51.425781 44.257812 53.4375 44.003906 55.441406 C 43.539062 59.054688 39.683594 60.367188 37.183594 59.324219 C 36.253906 59.871094 35.136719 60.074219 33.90625 59.738281 C 32.859375 59.453125 31.882812 58.664062 31.253906 57.675781 L 29.828125 60.007812 L 39.425781 69.609375 C 53.683594 68.765625 65.4375 58.640625 68.738281 45.1875 Z M 38.183594 14.632812 "/>
</g>
<mask id="mask3">
  <g filter="url(#alpha)">
<rect x="0" y="0" width="75" height="75" style="fill:rgb(0%,0%,0%);fill-opacity:0.301961;stroke:none;"/>
  </g>
</mask>
<clipPath id="clip4">
  <rect width="75" height="75"/>
</clipPath>
<g id="surface15" clip-path="url(#clip4)">
<path style=" stroke:none;fill-rule:nonzero;fill:rgb(11.764706%,11.764706%,10.980392%);fill-opacity:1;" d="M 69.652344 36.96875 L 53.671875 20.984375 L 50.109375 24.996094 L 69.03125 43.921875 C 69.449219 41.851562 69.675781 39.703125 69.675781 37.507812 C 69.667969 37.320312 69.652344 37.148438 69.652344 36.96875 Z M 69.652344 36.96875 "/>
</g>
</defs>
<g id="surface1">
<path style=" stroke:none;fill-rule:nonzero;fill:rgb(5.098039%,44.313725%,72.54902%);fill-opacity:1;" d="M 69.667969 37.5 C 69.667969 55.265625 55.265625 69.667969 37.5 69.667969 C 19.734375 69.667969 5.332031 55.265625 5.332031 37.5 C 5.332031 19.734375 19.734375 5.332031 37.5 5.332031 C 55.265625 5.332031 69.667969 19.734375 69.667969 37.5 Z M 69.667969 37.5 "/>
<path style=" stroke:none;fill-rule:nonzero;fill:rgb(100%,100%,100%);fill-opacity:1;" d="M 37.5 5.332031 C 55.265625 5.332031 69.667969 19.734375 69.667969 37.5 C 69.667969 55.265625 55.265625 69.667969 37.5 69.667969 C 19.734375 69.667969 5.332031 55.265625 5.332031 37.5 C 5.332031 19.734375 19.734375 5.332031 37.5 5.332031 M 37.5 0 C 16.824219 0 0 16.824219 0 37.5 C 0 58.175781 16.824219 75 37.5 75 C 58.175781 75 75 58.175781 75 37.5 C 75 16.824219 58.175781 0 37.5 0 Z M 37.5 0 "/>
<use xlink:href="#surface6" mask="url(#mask0)"/>
<use xlink:href="#surface9" mask="url(#mask1)"/>
<use xlink:href="#surface12" mask="url(#mask2)"/>
<use xlink:href="#surface15" mask="url(#mask3)"/>
<path style=" stroke:none;fill-rule:nonzero;fill:rgb(100%,100%,100%);fill-opacity:1;" d="M 47.296875 27.824219 C 46.613281 27.765625 45.90625 27.898438 45.140625 27.953125 C 44.210938 25.449219 42.367188 24.636719 39.75 25.335938 C 39.148438 23.535156 37.996094 22.410156 36.105469 22.402344 C 34.207031 22.386719 33.066406 23.535156 32.40625 25.289062 C 28.628906 24.726562 26.953125 26.183594 26.960938 29.871094 C 26.960938 30.414062 27.058594 30.976562 26.949219 31.484375 C 26.84375 31.949219 26.617188 32.527344 26.257812 32.761719 C 24.898438 33.636719 24.292969 34.851562 24.277344 36.414062 C 24.261719 38.113281 24.34375 39.824219 24.253906 41.519531 C 24.03125 45.578125 25.664062 48.660156 28.898438 51.03125 C 29.308594 51.328125 29.640625 52.019531 29.65625 52.546875 C 29.738281 54.703125 29.664062 56.863281 29.707031 59.023438 C 29.714844 59.46875 29.886719 60.046875 30.195312 60.324219 C 30.488281 60.585938 32.21875 60.554688 33.59375 60.53125 L 41.199219 60.53125 C 41.542969 60.539062 41.941406 60.539062 42.316406 60.53125 L 42.554688 60.53125 C 42.921875 60.53125 43.253906 60.523438 43.460938 60.539062 C 44.683594 60.613281 45.195312 59.976562 45.1875 58.808594 C 45.179688 56.941406 45.269531 55.066406 45.164062 53.199219 C 45.097656 51.996094 45.441406 51.21875 46.410156 50.46875 C 48.773438 48.652344 50.414062 46.304688 50.496094 43.222656 C 50.601562 39.277344 50.558594 35.332031 50.511719 31.378906 C 50.496094 29.527344 49.066406 27.988281 47.296875 27.824219 Z M 45.121094 31.289062 C 45.1875 30.324219 45.871094 29.683594 46.890625 29.730469 C 47.902344 29.773438 48.472656 30.398438 48.503906 31.425781 C 48.523438 32.210938 48.511719 33 48.511719 33.796875 C 48.511719 33.796875 48.511719 33.796875 48.515625 33.796875 C 48.515625 34.546875 48.539062 35.289062 48.511719 36.039062 C 48.472656 37.085938 47.859375 37.679688 46.867188 37.71875 C 45.863281 37.753906 45.171875 37.140625 45.113281 36.140625 C 45.03125 34.53125 45.015625 32.894531 45.121094 31.289062 Z M 39.898438 28.164062 C 39.976562 27.300781 40.875 26.941406 41.738281 27.066406 C 42.609375 27.195312 43.132812 27.796875 43.164062 28.695312 C 43.199219 29.648438 43.171875 30.601562 43.171875 31.550781 C 43.171875 32.210938 43.214844 32.878906 43.164062 33.539062 C 43.117188 34.117188 43.523438 34.933594 42.421875 35.054688 C 41.113281 35.199219 39.9375 34.785156 39.878906 33.863281 C 39.75 31.964844 39.734375 30.046875 39.898438 28.164062 Z M 34.359375 26.046875 C 34.425781 24.988281 35.011719 24.367188 36.121094 24.390625 C 37.171875 24.414062 37.734375 25.011719 37.753906 26.023438 C 37.792969 27.847656 37.808594 29.671875 37.726562 31.484375 C 37.710938 31.777344 37.175781 32.265625 36.855469 32.296875 C 34.34375 32.542969 34.34375 32.511719 34.34375 30.015625 L 34.34375 28.769531 L 34.351562 28.769531 C 34.34375 27.871094 34.296875 26.953125 34.359375 26.046875 Z M 28.980469 31.191406 C 29.023438 30.414062 28.964844 29.625 29.003906 28.84375 C 29.0625 27.710938 29.78125 26.953125 30.773438 27.046875 C 31.835938 27.140625 32.371094 27.808594 32.421875 28.859375 C 32.445312 29.273438 32.421875 29.683594 32.421875 30.097656 C 32.347656 32.578125 32.96875 32.300781 30.089844 32.363281 C 29.21875 32.371094 28.933594 32.015625 28.980469 31.191406 Z M 44.378906 49.492188 C 43.515625 50.085938 43.125 50.671875 43.15625 51.703125 C 43.222656 53.617188 43.148438 55.53125 43.183594 57.433594 C 43.199219 58.175781 42.945312 58.441406 42.179688 58.484375 C 42.097656 58.492188 41.886719 58.507812 41.648438 58.53125 L 32.902344 58.53125 C 32.859375 58.53125 32.820312 58.53125 32.796875 58.53125 L 32.574219 58.53125 L 32.574219 58.539062 C 31.710938 58.546875 31.582031 58.019531 31.605469 57.164062 C 31.648438 55.253906 31.589844 53.339844 31.628906 51.425781 C 31.640625 50.648438 31.417969 50.113281 30.726562 49.679688 C 27.628906 47.738281 25.972656 45.046875 26.273438 41.257812 C 26.40625 39.5625 26.296875 37.851562 26.296875 36.148438 C 26.296875 35.199219 26.707031 34.402344 27.667969 34.371094 C 30.9375 34.289062 34.207031 34.34375 37.492188 34.34375 C 37.148438 36.292969 35.550781 37.628906 33.511719 37.734375 C 32.640625 37.777344 31.746094 37.65625 30.898438 37.792969 C 30.773438 37.816406 30.652344 37.875 30.539062 37.949219 C 30.023438 38.308594 29.960938 39.089844 30.464844 39.464844 C 30.570312 39.546875 30.691406 39.601562 30.832031 39.601562 C 34.523438 39.667969 37.679688 42.839844 37.816406 46.449219 C 37.824219 46.679688 38.015625 46.90625 38.242188 47.128906 C 38.519531 47.40625 38.976562 47.40625 39.253906 47.121094 C 39.472656 46.90625 39.660156 46.679688 39.703125 46.433594 C 40.199219 43.933594 41.347656 42.796875 43.851562 42.324219 C 44.289062 42.238281 44.992188 41.953125 44.960938 41.332031 C 44.925781 40.523438 44.339844 40.425781 43.640625 40.46875 C 41.738281 40.574219 40.28125 41.542969 39.050781 42.863281 C 38.015625 41.640625 37.019531 40.449219 36.046875 39.292969 C 37.042969 38.363281 38.113281 37.363281 39.050781 36.496094 C 40.246094 36.644531 41.414062 36.765625 42.578125 36.945312 C 42.863281 36.988281 43.273438 37.117188 43.378906 37.328125 C 44.429688 39.390625 46.101562 39.984375 48.253906 39.441406 C 49.066406 44.011719 48.324219 46.769531 44.378906 49.492188 Z M 44.378906 49.492188 "/>
<path style=" stroke:none;fill-rule:nonzero;fill:rgb(100%,100%,100%);fill-opacity:1;" d="M 18.75 36.457031 L 15.511719 36.457031 C 14.960938 36.457031 14.511719 36.90625 14.511719 37.453125 C 14.511719 38.003906 14.960938 38.453125 15.511719 38.453125 L 18.75 38.453125 C 19.296875 38.453125 19.746094 38.003906 19.746094 37.453125 C 19.746094 36.90625 19.296875 36.457031 18.75 36.457031 Z M 18.75 36.457031 "/>
<path style=" stroke:none;fill-rule:nonzero;fill:rgb(100%,100%,100%);fill-opacity:1;" d="M 59.496094 36.457031 L 56.25 36.457031 C 55.703125 36.457031 55.253906 36.90625 55.253906 37.453125 C 55.253906 38.003906 55.703125 38.453125 56.25 38.453125 L 59.488281 38.453125 C 60.039062 38.453125 60.488281 38.003906 60.488281 37.453125 C 60.488281 36.90625 60.046875 36.457031 59.496094 36.457031 Z M 59.496094 36.457031 "/>
<path style=" stroke:none;fill-rule:nonzero;fill:rgb(100%,100%,100%);fill-opacity:1;" d="M 52.351562 21.195312 L 50.054688 23.488281 C 49.664062 23.878906 49.664062 24.511719 50.054688 24.898438 C 50.25 25.09375 50.503906 25.191406 50.761719 25.191406 C 51.015625 25.191406 51.269531 25.09375 51.464844 24.898438 L 53.761719 22.605469 C 54.148438 22.214844 54.148438 21.585938 53.761719 21.195312 C 53.371094 20.804688 52.738281 20.804688 52.351562 21.195312 Z M 52.351562 21.195312 "/>
<path style=" stroke:none;fill-rule:nonzero;fill:rgb(100%,100%,100%);fill-opacity:1;" d="M 37.5 19.703125 C 38.046875 19.703125 38.496094 19.253906 38.496094 18.703125 L 38.496094 15.464844 C 38.496094 14.917969 38.046875 14.46875 37.5 14.46875 C 36.953125 14.46875 36.503906 14.917969 36.503906 15.464844 L 36.503906 18.703125 C 36.503906 19.253906 36.953125 19.703125 37.5 19.703125 Z M 37.5 19.703125 "/>
<path style=" stroke:none;fill-rule:nonzero;fill:rgb(100%,100%,100%);fill-opacity:1;" d="M 24.945312 24.898438 C 25.335938 24.511719 25.335938 23.878906 24.945312 23.488281 L 22.648438 21.195312 C 22.261719 20.804688 21.628906 20.804688 21.238281 21.195312 C 20.851562 21.585938 20.851562 22.214844 21.238281 22.605469 L 23.535156 24.898438 C 23.730469 25.09375 23.984375 25.191406 24.238281 25.191406 C 24.496094 25.191406 24.75 25.09375 24.945312 24.898438 Z M 24.945312 24.898438 "/>
</g>
</svg>
