<?xml version="1.0" encoding="UTF-8"?>
<svg xmlns="http://www.w3.org/2000/svg" xmlns:xlink="http://www.w3.org/1999/xlink" width="75pt" height="75pt" viewBox="0 0 75 75" version="1.1">
<defs>
<filter id="alpha" filterUnits="objectBoundingBox" x="0%" y="0%" width="100%" height="100%">
  <feColorMatrix type="matrix" in="SourceGraphic" values="0 0 0 0 1 0 0 0 0 1 0 0 0 0 1 0 0 0 1 0"/>
</filter>
<mask id="mask0">
  <g filter="url(#alpha)">
<rect x="0" y="0" width="75" height="75" style="fill:rgb(0%,0%,0%);fill-opacity:0.301961;stroke:none;"/>
  </g>
</mask>
<clipPath id="clip1">
  <rect width="75" height="75"/>
</clipPath>
<g id="surface6" clip-path="url(#clip1)">
<path style=" stroke:none;fill-rule:nonzero;fill:rgb(11.764706%,11.764706%,10.980392%);fill-opacity:1;" d="M 69.261719 32.421875 L 52.753906 15.90625 L 51.863281 16.449219 C 51.742188 17.011719 53.023438 20.488281 53.023438 20.488281 C 53.023438 20.488281 50.414062 22.261719 49.90625 22.566406 C 49.28125 22.941406 48.585938 20.265625 47.675781 20.265625 C 47.257812 20.265625 46.867188 19.761719 46.507812 19.679688 L 41.773438 22.53125 C 41.511719 23.316406 42.628906 25.621094 41.960938 26.136719 C 41.289062 26.664062 38.820312 25.394531 37.726562 25.394531 C 37.507812 25.394531 37.296875 25.378906 37.09375 25.351562 L 35.054688 26.578125 L 41.925781 33.449219 L 41.59375 34.304688 C 41.308594 35.851562 37.828125 39.511719 36.105469 39.953125 L 19.597656 58.363281 L 30.007812 68.773438 C 32.414062 69.351562 34.921875 69.660156 37.5 69.660156 C 55.265625 69.660156 69.667969 55.261719 69.667969 37.492188 C 69.667969 35.773438 69.523438 34.074219 69.261719 32.421875 Z M 69.261719 32.421875 "/>
</g>
</defs>
<g id="surface1">
<path style=" stroke:none;fill-rule:nonzero;fill:rgb(5.098039%,44.313725%,72.54902%);fill-opacity:1;" d="M 69.667969 37.5 C 69.667969 55.265625 55.265625 69.667969 37.5 69.667969 C 19.734375 69.667969 5.332031 55.265625 5.332031 37.5 C 5.332031 19.734375 19.734375 5.332031 37.5 5.332031 C 55.265625 5.332031 69.667969 19.734375 69.667969 37.5 Z M 69.667969 37.5 "/>
<path style=" stroke:none;fill-rule:nonzero;fill:rgb(100%,100%,100%);fill-opacity:1;" d="M 37.5 5.332031 C 55.265625 5.332031 69.667969 19.734375 69.667969 37.5 C 69.667969 55.265625 55.265625 69.667969 37.5 69.667969 C 19.734375 69.667969 5.332031 55.265625 5.332031 37.5 C 5.332031 19.734375 19.734375 5.332031 37.5 5.332031 M 37.5 0 C 16.824219 0 0 16.824219 0 37.5 C 0 58.175781 16.824219 75 37.5 75 C 58.175781 75 75 58.175781 75 37.5 C 75 16.824219 58.175781 0 37.5 0 Z M 37.5 0 "/>
<use xlink:href="#surface6" mask="url(#mask0)"/>
<path style=" stroke:none;fill-rule:nonzero;fill:rgb(100%,100%,100%);fill-opacity:1;" d="M 38.675781 31.851562 L 19.785156 57.226562 C 19.46875 57.652344 19.550781 58.253906 19.980469 58.566406 L 22.078125 60.128906 C 22.507812 60.441406 23.109375 60.359375 23.421875 59.933594 L 42.316406 34.550781 C 42.628906 34.125 42.546875 33.523438 42.121094 33.210938 L 40.019531 31.648438 C 39.59375 31.335938 38.992188 31.425781 38.675781 31.851562 Z M 41.023438 33.585938 C 41.378906 33.847656 41.445312 34.34375 41.191406 34.695312 L 38.152344 38.773438 C 37.890625 39.128906 37.394531 39.195312 37.042969 38.941406 L 35.992188 38.152344 C 35.640625 37.890625 35.574219 37.394531 35.828125 37.042969 L 38.863281 32.960938 C 39.128906 32.609375 39.621094 32.542969 39.976562 32.796875 Z M 41.023438 33.585938 "/>
<path style=" stroke:none;fill-rule:nonzero;fill:rgb(100%,100%,100%);fill-opacity:1;" d="M 41.753906 27.300781 C 41.574219 27.300781 41.390625 27.253906 41.21875 27.164062 L 38.976562 25.988281 L 36.773438 27.164062 C 36.390625 27.367188 35.933594 27.335938 35.578125 27.082031 C 35.226562 26.828125 35.054688 26.398438 35.128906 25.972656 L 35.558594 23.496094 L 33.757812 21.742188 C 33.449219 21.441406 33.335938 20.992188 33.472656 20.578125 C 33.609375 20.167969 33.960938 19.867188 34.386719 19.808594 L 36.878906 19.449219 L 37.988281 17.191406 C 38.183594 16.800781 38.574219 16.558594 39.007812 16.558594 C 39.441406 16.558594 39.832031 16.800781 40.027344 17.191406 L 41.136719 19.449219 L 43.628906 19.808594 C 44.054688 19.867188 44.40625 20.167969 44.542969 20.578125 C 44.675781 20.992188 44.566406 21.441406 44.257812 21.742188 L 42.457031 23.496094 L 42.886719 25.972656 C 42.960938 26.398438 42.789062 26.828125 42.433594 27.082031 C 42.21875 27.234375 41.984375 27.300781 41.753906 27.300781 Z M 34.628906 20.953125 L 36.816406 23.085938 L 36.300781 26.101562 L 38.476562 24.960938 C 38.804688 24.789062 39.203125 24.789062 39.53125 24.960938 L 41.707031 26.101562 L 41.191406 23.09375 L 43.378906 20.960938 L 40.359375 20.519531 L 38.992188 17.761719 L 37.648438 20.519531 Z M 39.496094 17.453125 L 38.96875 17.714844 Z M 39.496094 17.453125 "/>
<path style=" stroke:none;fill-rule:nonzero;fill:rgb(100%,100%,100%);fill-opacity:1;" d="M 48.359375 33.929688 C 48.328125 33.929688 48.308594 33.929688 48.277344 33.921875 C 48 33.890625 47.765625 33.710938 47.671875 33.449219 L 47.210938 32.183594 L 45.90625 31.84375 C 45.636719 31.777344 45.433594 31.558594 45.375 31.289062 C 45.316406 31.011719 45.421875 30.742188 45.636719 30.5625 L 46.695312 29.730469 L 46.613281 28.386719 C 46.597656 28.109375 46.734375 27.847656 46.980469 27.710938 C 47.21875 27.570312 47.519531 27.585938 47.753906 27.742188 L 48.871094 28.492188 L 50.121094 27.996094 C 50.386719 27.890625 50.671875 27.945312 50.878906 28.140625 C 51.089844 28.328125 51.164062 28.613281 51.089844 28.882812 L 50.722656 30.179688 L 51.578125 31.214844 C 51.757812 31.433594 51.796875 31.726562 51.683594 31.980469 C 51.570312 32.234375 51.324219 32.398438 51.046875 32.40625 L 49.703125 32.453125 L 48.984375 33.585938 C 48.839844 33.808594 48.609375 33.929688 48.359375 33.929688 Z M 46.359375 31.085938 L 47.488281 31.378906 C 47.722656 31.441406 47.910156 31.613281 47.992188 31.835938 L 48.390625 32.933594 L 49.222656 31.628906 L 50.765625 31.574219 L 49.785156 30.382812 L 50.210938 28.890625 L 48.773438 29.460938 L 47.488281 28.597656 L 47.585938 30.140625 Z M 46.359375 31.085938 "/>
<path style=" stroke:none;fill-rule:nonzero;fill:rgb(100%,100%,100%);fill-opacity:1;" d="M 49.621094 23.535156 C 49.589844 23.535156 49.550781 23.535156 49.523438 23.527344 C 49.183594 23.488281 48.898438 23.265625 48.78125 22.941406 L 48.171875 21.269531 L 46.449219 20.828125 C 46.117188 20.746094 45.863281 20.484375 45.796875 20.144531 C 45.726562 19.808594 45.847656 19.46875 46.117188 19.261719 L 47.519531 18.164062 L 47.40625 16.386719 C 47.386719 16.042969 47.558594 15.726562 47.859375 15.554688 C 48.15625 15.382812 48.515625 15.398438 48.800781 15.59375 L 50.28125 16.589844 L 51.9375 15.9375 C 52.261719 15.808594 52.613281 15.878906 52.867188 16.109375 C 53.121094 16.34375 53.21875 16.6875 53.128906 17.015625 L 52.640625 18.726562 L 53.773438 20.101562 C 53.992188 20.363281 54.039062 20.722656 53.902344 21.039062 C 53.761719 21.351562 53.460938 21.554688 53.113281 21.5625 L 51.335938 21.621094 L 50.378906 23.121094 C 50.210938 23.386719 49.925781 23.535156 49.621094 23.535156 Z M 46.890625 19.921875 L 48.464844 20.324219 C 48.75 20.398438 48.984375 20.609375 49.078125 20.886719 L 49.636719 22.417969 L 50.761719 20.648438 L 52.859375 20.574219 L 51.523438 18.953125 L 52.101562 16.933594 L 50.152344 17.707031 L 48.414062 16.539062 L 48.539062 18.628906 Z M 46.890625 19.921875 "/>
</g>
</svg>
